%TF.GenerationSoftware,KiCad,Pcbnew,9.0.2*%
%TF.CreationDate,2025-07-10T20:26:42+02:00*%
%TF.ProjectId,pcb,7063622e-6b69-4636-9164-5f7063625858,rev?*%
%TF.SameCoordinates,Original*%
%TF.FileFunction,Profile,NP*%
%FSLAX46Y46*%
G04 Gerber Fmt 4.6, Leading zero omitted, Abs format (unit mm)*
G04 Created by KiCad (PCBNEW 9.0.2) date 2025-07-10 20:26:42*
%MOMM*%
%LPD*%
G01*
G04 APERTURE LIST*
%TA.AperFunction,Profile*%
%ADD10C,0.050000*%
%TD*%
G04 APERTURE END LIST*
D10*
X175100000Y-111000000D02*
G75*
G02*
X172900000Y-111000000I-1100000J0D01*
G01*
X172900000Y-111000000D02*
G75*
G02*
X175100000Y-111000000I1100000J0D01*
G01*
X171600000Y-155150000D02*
G75*
G02*
X169400000Y-155150000I-1100000J0D01*
G01*
X169400000Y-155150000D02*
G75*
G02*
X171600000Y-155150000I1100000J0D01*
G01*
X144105000Y-105610000D02*
G75*
G02*
X141355000Y-105610000I-1375000J0D01*
G01*
X141355000Y-105610000D02*
G75*
G02*
X144105000Y-105610000I1375000J0D01*
G01*
X175100000Y-56000000D02*
G75*
G02*
X172900000Y-56000000I-1100000J0D01*
G01*
X172900000Y-56000000D02*
G75*
G02*
X175100000Y-56000000I1100000J0D01*
G01*
X123000001Y-55999999D02*
G75*
G02*
X127000000Y-52000001I3999999J-1D01*
G01*
X174000000Y-52000001D02*
G75*
G02*
X177999999Y-56000000I0J-3999999D01*
G01*
X178000000Y-158000000D02*
G75*
G02*
X174000001Y-162000000I-4000000J0D01*
G01*
X127000000Y-52000001D02*
X174000000Y-52000001D01*
X177999999Y-56000000D02*
X178000000Y-158000000D01*
X131600000Y-155000000D02*
G75*
G02*
X129400000Y-155000000I-1100000J0D01*
G01*
X129400000Y-155000000D02*
G75*
G02*
X131600000Y-155000000I1100000J0D01*
G01*
X128100000Y-56000000D02*
G75*
G02*
X125900000Y-56000000I-1100000J0D01*
G01*
X125900000Y-56000000D02*
G75*
G02*
X128100000Y-56000000I1100000J0D01*
G01*
X128100000Y-110750000D02*
G75*
G02*
X125900000Y-110750000I-1100000J0D01*
G01*
X125900000Y-110750000D02*
G75*
G02*
X128100000Y-110750000I1100000J0D01*
G01*
X174000001Y-161999999D02*
X127000000Y-161999999D01*
X126999999Y-161999999D02*
G75*
G02*
X123000001Y-158000000I1J3999999D01*
G01*
X123000000Y-158000000D02*
X123000001Y-55999999D01*
X167105000Y-105610000D02*
G75*
G02*
X164355000Y-105610000I-1375000J0D01*
G01*
X164355000Y-105610000D02*
G75*
G02*
X167105000Y-105610000I1375000J0D01*
G01*
M02*
