%TF.GenerationSoftware,KiCad,Pcbnew,9.0.2*%
%TF.CreationDate,2025-07-10T20:26:42+02:00*%
%TF.ProjectId,pcb,7063622e-6b69-4636-9164-5f7063625858,rev?*%
%TF.SameCoordinates,Original*%
%TF.FileFunction,Legend,Top*%
%TF.FilePolarity,Positive*%
%FSLAX46Y46*%
G04 Gerber Fmt 4.6, Leading zero omitted, Abs format (unit mm)*
G04 Created by KiCad (PCBNEW 9.0.2) date 2025-07-10 20:26:42*
%MOMM*%
%LPD*%
G01*
G04 APERTURE LIST*
%ADD10C,0.100000*%
%ADD11C,0.150000*%
%ADD12C,0.120000*%
%ADD13C,0.200000*%
%ADD14C,0.127000*%
%ADD15C,0.152400*%
%ADD16C,0.000000*%
G04 APERTURE END LIST*
D10*
X126403884Y-96048609D02*
X126737217Y-96048609D01*
X126880074Y-96572419D02*
X126403884Y-96572419D01*
X126403884Y-96572419D02*
X126403884Y-95572419D01*
X126403884Y-95572419D02*
X126880074Y-95572419D01*
X127261027Y-96524800D02*
X127403884Y-96572419D01*
X127403884Y-96572419D02*
X127641979Y-96572419D01*
X127641979Y-96572419D02*
X127737217Y-96524800D01*
X127737217Y-96524800D02*
X127784836Y-96477180D01*
X127784836Y-96477180D02*
X127832455Y-96381942D01*
X127832455Y-96381942D02*
X127832455Y-96286704D01*
X127832455Y-96286704D02*
X127784836Y-96191466D01*
X127784836Y-96191466D02*
X127737217Y-96143847D01*
X127737217Y-96143847D02*
X127641979Y-96096228D01*
X127641979Y-96096228D02*
X127451503Y-96048609D01*
X127451503Y-96048609D02*
X127356265Y-96000990D01*
X127356265Y-96000990D02*
X127308646Y-95953371D01*
X127308646Y-95953371D02*
X127261027Y-95858133D01*
X127261027Y-95858133D02*
X127261027Y-95762895D01*
X127261027Y-95762895D02*
X127308646Y-95667657D01*
X127308646Y-95667657D02*
X127356265Y-95620038D01*
X127356265Y-95620038D02*
X127451503Y-95572419D01*
X127451503Y-95572419D02*
X127689598Y-95572419D01*
X127689598Y-95572419D02*
X127832455Y-95620038D01*
X128832455Y-96477180D02*
X128784836Y-96524800D01*
X128784836Y-96524800D02*
X128641979Y-96572419D01*
X128641979Y-96572419D02*
X128546741Y-96572419D01*
X128546741Y-96572419D02*
X128403884Y-96524800D01*
X128403884Y-96524800D02*
X128308646Y-96429561D01*
X128308646Y-96429561D02*
X128261027Y-96334323D01*
X128261027Y-96334323D02*
X128213408Y-96143847D01*
X128213408Y-96143847D02*
X128213408Y-96000990D01*
X128213408Y-96000990D02*
X128261027Y-95810514D01*
X128261027Y-95810514D02*
X128308646Y-95715276D01*
X128308646Y-95715276D02*
X128403884Y-95620038D01*
X128403884Y-95620038D02*
X128546741Y-95572419D01*
X128546741Y-95572419D02*
X128641979Y-95572419D01*
X128641979Y-95572419D02*
X128784836Y-95620038D01*
X128784836Y-95620038D02*
X128832455Y-95667657D01*
X129784836Y-96572419D02*
X129213408Y-96572419D01*
X129499122Y-96572419D02*
X129499122Y-95572419D01*
X129499122Y-95572419D02*
X129403884Y-95715276D01*
X129403884Y-95715276D02*
X129308646Y-95810514D01*
X129308646Y-95810514D02*
X129213408Y-95858133D01*
X124103884Y-117591466D02*
X124865789Y-117591466D01*
X124484836Y-117972419D02*
X124484836Y-117210514D01*
X125675312Y-117448609D02*
X125818169Y-117496228D01*
X125818169Y-117496228D02*
X125865788Y-117543847D01*
X125865788Y-117543847D02*
X125913407Y-117639085D01*
X125913407Y-117639085D02*
X125913407Y-117781942D01*
X125913407Y-117781942D02*
X125865788Y-117877180D01*
X125865788Y-117877180D02*
X125818169Y-117924800D01*
X125818169Y-117924800D02*
X125722931Y-117972419D01*
X125722931Y-117972419D02*
X125341979Y-117972419D01*
X125341979Y-117972419D02*
X125341979Y-116972419D01*
X125341979Y-116972419D02*
X125675312Y-116972419D01*
X125675312Y-116972419D02*
X125770550Y-117020038D01*
X125770550Y-117020038D02*
X125818169Y-117067657D01*
X125818169Y-117067657D02*
X125865788Y-117162895D01*
X125865788Y-117162895D02*
X125865788Y-117258133D01*
X125865788Y-117258133D02*
X125818169Y-117353371D01*
X125818169Y-117353371D02*
X125770550Y-117400990D01*
X125770550Y-117400990D02*
X125675312Y-117448609D01*
X125675312Y-117448609D02*
X125341979Y-117448609D01*
X126294360Y-117686704D02*
X126770550Y-117686704D01*
X126199122Y-117972419D02*
X126532455Y-116972419D01*
X126532455Y-116972419D02*
X126865788Y-117972419D01*
X127056265Y-116972419D02*
X127627693Y-116972419D01*
X127341979Y-117972419D02*
X127341979Y-116972419D01*
X127818170Y-116972419D02*
X128389598Y-116972419D01*
X128103884Y-117972419D02*
X128103884Y-116972419D01*
X172403884Y-101691466D02*
X173165789Y-101691466D01*
X172784836Y-102072419D02*
X172784836Y-101310514D01*
X173975312Y-101548609D02*
X174118169Y-101596228D01*
X174118169Y-101596228D02*
X174165788Y-101643847D01*
X174165788Y-101643847D02*
X174213407Y-101739085D01*
X174213407Y-101739085D02*
X174213407Y-101881942D01*
X174213407Y-101881942D02*
X174165788Y-101977180D01*
X174165788Y-101977180D02*
X174118169Y-102024800D01*
X174118169Y-102024800D02*
X174022931Y-102072419D01*
X174022931Y-102072419D02*
X173641979Y-102072419D01*
X173641979Y-102072419D02*
X173641979Y-101072419D01*
X173641979Y-101072419D02*
X173975312Y-101072419D01*
X173975312Y-101072419D02*
X174070550Y-101120038D01*
X174070550Y-101120038D02*
X174118169Y-101167657D01*
X174118169Y-101167657D02*
X174165788Y-101262895D01*
X174165788Y-101262895D02*
X174165788Y-101358133D01*
X174165788Y-101358133D02*
X174118169Y-101453371D01*
X174118169Y-101453371D02*
X174070550Y-101500990D01*
X174070550Y-101500990D02*
X173975312Y-101548609D01*
X173975312Y-101548609D02*
X173641979Y-101548609D01*
X174594360Y-101786704D02*
X175070550Y-101786704D01*
X174499122Y-102072419D02*
X174832455Y-101072419D01*
X174832455Y-101072419D02*
X175165788Y-102072419D01*
X175356265Y-101072419D02*
X175927693Y-101072419D01*
X175641979Y-102072419D02*
X175641979Y-101072419D01*
X176118170Y-101072419D02*
X176689598Y-101072419D01*
X176403884Y-102072419D02*
X176403884Y-101072419D01*
X126603884Y-136048609D02*
X126937217Y-136048609D01*
X127080074Y-136572419D02*
X126603884Y-136572419D01*
X126603884Y-136572419D02*
X126603884Y-135572419D01*
X126603884Y-135572419D02*
X127080074Y-135572419D01*
X127461027Y-136524800D02*
X127603884Y-136572419D01*
X127603884Y-136572419D02*
X127841979Y-136572419D01*
X127841979Y-136572419D02*
X127937217Y-136524800D01*
X127937217Y-136524800D02*
X127984836Y-136477180D01*
X127984836Y-136477180D02*
X128032455Y-136381942D01*
X128032455Y-136381942D02*
X128032455Y-136286704D01*
X128032455Y-136286704D02*
X127984836Y-136191466D01*
X127984836Y-136191466D02*
X127937217Y-136143847D01*
X127937217Y-136143847D02*
X127841979Y-136096228D01*
X127841979Y-136096228D02*
X127651503Y-136048609D01*
X127651503Y-136048609D02*
X127556265Y-136000990D01*
X127556265Y-136000990D02*
X127508646Y-135953371D01*
X127508646Y-135953371D02*
X127461027Y-135858133D01*
X127461027Y-135858133D02*
X127461027Y-135762895D01*
X127461027Y-135762895D02*
X127508646Y-135667657D01*
X127508646Y-135667657D02*
X127556265Y-135620038D01*
X127556265Y-135620038D02*
X127651503Y-135572419D01*
X127651503Y-135572419D02*
X127889598Y-135572419D01*
X127889598Y-135572419D02*
X128032455Y-135620038D01*
X129032455Y-136477180D02*
X128984836Y-136524800D01*
X128984836Y-136524800D02*
X128841979Y-136572419D01*
X128841979Y-136572419D02*
X128746741Y-136572419D01*
X128746741Y-136572419D02*
X128603884Y-136524800D01*
X128603884Y-136524800D02*
X128508646Y-136429561D01*
X128508646Y-136429561D02*
X128461027Y-136334323D01*
X128461027Y-136334323D02*
X128413408Y-136143847D01*
X128413408Y-136143847D02*
X128413408Y-136000990D01*
X128413408Y-136000990D02*
X128461027Y-135810514D01*
X128461027Y-135810514D02*
X128508646Y-135715276D01*
X128508646Y-135715276D02*
X128603884Y-135620038D01*
X128603884Y-135620038D02*
X128746741Y-135572419D01*
X128746741Y-135572419D02*
X128841979Y-135572419D01*
X128841979Y-135572419D02*
X128984836Y-135620038D01*
X128984836Y-135620038D02*
X129032455Y-135667657D01*
X129889598Y-135905752D02*
X129889598Y-136572419D01*
X129651503Y-135524800D02*
X129413408Y-136239085D01*
X129413408Y-136239085D02*
X130032455Y-136239085D01*
X172503884Y-117491466D02*
X173265789Y-117491466D01*
X172884836Y-117872419D02*
X172884836Y-117110514D01*
X174075312Y-117348609D02*
X174218169Y-117396228D01*
X174218169Y-117396228D02*
X174265788Y-117443847D01*
X174265788Y-117443847D02*
X174313407Y-117539085D01*
X174313407Y-117539085D02*
X174313407Y-117681942D01*
X174313407Y-117681942D02*
X174265788Y-117777180D01*
X174265788Y-117777180D02*
X174218169Y-117824800D01*
X174218169Y-117824800D02*
X174122931Y-117872419D01*
X174122931Y-117872419D02*
X173741979Y-117872419D01*
X173741979Y-117872419D02*
X173741979Y-116872419D01*
X173741979Y-116872419D02*
X174075312Y-116872419D01*
X174075312Y-116872419D02*
X174170550Y-116920038D01*
X174170550Y-116920038D02*
X174218169Y-116967657D01*
X174218169Y-116967657D02*
X174265788Y-117062895D01*
X174265788Y-117062895D02*
X174265788Y-117158133D01*
X174265788Y-117158133D02*
X174218169Y-117253371D01*
X174218169Y-117253371D02*
X174170550Y-117300990D01*
X174170550Y-117300990D02*
X174075312Y-117348609D01*
X174075312Y-117348609D02*
X173741979Y-117348609D01*
X174694360Y-117586704D02*
X175170550Y-117586704D01*
X174599122Y-117872419D02*
X174932455Y-116872419D01*
X174932455Y-116872419D02*
X175265788Y-117872419D01*
X175456265Y-116872419D02*
X176027693Y-116872419D01*
X175741979Y-117872419D02*
X175741979Y-116872419D01*
X176218170Y-116872419D02*
X176789598Y-116872419D01*
X176503884Y-117872419D02*
X176503884Y-116872419D01*
X171303884Y-125848609D02*
X171637217Y-125848609D01*
X171780074Y-126372419D02*
X171303884Y-126372419D01*
X171303884Y-126372419D02*
X171303884Y-125372419D01*
X171303884Y-125372419D02*
X171780074Y-125372419D01*
X172161027Y-126324800D02*
X172303884Y-126372419D01*
X172303884Y-126372419D02*
X172541979Y-126372419D01*
X172541979Y-126372419D02*
X172637217Y-126324800D01*
X172637217Y-126324800D02*
X172684836Y-126277180D01*
X172684836Y-126277180D02*
X172732455Y-126181942D01*
X172732455Y-126181942D02*
X172732455Y-126086704D01*
X172732455Y-126086704D02*
X172684836Y-125991466D01*
X172684836Y-125991466D02*
X172637217Y-125943847D01*
X172637217Y-125943847D02*
X172541979Y-125896228D01*
X172541979Y-125896228D02*
X172351503Y-125848609D01*
X172351503Y-125848609D02*
X172256265Y-125800990D01*
X172256265Y-125800990D02*
X172208646Y-125753371D01*
X172208646Y-125753371D02*
X172161027Y-125658133D01*
X172161027Y-125658133D02*
X172161027Y-125562895D01*
X172161027Y-125562895D02*
X172208646Y-125467657D01*
X172208646Y-125467657D02*
X172256265Y-125420038D01*
X172256265Y-125420038D02*
X172351503Y-125372419D01*
X172351503Y-125372419D02*
X172589598Y-125372419D01*
X172589598Y-125372419D02*
X172732455Y-125420038D01*
X173732455Y-126277180D02*
X173684836Y-126324800D01*
X173684836Y-126324800D02*
X173541979Y-126372419D01*
X173541979Y-126372419D02*
X173446741Y-126372419D01*
X173446741Y-126372419D02*
X173303884Y-126324800D01*
X173303884Y-126324800D02*
X173208646Y-126229561D01*
X173208646Y-126229561D02*
X173161027Y-126134323D01*
X173161027Y-126134323D02*
X173113408Y-125943847D01*
X173113408Y-125943847D02*
X173113408Y-125800990D01*
X173113408Y-125800990D02*
X173161027Y-125610514D01*
X173161027Y-125610514D02*
X173208646Y-125515276D01*
X173208646Y-125515276D02*
X173303884Y-125420038D01*
X173303884Y-125420038D02*
X173446741Y-125372419D01*
X173446741Y-125372419D02*
X173541979Y-125372419D01*
X173541979Y-125372419D02*
X173684836Y-125420038D01*
X173684836Y-125420038D02*
X173732455Y-125467657D01*
X174065789Y-125372419D02*
X174684836Y-125372419D01*
X174684836Y-125372419D02*
X174351503Y-125753371D01*
X174351503Y-125753371D02*
X174494360Y-125753371D01*
X174494360Y-125753371D02*
X174589598Y-125800990D01*
X174589598Y-125800990D02*
X174637217Y-125848609D01*
X174637217Y-125848609D02*
X174684836Y-125943847D01*
X174684836Y-125943847D02*
X174684836Y-126181942D01*
X174684836Y-126181942D02*
X174637217Y-126277180D01*
X174637217Y-126277180D02*
X174589598Y-126324800D01*
X174589598Y-126324800D02*
X174494360Y-126372419D01*
X174494360Y-126372419D02*
X174208646Y-126372419D01*
X174208646Y-126372419D02*
X174113408Y-126324800D01*
X174113408Y-126324800D02*
X174065789Y-126277180D01*
X124103884Y-101791466D02*
X124865789Y-101791466D01*
X124484836Y-102172419D02*
X124484836Y-101410514D01*
X125675312Y-101648609D02*
X125818169Y-101696228D01*
X125818169Y-101696228D02*
X125865788Y-101743847D01*
X125865788Y-101743847D02*
X125913407Y-101839085D01*
X125913407Y-101839085D02*
X125913407Y-101981942D01*
X125913407Y-101981942D02*
X125865788Y-102077180D01*
X125865788Y-102077180D02*
X125818169Y-102124800D01*
X125818169Y-102124800D02*
X125722931Y-102172419D01*
X125722931Y-102172419D02*
X125341979Y-102172419D01*
X125341979Y-102172419D02*
X125341979Y-101172419D01*
X125341979Y-101172419D02*
X125675312Y-101172419D01*
X125675312Y-101172419D02*
X125770550Y-101220038D01*
X125770550Y-101220038D02*
X125818169Y-101267657D01*
X125818169Y-101267657D02*
X125865788Y-101362895D01*
X125865788Y-101362895D02*
X125865788Y-101458133D01*
X125865788Y-101458133D02*
X125818169Y-101553371D01*
X125818169Y-101553371D02*
X125770550Y-101600990D01*
X125770550Y-101600990D02*
X125675312Y-101648609D01*
X125675312Y-101648609D02*
X125341979Y-101648609D01*
X126294360Y-101886704D02*
X126770550Y-101886704D01*
X126199122Y-102172419D02*
X126532455Y-101172419D01*
X126532455Y-101172419D02*
X126865788Y-102172419D01*
X127056265Y-101172419D02*
X127627693Y-101172419D01*
X127341979Y-102172419D02*
X127341979Y-101172419D01*
X127818170Y-101172419D02*
X128389598Y-101172419D01*
X128103884Y-102172419D02*
X128103884Y-101172419D01*
X171603884Y-84948609D02*
X171937217Y-84948609D01*
X172080074Y-85472419D02*
X171603884Y-85472419D01*
X171603884Y-85472419D02*
X171603884Y-84472419D01*
X171603884Y-84472419D02*
X172080074Y-84472419D01*
X172461027Y-85424800D02*
X172603884Y-85472419D01*
X172603884Y-85472419D02*
X172841979Y-85472419D01*
X172841979Y-85472419D02*
X172937217Y-85424800D01*
X172937217Y-85424800D02*
X172984836Y-85377180D01*
X172984836Y-85377180D02*
X173032455Y-85281942D01*
X173032455Y-85281942D02*
X173032455Y-85186704D01*
X173032455Y-85186704D02*
X172984836Y-85091466D01*
X172984836Y-85091466D02*
X172937217Y-85043847D01*
X172937217Y-85043847D02*
X172841979Y-84996228D01*
X172841979Y-84996228D02*
X172651503Y-84948609D01*
X172651503Y-84948609D02*
X172556265Y-84900990D01*
X172556265Y-84900990D02*
X172508646Y-84853371D01*
X172508646Y-84853371D02*
X172461027Y-84758133D01*
X172461027Y-84758133D02*
X172461027Y-84662895D01*
X172461027Y-84662895D02*
X172508646Y-84567657D01*
X172508646Y-84567657D02*
X172556265Y-84520038D01*
X172556265Y-84520038D02*
X172651503Y-84472419D01*
X172651503Y-84472419D02*
X172889598Y-84472419D01*
X172889598Y-84472419D02*
X173032455Y-84520038D01*
X174032455Y-85377180D02*
X173984836Y-85424800D01*
X173984836Y-85424800D02*
X173841979Y-85472419D01*
X173841979Y-85472419D02*
X173746741Y-85472419D01*
X173746741Y-85472419D02*
X173603884Y-85424800D01*
X173603884Y-85424800D02*
X173508646Y-85329561D01*
X173508646Y-85329561D02*
X173461027Y-85234323D01*
X173461027Y-85234323D02*
X173413408Y-85043847D01*
X173413408Y-85043847D02*
X173413408Y-84900990D01*
X173413408Y-84900990D02*
X173461027Y-84710514D01*
X173461027Y-84710514D02*
X173508646Y-84615276D01*
X173508646Y-84615276D02*
X173603884Y-84520038D01*
X173603884Y-84520038D02*
X173746741Y-84472419D01*
X173746741Y-84472419D02*
X173841979Y-84472419D01*
X173841979Y-84472419D02*
X173984836Y-84520038D01*
X173984836Y-84520038D02*
X174032455Y-84567657D01*
X174413408Y-84567657D02*
X174461027Y-84520038D01*
X174461027Y-84520038D02*
X174556265Y-84472419D01*
X174556265Y-84472419D02*
X174794360Y-84472419D01*
X174794360Y-84472419D02*
X174889598Y-84520038D01*
X174889598Y-84520038D02*
X174937217Y-84567657D01*
X174937217Y-84567657D02*
X174984836Y-84662895D01*
X174984836Y-84662895D02*
X174984836Y-84758133D01*
X174984836Y-84758133D02*
X174937217Y-84900990D01*
X174937217Y-84900990D02*
X174365789Y-85472419D01*
X174365789Y-85472419D02*
X174984836Y-85472419D01*
D11*
X145480952Y-133859580D02*
X145433333Y-133907200D01*
X145433333Y-133907200D02*
X145290476Y-133954819D01*
X145290476Y-133954819D02*
X145195238Y-133954819D01*
X145195238Y-133954819D02*
X145052381Y-133907200D01*
X145052381Y-133907200D02*
X144957143Y-133811961D01*
X144957143Y-133811961D02*
X144909524Y-133716723D01*
X144909524Y-133716723D02*
X144861905Y-133526247D01*
X144861905Y-133526247D02*
X144861905Y-133383390D01*
X144861905Y-133383390D02*
X144909524Y-133192914D01*
X144909524Y-133192914D02*
X144957143Y-133097676D01*
X144957143Y-133097676D02*
X145052381Y-133002438D01*
X145052381Y-133002438D02*
X145195238Y-132954819D01*
X145195238Y-132954819D02*
X145290476Y-132954819D01*
X145290476Y-132954819D02*
X145433333Y-133002438D01*
X145433333Y-133002438D02*
X145480952Y-133050057D01*
X145814286Y-132954819D02*
X146480952Y-132954819D01*
X146480952Y-132954819D02*
X146052381Y-133954819D01*
X147052381Y-132954819D02*
X147147619Y-132954819D01*
X147147619Y-132954819D02*
X147242857Y-133002438D01*
X147242857Y-133002438D02*
X147290476Y-133050057D01*
X147290476Y-133050057D02*
X147338095Y-133145295D01*
X147338095Y-133145295D02*
X147385714Y-133335771D01*
X147385714Y-133335771D02*
X147385714Y-133573866D01*
X147385714Y-133573866D02*
X147338095Y-133764342D01*
X147338095Y-133764342D02*
X147290476Y-133859580D01*
X147290476Y-133859580D02*
X147242857Y-133907200D01*
X147242857Y-133907200D02*
X147147619Y-133954819D01*
X147147619Y-133954819D02*
X147052381Y-133954819D01*
X147052381Y-133954819D02*
X146957143Y-133907200D01*
X146957143Y-133907200D02*
X146909524Y-133859580D01*
X146909524Y-133859580D02*
X146861905Y-133764342D01*
X146861905Y-133764342D02*
X146814286Y-133573866D01*
X146814286Y-133573866D02*
X146814286Y-133335771D01*
X146814286Y-133335771D02*
X146861905Y-133145295D01*
X146861905Y-133145295D02*
X146909524Y-133050057D01*
X146909524Y-133050057D02*
X146957143Y-133002438D01*
X146957143Y-133002438D02*
X147052381Y-132954819D01*
X147719048Y-132954819D02*
X148338095Y-132954819D01*
X148338095Y-132954819D02*
X148004762Y-133335771D01*
X148004762Y-133335771D02*
X148147619Y-133335771D01*
X148147619Y-133335771D02*
X148242857Y-133383390D01*
X148242857Y-133383390D02*
X148290476Y-133431009D01*
X148290476Y-133431009D02*
X148338095Y-133526247D01*
X148338095Y-133526247D02*
X148338095Y-133764342D01*
X148338095Y-133764342D02*
X148290476Y-133859580D01*
X148290476Y-133859580D02*
X148242857Y-133907200D01*
X148242857Y-133907200D02*
X148147619Y-133954819D01*
X148147619Y-133954819D02*
X147861905Y-133954819D01*
X147861905Y-133954819D02*
X147766667Y-133907200D01*
X147766667Y-133907200D02*
X147719048Y-133859580D01*
X146880952Y-120124819D02*
X146547619Y-119648628D01*
X146309524Y-120124819D02*
X146309524Y-119124819D01*
X146309524Y-119124819D02*
X146690476Y-119124819D01*
X146690476Y-119124819D02*
X146785714Y-119172438D01*
X146785714Y-119172438D02*
X146833333Y-119220057D01*
X146833333Y-119220057D02*
X146880952Y-119315295D01*
X146880952Y-119315295D02*
X146880952Y-119458152D01*
X146880952Y-119458152D02*
X146833333Y-119553390D01*
X146833333Y-119553390D02*
X146785714Y-119601009D01*
X146785714Y-119601009D02*
X146690476Y-119648628D01*
X146690476Y-119648628D02*
X146309524Y-119648628D01*
X147214286Y-119124819D02*
X147880952Y-119124819D01*
X147880952Y-119124819D02*
X147452381Y-120124819D01*
X148785714Y-120124819D02*
X148214286Y-120124819D01*
X148500000Y-120124819D02*
X148500000Y-119124819D01*
X148500000Y-119124819D02*
X148404762Y-119267676D01*
X148404762Y-119267676D02*
X148309524Y-119362914D01*
X148309524Y-119362914D02*
X148214286Y-119410533D01*
X149642857Y-119458152D02*
X149642857Y-120124819D01*
X149404762Y-119077200D02*
X149166667Y-119791485D01*
X149166667Y-119791485D02*
X149785714Y-119791485D01*
X151110952Y-131074819D02*
X150634762Y-131074819D01*
X150634762Y-131074819D02*
X150634762Y-130074819D01*
X151349048Y-130074819D02*
X152015714Y-130074819D01*
X152015714Y-130074819D02*
X151587143Y-131074819D01*
X152587143Y-130074819D02*
X152682381Y-130074819D01*
X152682381Y-130074819D02*
X152777619Y-130122438D01*
X152777619Y-130122438D02*
X152825238Y-130170057D01*
X152825238Y-130170057D02*
X152872857Y-130265295D01*
X152872857Y-130265295D02*
X152920476Y-130455771D01*
X152920476Y-130455771D02*
X152920476Y-130693866D01*
X152920476Y-130693866D02*
X152872857Y-130884342D01*
X152872857Y-130884342D02*
X152825238Y-130979580D01*
X152825238Y-130979580D02*
X152777619Y-131027200D01*
X152777619Y-131027200D02*
X152682381Y-131074819D01*
X152682381Y-131074819D02*
X152587143Y-131074819D01*
X152587143Y-131074819D02*
X152491905Y-131027200D01*
X152491905Y-131027200D02*
X152444286Y-130979580D01*
X152444286Y-130979580D02*
X152396667Y-130884342D01*
X152396667Y-130884342D02*
X152349048Y-130693866D01*
X152349048Y-130693866D02*
X152349048Y-130455771D01*
X152349048Y-130455771D02*
X152396667Y-130265295D01*
X152396667Y-130265295D02*
X152444286Y-130170057D01*
X152444286Y-130170057D02*
X152491905Y-130122438D01*
X152491905Y-130122438D02*
X152587143Y-130074819D01*
X153872857Y-131074819D02*
X153301429Y-131074819D01*
X153587143Y-131074819D02*
X153587143Y-130074819D01*
X153587143Y-130074819D02*
X153491905Y-130217676D01*
X153491905Y-130217676D02*
X153396667Y-130312914D01*
X153396667Y-130312914D02*
X153301429Y-130360533D01*
X134980952Y-136454819D02*
X134647619Y-135978628D01*
X134409524Y-136454819D02*
X134409524Y-135454819D01*
X134409524Y-135454819D02*
X134790476Y-135454819D01*
X134790476Y-135454819D02*
X134885714Y-135502438D01*
X134885714Y-135502438D02*
X134933333Y-135550057D01*
X134933333Y-135550057D02*
X134980952Y-135645295D01*
X134980952Y-135645295D02*
X134980952Y-135788152D01*
X134980952Y-135788152D02*
X134933333Y-135883390D01*
X134933333Y-135883390D02*
X134885714Y-135931009D01*
X134885714Y-135931009D02*
X134790476Y-135978628D01*
X134790476Y-135978628D02*
X134409524Y-135978628D01*
X135314286Y-135454819D02*
X135980952Y-135454819D01*
X135980952Y-135454819D02*
X135552381Y-136454819D01*
X136552381Y-135454819D02*
X136647619Y-135454819D01*
X136647619Y-135454819D02*
X136742857Y-135502438D01*
X136742857Y-135502438D02*
X136790476Y-135550057D01*
X136790476Y-135550057D02*
X136838095Y-135645295D01*
X136838095Y-135645295D02*
X136885714Y-135835771D01*
X136885714Y-135835771D02*
X136885714Y-136073866D01*
X136885714Y-136073866D02*
X136838095Y-136264342D01*
X136838095Y-136264342D02*
X136790476Y-136359580D01*
X136790476Y-136359580D02*
X136742857Y-136407200D01*
X136742857Y-136407200D02*
X136647619Y-136454819D01*
X136647619Y-136454819D02*
X136552381Y-136454819D01*
X136552381Y-136454819D02*
X136457143Y-136407200D01*
X136457143Y-136407200D02*
X136409524Y-136359580D01*
X136409524Y-136359580D02*
X136361905Y-136264342D01*
X136361905Y-136264342D02*
X136314286Y-136073866D01*
X136314286Y-136073866D02*
X136314286Y-135835771D01*
X136314286Y-135835771D02*
X136361905Y-135645295D01*
X136361905Y-135645295D02*
X136409524Y-135550057D01*
X136409524Y-135550057D02*
X136457143Y-135502438D01*
X136457143Y-135502438D02*
X136552381Y-135454819D01*
X137790476Y-135454819D02*
X137314286Y-135454819D01*
X137314286Y-135454819D02*
X137266667Y-135931009D01*
X137266667Y-135931009D02*
X137314286Y-135883390D01*
X137314286Y-135883390D02*
X137409524Y-135835771D01*
X137409524Y-135835771D02*
X137647619Y-135835771D01*
X137647619Y-135835771D02*
X137742857Y-135883390D01*
X137742857Y-135883390D02*
X137790476Y-135931009D01*
X137790476Y-135931009D02*
X137838095Y-136026247D01*
X137838095Y-136026247D02*
X137838095Y-136264342D01*
X137838095Y-136264342D02*
X137790476Y-136359580D01*
X137790476Y-136359580D02*
X137742857Y-136407200D01*
X137742857Y-136407200D02*
X137647619Y-136454819D01*
X137647619Y-136454819D02*
X137409524Y-136454819D01*
X137409524Y-136454819D02*
X137314286Y-136407200D01*
X137314286Y-136407200D02*
X137266667Y-136359580D01*
D10*
X130503884Y-105372419D02*
X130503884Y-104372419D01*
X130503884Y-104372419D02*
X130741979Y-104372419D01*
X130741979Y-104372419D02*
X130884836Y-104420038D01*
X130884836Y-104420038D02*
X130980074Y-104515276D01*
X130980074Y-104515276D02*
X131027693Y-104610514D01*
X131027693Y-104610514D02*
X131075312Y-104800990D01*
X131075312Y-104800990D02*
X131075312Y-104943847D01*
X131075312Y-104943847D02*
X131027693Y-105134323D01*
X131027693Y-105134323D02*
X130980074Y-105229561D01*
X130980074Y-105229561D02*
X130884836Y-105324800D01*
X130884836Y-105324800D02*
X130741979Y-105372419D01*
X130741979Y-105372419D02*
X130503884Y-105372419D01*
X131456265Y-105086704D02*
X131932455Y-105086704D01*
X131361027Y-105372419D02*
X131694360Y-104372419D01*
X131694360Y-104372419D02*
X132027693Y-105372419D01*
X132218170Y-104372419D02*
X132789598Y-104372419D01*
X132503884Y-105372419D02*
X132503884Y-104372419D01*
X133075313Y-105086704D02*
X133551503Y-105086704D01*
X132980075Y-105372419D02*
X133313408Y-104372419D01*
X133313408Y-104372419D02*
X133646741Y-105372419D01*
X133932456Y-104467657D02*
X133980075Y-104420038D01*
X133980075Y-104420038D02*
X134075313Y-104372419D01*
X134075313Y-104372419D02*
X134313408Y-104372419D01*
X134313408Y-104372419D02*
X134408646Y-104420038D01*
X134408646Y-104420038D02*
X134456265Y-104467657D01*
X134456265Y-104467657D02*
X134503884Y-104562895D01*
X134503884Y-104562895D02*
X134503884Y-104658133D01*
X134503884Y-104658133D02*
X134456265Y-104800990D01*
X134456265Y-104800990D02*
X133884837Y-105372419D01*
X133884837Y-105372419D02*
X134503884Y-105372419D01*
X132080074Y-100372419D02*
X131603884Y-100372419D01*
X131603884Y-100372419D02*
X131556265Y-100848609D01*
X131556265Y-100848609D02*
X131603884Y-100800990D01*
X131603884Y-100800990D02*
X131699122Y-100753371D01*
X131699122Y-100753371D02*
X131937217Y-100753371D01*
X131937217Y-100753371D02*
X132032455Y-100800990D01*
X132032455Y-100800990D02*
X132080074Y-100848609D01*
X132080074Y-100848609D02*
X132127693Y-100943847D01*
X132127693Y-100943847D02*
X132127693Y-101181942D01*
X132127693Y-101181942D02*
X132080074Y-101277180D01*
X132080074Y-101277180D02*
X132032455Y-101324800D01*
X132032455Y-101324800D02*
X131937217Y-101372419D01*
X131937217Y-101372419D02*
X131699122Y-101372419D01*
X131699122Y-101372419D02*
X131603884Y-101324800D01*
X131603884Y-101324800D02*
X131556265Y-101277180D01*
X132413408Y-100372419D02*
X132746741Y-101372419D01*
X132746741Y-101372419D02*
X133080074Y-100372419D01*
X131627693Y-108420038D02*
X131532455Y-108372419D01*
X131532455Y-108372419D02*
X131389598Y-108372419D01*
X131389598Y-108372419D02*
X131246741Y-108420038D01*
X131246741Y-108420038D02*
X131151503Y-108515276D01*
X131151503Y-108515276D02*
X131103884Y-108610514D01*
X131103884Y-108610514D02*
X131056265Y-108800990D01*
X131056265Y-108800990D02*
X131056265Y-108943847D01*
X131056265Y-108943847D02*
X131103884Y-109134323D01*
X131103884Y-109134323D02*
X131151503Y-109229561D01*
X131151503Y-109229561D02*
X131246741Y-109324800D01*
X131246741Y-109324800D02*
X131389598Y-109372419D01*
X131389598Y-109372419D02*
X131484836Y-109372419D01*
X131484836Y-109372419D02*
X131627693Y-109324800D01*
X131627693Y-109324800D02*
X131675312Y-109277180D01*
X131675312Y-109277180D02*
X131675312Y-108943847D01*
X131675312Y-108943847D02*
X131484836Y-108943847D01*
X132103884Y-109372419D02*
X132103884Y-108372419D01*
X132103884Y-108372419D02*
X132675312Y-109372419D01*
X132675312Y-109372419D02*
X132675312Y-108372419D01*
X133151503Y-109372419D02*
X133151503Y-108372419D01*
X133151503Y-108372419D02*
X133389598Y-108372419D01*
X133389598Y-108372419D02*
X133532455Y-108420038D01*
X133532455Y-108420038D02*
X133627693Y-108515276D01*
X133627693Y-108515276D02*
X133675312Y-108610514D01*
X133675312Y-108610514D02*
X133722931Y-108800990D01*
X133722931Y-108800990D02*
X133722931Y-108943847D01*
X133722931Y-108943847D02*
X133675312Y-109134323D01*
X133675312Y-109134323D02*
X133627693Y-109229561D01*
X133627693Y-109229561D02*
X133532455Y-109324800D01*
X133532455Y-109324800D02*
X133389598Y-109372419D01*
X133389598Y-109372419D02*
X133151503Y-109372419D01*
D11*
X143580952Y-129034819D02*
X143247619Y-128558628D01*
X143009524Y-129034819D02*
X143009524Y-128034819D01*
X143009524Y-128034819D02*
X143390476Y-128034819D01*
X143390476Y-128034819D02*
X143485714Y-128082438D01*
X143485714Y-128082438D02*
X143533333Y-128130057D01*
X143533333Y-128130057D02*
X143580952Y-128225295D01*
X143580952Y-128225295D02*
X143580952Y-128368152D01*
X143580952Y-128368152D02*
X143533333Y-128463390D01*
X143533333Y-128463390D02*
X143485714Y-128511009D01*
X143485714Y-128511009D02*
X143390476Y-128558628D01*
X143390476Y-128558628D02*
X143009524Y-128558628D01*
X143914286Y-128034819D02*
X144580952Y-128034819D01*
X144580952Y-128034819D02*
X144152381Y-129034819D01*
X145152381Y-128034819D02*
X145247619Y-128034819D01*
X145247619Y-128034819D02*
X145342857Y-128082438D01*
X145342857Y-128082438D02*
X145390476Y-128130057D01*
X145390476Y-128130057D02*
X145438095Y-128225295D01*
X145438095Y-128225295D02*
X145485714Y-128415771D01*
X145485714Y-128415771D02*
X145485714Y-128653866D01*
X145485714Y-128653866D02*
X145438095Y-128844342D01*
X145438095Y-128844342D02*
X145390476Y-128939580D01*
X145390476Y-128939580D02*
X145342857Y-128987200D01*
X145342857Y-128987200D02*
X145247619Y-129034819D01*
X145247619Y-129034819D02*
X145152381Y-129034819D01*
X145152381Y-129034819D02*
X145057143Y-128987200D01*
X145057143Y-128987200D02*
X145009524Y-128939580D01*
X145009524Y-128939580D02*
X144961905Y-128844342D01*
X144961905Y-128844342D02*
X144914286Y-128653866D01*
X144914286Y-128653866D02*
X144914286Y-128415771D01*
X144914286Y-128415771D02*
X144961905Y-128225295D01*
X144961905Y-128225295D02*
X145009524Y-128130057D01*
X145009524Y-128130057D02*
X145057143Y-128082438D01*
X145057143Y-128082438D02*
X145152381Y-128034819D01*
X146438095Y-129034819D02*
X145866667Y-129034819D01*
X146152381Y-129034819D02*
X146152381Y-128034819D01*
X146152381Y-128034819D02*
X146057143Y-128177676D01*
X146057143Y-128177676D02*
X145961905Y-128272914D01*
X145961905Y-128272914D02*
X145866667Y-128320533D01*
D10*
X126796115Y-124858533D02*
X126034211Y-124858533D01*
X126896115Y-109308533D02*
X126134211Y-109308533D01*
X153103884Y-105322419D02*
X153103884Y-104322419D01*
X153103884Y-104322419D02*
X153341979Y-104322419D01*
X153341979Y-104322419D02*
X153484836Y-104370038D01*
X153484836Y-104370038D02*
X153580074Y-104465276D01*
X153580074Y-104465276D02*
X153627693Y-104560514D01*
X153627693Y-104560514D02*
X153675312Y-104750990D01*
X153675312Y-104750990D02*
X153675312Y-104893847D01*
X153675312Y-104893847D02*
X153627693Y-105084323D01*
X153627693Y-105084323D02*
X153580074Y-105179561D01*
X153580074Y-105179561D02*
X153484836Y-105274800D01*
X153484836Y-105274800D02*
X153341979Y-105322419D01*
X153341979Y-105322419D02*
X153103884Y-105322419D01*
X154056265Y-105036704D02*
X154532455Y-105036704D01*
X153961027Y-105322419D02*
X154294360Y-104322419D01*
X154294360Y-104322419D02*
X154627693Y-105322419D01*
X154818170Y-104322419D02*
X155389598Y-104322419D01*
X155103884Y-105322419D02*
X155103884Y-104322419D01*
X155675313Y-105036704D02*
X156151503Y-105036704D01*
X155580075Y-105322419D02*
X155913408Y-104322419D01*
X155913408Y-104322419D02*
X156246741Y-105322419D01*
X157103884Y-105322419D02*
X156532456Y-105322419D01*
X156818170Y-105322419D02*
X156818170Y-104322419D01*
X156818170Y-104322419D02*
X156722932Y-104465276D01*
X156722932Y-104465276D02*
X156627694Y-104560514D01*
X156627694Y-104560514D02*
X156532456Y-104608133D01*
X154327693Y-108270038D02*
X154232455Y-108222419D01*
X154232455Y-108222419D02*
X154089598Y-108222419D01*
X154089598Y-108222419D02*
X153946741Y-108270038D01*
X153946741Y-108270038D02*
X153851503Y-108365276D01*
X153851503Y-108365276D02*
X153803884Y-108460514D01*
X153803884Y-108460514D02*
X153756265Y-108650990D01*
X153756265Y-108650990D02*
X153756265Y-108793847D01*
X153756265Y-108793847D02*
X153803884Y-108984323D01*
X153803884Y-108984323D02*
X153851503Y-109079561D01*
X153851503Y-109079561D02*
X153946741Y-109174800D01*
X153946741Y-109174800D02*
X154089598Y-109222419D01*
X154089598Y-109222419D02*
X154184836Y-109222419D01*
X154184836Y-109222419D02*
X154327693Y-109174800D01*
X154327693Y-109174800D02*
X154375312Y-109127180D01*
X154375312Y-109127180D02*
X154375312Y-108793847D01*
X154375312Y-108793847D02*
X154184836Y-108793847D01*
X154803884Y-109222419D02*
X154803884Y-108222419D01*
X154803884Y-108222419D02*
X155375312Y-109222419D01*
X155375312Y-109222419D02*
X155375312Y-108222419D01*
X155851503Y-109222419D02*
X155851503Y-108222419D01*
X155851503Y-108222419D02*
X156089598Y-108222419D01*
X156089598Y-108222419D02*
X156232455Y-108270038D01*
X156232455Y-108270038D02*
X156327693Y-108365276D01*
X156327693Y-108365276D02*
X156375312Y-108460514D01*
X156375312Y-108460514D02*
X156422931Y-108650990D01*
X156422931Y-108650990D02*
X156422931Y-108793847D01*
X156422931Y-108793847D02*
X156375312Y-108984323D01*
X156375312Y-108984323D02*
X156327693Y-109079561D01*
X156327693Y-109079561D02*
X156232455Y-109174800D01*
X156232455Y-109174800D02*
X156089598Y-109222419D01*
X156089598Y-109222419D02*
X155851503Y-109222419D01*
X154880074Y-100222419D02*
X154403884Y-100222419D01*
X154403884Y-100222419D02*
X154356265Y-100698609D01*
X154356265Y-100698609D02*
X154403884Y-100650990D01*
X154403884Y-100650990D02*
X154499122Y-100603371D01*
X154499122Y-100603371D02*
X154737217Y-100603371D01*
X154737217Y-100603371D02*
X154832455Y-100650990D01*
X154832455Y-100650990D02*
X154880074Y-100698609D01*
X154880074Y-100698609D02*
X154927693Y-100793847D01*
X154927693Y-100793847D02*
X154927693Y-101031942D01*
X154927693Y-101031942D02*
X154880074Y-101127180D01*
X154880074Y-101127180D02*
X154832455Y-101174800D01*
X154832455Y-101174800D02*
X154737217Y-101222419D01*
X154737217Y-101222419D02*
X154499122Y-101222419D01*
X154499122Y-101222419D02*
X154403884Y-101174800D01*
X154403884Y-101174800D02*
X154356265Y-101127180D01*
X155213408Y-100222419D02*
X155546741Y-101222419D01*
X155546741Y-101222419D02*
X155880074Y-100222419D01*
D11*
X171714285Y-72204819D02*
X171714285Y-72919104D01*
X171714285Y-72919104D02*
X171666666Y-73061961D01*
X171666666Y-73061961D02*
X171571428Y-73157200D01*
X171571428Y-73157200D02*
X171428571Y-73204819D01*
X171428571Y-73204819D02*
X171333333Y-73204819D01*
X172095238Y-72204819D02*
X172761904Y-72204819D01*
X172761904Y-72204819D02*
X172333333Y-73204819D01*
X173333333Y-72204819D02*
X173428571Y-72204819D01*
X173428571Y-72204819D02*
X173523809Y-72252438D01*
X173523809Y-72252438D02*
X173571428Y-72300057D01*
X173571428Y-72300057D02*
X173619047Y-72395295D01*
X173619047Y-72395295D02*
X173666666Y-72585771D01*
X173666666Y-72585771D02*
X173666666Y-72823866D01*
X173666666Y-72823866D02*
X173619047Y-73014342D01*
X173619047Y-73014342D02*
X173571428Y-73109580D01*
X173571428Y-73109580D02*
X173523809Y-73157200D01*
X173523809Y-73157200D02*
X173428571Y-73204819D01*
X173428571Y-73204819D02*
X173333333Y-73204819D01*
X173333333Y-73204819D02*
X173238095Y-73157200D01*
X173238095Y-73157200D02*
X173190476Y-73109580D01*
X173190476Y-73109580D02*
X173142857Y-73014342D01*
X173142857Y-73014342D02*
X173095238Y-72823866D01*
X173095238Y-72823866D02*
X173095238Y-72585771D01*
X173095238Y-72585771D02*
X173142857Y-72395295D01*
X173142857Y-72395295D02*
X173190476Y-72300057D01*
X173190476Y-72300057D02*
X173238095Y-72252438D01*
X173238095Y-72252438D02*
X173333333Y-72204819D01*
X174523809Y-72204819D02*
X174333333Y-72204819D01*
X174333333Y-72204819D02*
X174238095Y-72252438D01*
X174238095Y-72252438D02*
X174190476Y-72300057D01*
X174190476Y-72300057D02*
X174095238Y-72442914D01*
X174095238Y-72442914D02*
X174047619Y-72633390D01*
X174047619Y-72633390D02*
X174047619Y-73014342D01*
X174047619Y-73014342D02*
X174095238Y-73109580D01*
X174095238Y-73109580D02*
X174142857Y-73157200D01*
X174142857Y-73157200D02*
X174238095Y-73204819D01*
X174238095Y-73204819D02*
X174428571Y-73204819D01*
X174428571Y-73204819D02*
X174523809Y-73157200D01*
X174523809Y-73157200D02*
X174571428Y-73109580D01*
X174571428Y-73109580D02*
X174619047Y-73014342D01*
X174619047Y-73014342D02*
X174619047Y-72776247D01*
X174619047Y-72776247D02*
X174571428Y-72681009D01*
X174571428Y-72681009D02*
X174523809Y-72633390D01*
X174523809Y-72633390D02*
X174428571Y-72585771D01*
X174428571Y-72585771D02*
X174238095Y-72585771D01*
X174238095Y-72585771D02*
X174142857Y-72633390D01*
X174142857Y-72633390D02*
X174095238Y-72681009D01*
X174095238Y-72681009D02*
X174047619Y-72776247D01*
X145354819Y-161119047D02*
X144878628Y-161452380D01*
X145354819Y-161690475D02*
X144354819Y-161690475D01*
X144354819Y-161690475D02*
X144354819Y-161309523D01*
X144354819Y-161309523D02*
X144402438Y-161214285D01*
X144402438Y-161214285D02*
X144450057Y-161166666D01*
X144450057Y-161166666D02*
X144545295Y-161119047D01*
X144545295Y-161119047D02*
X144688152Y-161119047D01*
X144688152Y-161119047D02*
X144783390Y-161166666D01*
X144783390Y-161166666D02*
X144831009Y-161214285D01*
X144831009Y-161214285D02*
X144878628Y-161309523D01*
X144878628Y-161309523D02*
X144878628Y-161690475D01*
X144354819Y-160785713D02*
X144354819Y-160119047D01*
X144354819Y-160119047D02*
X145354819Y-160547618D01*
X144354819Y-159547618D02*
X144354819Y-159452380D01*
X144354819Y-159452380D02*
X144402438Y-159357142D01*
X144402438Y-159357142D02*
X144450057Y-159309523D01*
X144450057Y-159309523D02*
X144545295Y-159261904D01*
X144545295Y-159261904D02*
X144735771Y-159214285D01*
X144735771Y-159214285D02*
X144973866Y-159214285D01*
X144973866Y-159214285D02*
X145164342Y-159261904D01*
X145164342Y-159261904D02*
X145259580Y-159309523D01*
X145259580Y-159309523D02*
X145307200Y-159357142D01*
X145307200Y-159357142D02*
X145354819Y-159452380D01*
X145354819Y-159452380D02*
X145354819Y-159547618D01*
X145354819Y-159547618D02*
X145307200Y-159642856D01*
X145307200Y-159642856D02*
X145259580Y-159690475D01*
X145259580Y-159690475D02*
X145164342Y-159738094D01*
X145164342Y-159738094D02*
X144973866Y-159785713D01*
X144973866Y-159785713D02*
X144735771Y-159785713D01*
X144735771Y-159785713D02*
X144545295Y-159738094D01*
X144545295Y-159738094D02*
X144450057Y-159690475D01*
X144450057Y-159690475D02*
X144402438Y-159642856D01*
X144402438Y-159642856D02*
X144354819Y-159547618D01*
X145354819Y-158738094D02*
X145354819Y-158547618D01*
X145354819Y-158547618D02*
X145307200Y-158452380D01*
X145307200Y-158452380D02*
X145259580Y-158404761D01*
X145259580Y-158404761D02*
X145116723Y-158309523D01*
X145116723Y-158309523D02*
X144926247Y-158261904D01*
X144926247Y-158261904D02*
X144545295Y-158261904D01*
X144545295Y-158261904D02*
X144450057Y-158309523D01*
X144450057Y-158309523D02*
X144402438Y-158357142D01*
X144402438Y-158357142D02*
X144354819Y-158452380D01*
X144354819Y-158452380D02*
X144354819Y-158642856D01*
X144354819Y-158642856D02*
X144402438Y-158738094D01*
X144402438Y-158738094D02*
X144450057Y-158785713D01*
X144450057Y-158785713D02*
X144545295Y-158833332D01*
X144545295Y-158833332D02*
X144783390Y-158833332D01*
X144783390Y-158833332D02*
X144878628Y-158785713D01*
X144878628Y-158785713D02*
X144926247Y-158738094D01*
X144926247Y-158738094D02*
X144973866Y-158642856D01*
X144973866Y-158642856D02*
X144973866Y-158452380D01*
X144973866Y-158452380D02*
X144926247Y-158357142D01*
X144926247Y-158357142D02*
X144878628Y-158309523D01*
X144878628Y-158309523D02*
X144783390Y-158261904D01*
X160959580Y-138069047D02*
X161007200Y-138116666D01*
X161007200Y-138116666D02*
X161054819Y-138259523D01*
X161054819Y-138259523D02*
X161054819Y-138354761D01*
X161054819Y-138354761D02*
X161007200Y-138497618D01*
X161007200Y-138497618D02*
X160911961Y-138592856D01*
X160911961Y-138592856D02*
X160816723Y-138640475D01*
X160816723Y-138640475D02*
X160626247Y-138688094D01*
X160626247Y-138688094D02*
X160483390Y-138688094D01*
X160483390Y-138688094D02*
X160292914Y-138640475D01*
X160292914Y-138640475D02*
X160197676Y-138592856D01*
X160197676Y-138592856D02*
X160102438Y-138497618D01*
X160102438Y-138497618D02*
X160054819Y-138354761D01*
X160054819Y-138354761D02*
X160054819Y-138259523D01*
X160054819Y-138259523D02*
X160102438Y-138116666D01*
X160102438Y-138116666D02*
X160150057Y-138069047D01*
X160054819Y-137735713D02*
X160054819Y-137069047D01*
X160054819Y-137069047D02*
X161054819Y-137497618D01*
X160054819Y-136497618D02*
X160054819Y-136402380D01*
X160054819Y-136402380D02*
X160102438Y-136307142D01*
X160102438Y-136307142D02*
X160150057Y-136259523D01*
X160150057Y-136259523D02*
X160245295Y-136211904D01*
X160245295Y-136211904D02*
X160435771Y-136164285D01*
X160435771Y-136164285D02*
X160673866Y-136164285D01*
X160673866Y-136164285D02*
X160864342Y-136211904D01*
X160864342Y-136211904D02*
X160959580Y-136259523D01*
X160959580Y-136259523D02*
X161007200Y-136307142D01*
X161007200Y-136307142D02*
X161054819Y-136402380D01*
X161054819Y-136402380D02*
X161054819Y-136497618D01*
X161054819Y-136497618D02*
X161007200Y-136592856D01*
X161007200Y-136592856D02*
X160959580Y-136640475D01*
X160959580Y-136640475D02*
X160864342Y-136688094D01*
X160864342Y-136688094D02*
X160673866Y-136735713D01*
X160673866Y-136735713D02*
X160435771Y-136735713D01*
X160435771Y-136735713D02*
X160245295Y-136688094D01*
X160245295Y-136688094D02*
X160150057Y-136640475D01*
X160150057Y-136640475D02*
X160102438Y-136592856D01*
X160102438Y-136592856D02*
X160054819Y-136497618D01*
X160054819Y-135830951D02*
X160054819Y-135164285D01*
X160054819Y-135164285D02*
X161054819Y-135592856D01*
X157285714Y-77954819D02*
X157285714Y-78764342D01*
X157285714Y-78764342D02*
X157333333Y-78859580D01*
X157333333Y-78859580D02*
X157380952Y-78907200D01*
X157380952Y-78907200D02*
X157476190Y-78954819D01*
X157476190Y-78954819D02*
X157666666Y-78954819D01*
X157666666Y-78954819D02*
X157761904Y-78907200D01*
X157761904Y-78907200D02*
X157809523Y-78859580D01*
X157809523Y-78859580D02*
X157857142Y-78764342D01*
X157857142Y-78764342D02*
X157857142Y-77954819D01*
X158238095Y-77954819D02*
X158904761Y-77954819D01*
X158904761Y-77954819D02*
X158476190Y-78954819D01*
X159476190Y-77954819D02*
X159571428Y-77954819D01*
X159571428Y-77954819D02*
X159666666Y-78002438D01*
X159666666Y-78002438D02*
X159714285Y-78050057D01*
X159714285Y-78050057D02*
X159761904Y-78145295D01*
X159761904Y-78145295D02*
X159809523Y-78335771D01*
X159809523Y-78335771D02*
X159809523Y-78573866D01*
X159809523Y-78573866D02*
X159761904Y-78764342D01*
X159761904Y-78764342D02*
X159714285Y-78859580D01*
X159714285Y-78859580D02*
X159666666Y-78907200D01*
X159666666Y-78907200D02*
X159571428Y-78954819D01*
X159571428Y-78954819D02*
X159476190Y-78954819D01*
X159476190Y-78954819D02*
X159380952Y-78907200D01*
X159380952Y-78907200D02*
X159333333Y-78859580D01*
X159333333Y-78859580D02*
X159285714Y-78764342D01*
X159285714Y-78764342D02*
X159238095Y-78573866D01*
X159238095Y-78573866D02*
X159238095Y-78335771D01*
X159238095Y-78335771D02*
X159285714Y-78145295D01*
X159285714Y-78145295D02*
X159333333Y-78050057D01*
X159333333Y-78050057D02*
X159380952Y-78002438D01*
X159380952Y-78002438D02*
X159476190Y-77954819D01*
X160714285Y-77954819D02*
X160238095Y-77954819D01*
X160238095Y-77954819D02*
X160190476Y-78431009D01*
X160190476Y-78431009D02*
X160238095Y-78383390D01*
X160238095Y-78383390D02*
X160333333Y-78335771D01*
X160333333Y-78335771D02*
X160571428Y-78335771D01*
X160571428Y-78335771D02*
X160666666Y-78383390D01*
X160666666Y-78383390D02*
X160714285Y-78431009D01*
X160714285Y-78431009D02*
X160761904Y-78526247D01*
X160761904Y-78526247D02*
X160761904Y-78764342D01*
X160761904Y-78764342D02*
X160714285Y-78859580D01*
X160714285Y-78859580D02*
X160666666Y-78907200D01*
X160666666Y-78907200D02*
X160571428Y-78954819D01*
X160571428Y-78954819D02*
X160333333Y-78954819D01*
X160333333Y-78954819D02*
X160238095Y-78907200D01*
X160238095Y-78907200D02*
X160190476Y-78859580D01*
X135130952Y-142109580D02*
X135083333Y-142157200D01*
X135083333Y-142157200D02*
X134940476Y-142204819D01*
X134940476Y-142204819D02*
X134845238Y-142204819D01*
X134845238Y-142204819D02*
X134702381Y-142157200D01*
X134702381Y-142157200D02*
X134607143Y-142061961D01*
X134607143Y-142061961D02*
X134559524Y-141966723D01*
X134559524Y-141966723D02*
X134511905Y-141776247D01*
X134511905Y-141776247D02*
X134511905Y-141633390D01*
X134511905Y-141633390D02*
X134559524Y-141442914D01*
X134559524Y-141442914D02*
X134607143Y-141347676D01*
X134607143Y-141347676D02*
X134702381Y-141252438D01*
X134702381Y-141252438D02*
X134845238Y-141204819D01*
X134845238Y-141204819D02*
X134940476Y-141204819D01*
X134940476Y-141204819D02*
X135083333Y-141252438D01*
X135083333Y-141252438D02*
X135130952Y-141300057D01*
X135464286Y-141204819D02*
X136130952Y-141204819D01*
X136130952Y-141204819D02*
X135702381Y-142204819D01*
X136702381Y-141204819D02*
X136797619Y-141204819D01*
X136797619Y-141204819D02*
X136892857Y-141252438D01*
X136892857Y-141252438D02*
X136940476Y-141300057D01*
X136940476Y-141300057D02*
X136988095Y-141395295D01*
X136988095Y-141395295D02*
X137035714Y-141585771D01*
X137035714Y-141585771D02*
X137035714Y-141823866D01*
X137035714Y-141823866D02*
X136988095Y-142014342D01*
X136988095Y-142014342D02*
X136940476Y-142109580D01*
X136940476Y-142109580D02*
X136892857Y-142157200D01*
X136892857Y-142157200D02*
X136797619Y-142204819D01*
X136797619Y-142204819D02*
X136702381Y-142204819D01*
X136702381Y-142204819D02*
X136607143Y-142157200D01*
X136607143Y-142157200D02*
X136559524Y-142109580D01*
X136559524Y-142109580D02*
X136511905Y-142014342D01*
X136511905Y-142014342D02*
X136464286Y-141823866D01*
X136464286Y-141823866D02*
X136464286Y-141585771D01*
X136464286Y-141585771D02*
X136511905Y-141395295D01*
X136511905Y-141395295D02*
X136559524Y-141300057D01*
X136559524Y-141300057D02*
X136607143Y-141252438D01*
X136607143Y-141252438D02*
X136702381Y-141204819D01*
X137940476Y-141204819D02*
X137464286Y-141204819D01*
X137464286Y-141204819D02*
X137416667Y-141681009D01*
X137416667Y-141681009D02*
X137464286Y-141633390D01*
X137464286Y-141633390D02*
X137559524Y-141585771D01*
X137559524Y-141585771D02*
X137797619Y-141585771D01*
X137797619Y-141585771D02*
X137892857Y-141633390D01*
X137892857Y-141633390D02*
X137940476Y-141681009D01*
X137940476Y-141681009D02*
X137988095Y-141776247D01*
X137988095Y-141776247D02*
X137988095Y-142014342D01*
X137988095Y-142014342D02*
X137940476Y-142109580D01*
X137940476Y-142109580D02*
X137892857Y-142157200D01*
X137892857Y-142157200D02*
X137797619Y-142204819D01*
X137797619Y-142204819D02*
X137559524Y-142204819D01*
X137559524Y-142204819D02*
X137464286Y-142157200D01*
X137464286Y-142157200D02*
X137416667Y-142109580D01*
X136180952Y-95659580D02*
X136133333Y-95707200D01*
X136133333Y-95707200D02*
X135990476Y-95754819D01*
X135990476Y-95754819D02*
X135895238Y-95754819D01*
X135895238Y-95754819D02*
X135752381Y-95707200D01*
X135752381Y-95707200D02*
X135657143Y-95611961D01*
X135657143Y-95611961D02*
X135609524Y-95516723D01*
X135609524Y-95516723D02*
X135561905Y-95326247D01*
X135561905Y-95326247D02*
X135561905Y-95183390D01*
X135561905Y-95183390D02*
X135609524Y-94992914D01*
X135609524Y-94992914D02*
X135657143Y-94897676D01*
X135657143Y-94897676D02*
X135752381Y-94802438D01*
X135752381Y-94802438D02*
X135895238Y-94754819D01*
X135895238Y-94754819D02*
X135990476Y-94754819D01*
X135990476Y-94754819D02*
X136133333Y-94802438D01*
X136133333Y-94802438D02*
X136180952Y-94850057D01*
X136514286Y-94754819D02*
X137180952Y-94754819D01*
X137180952Y-94754819D02*
X136752381Y-95754819D01*
X138085714Y-95754819D02*
X137514286Y-95754819D01*
X137800000Y-95754819D02*
X137800000Y-94754819D01*
X137800000Y-94754819D02*
X137704762Y-94897676D01*
X137704762Y-94897676D02*
X137609524Y-94992914D01*
X137609524Y-94992914D02*
X137514286Y-95040533D01*
X138419048Y-94754819D02*
X139038095Y-94754819D01*
X139038095Y-94754819D02*
X138704762Y-95135771D01*
X138704762Y-95135771D02*
X138847619Y-95135771D01*
X138847619Y-95135771D02*
X138942857Y-95183390D01*
X138942857Y-95183390D02*
X138990476Y-95231009D01*
X138990476Y-95231009D02*
X139038095Y-95326247D01*
X139038095Y-95326247D02*
X139038095Y-95564342D01*
X139038095Y-95564342D02*
X138990476Y-95659580D01*
X138990476Y-95659580D02*
X138942857Y-95707200D01*
X138942857Y-95707200D02*
X138847619Y-95754819D01*
X138847619Y-95754819D02*
X138561905Y-95754819D01*
X138561905Y-95754819D02*
X138466667Y-95707200D01*
X138466667Y-95707200D02*
X138419048Y-95659580D01*
X145354819Y-157069047D02*
X144878628Y-157402380D01*
X145354819Y-157640475D02*
X144354819Y-157640475D01*
X144354819Y-157640475D02*
X144354819Y-157259523D01*
X144354819Y-157259523D02*
X144402438Y-157164285D01*
X144402438Y-157164285D02*
X144450057Y-157116666D01*
X144450057Y-157116666D02*
X144545295Y-157069047D01*
X144545295Y-157069047D02*
X144688152Y-157069047D01*
X144688152Y-157069047D02*
X144783390Y-157116666D01*
X144783390Y-157116666D02*
X144831009Y-157164285D01*
X144831009Y-157164285D02*
X144878628Y-157259523D01*
X144878628Y-157259523D02*
X144878628Y-157640475D01*
X144354819Y-156735713D02*
X144354819Y-156069047D01*
X144354819Y-156069047D02*
X145354819Y-156497618D01*
X144354819Y-155497618D02*
X144354819Y-155402380D01*
X144354819Y-155402380D02*
X144402438Y-155307142D01*
X144402438Y-155307142D02*
X144450057Y-155259523D01*
X144450057Y-155259523D02*
X144545295Y-155211904D01*
X144545295Y-155211904D02*
X144735771Y-155164285D01*
X144735771Y-155164285D02*
X144973866Y-155164285D01*
X144973866Y-155164285D02*
X145164342Y-155211904D01*
X145164342Y-155211904D02*
X145259580Y-155259523D01*
X145259580Y-155259523D02*
X145307200Y-155307142D01*
X145307200Y-155307142D02*
X145354819Y-155402380D01*
X145354819Y-155402380D02*
X145354819Y-155497618D01*
X145354819Y-155497618D02*
X145307200Y-155592856D01*
X145307200Y-155592856D02*
X145259580Y-155640475D01*
X145259580Y-155640475D02*
X145164342Y-155688094D01*
X145164342Y-155688094D02*
X144973866Y-155735713D01*
X144973866Y-155735713D02*
X144735771Y-155735713D01*
X144735771Y-155735713D02*
X144545295Y-155688094D01*
X144545295Y-155688094D02*
X144450057Y-155640475D01*
X144450057Y-155640475D02*
X144402438Y-155592856D01*
X144402438Y-155592856D02*
X144354819Y-155497618D01*
X144783390Y-154592856D02*
X144735771Y-154688094D01*
X144735771Y-154688094D02*
X144688152Y-154735713D01*
X144688152Y-154735713D02*
X144592914Y-154783332D01*
X144592914Y-154783332D02*
X144545295Y-154783332D01*
X144545295Y-154783332D02*
X144450057Y-154735713D01*
X144450057Y-154735713D02*
X144402438Y-154688094D01*
X144402438Y-154688094D02*
X144354819Y-154592856D01*
X144354819Y-154592856D02*
X144354819Y-154402380D01*
X144354819Y-154402380D02*
X144402438Y-154307142D01*
X144402438Y-154307142D02*
X144450057Y-154259523D01*
X144450057Y-154259523D02*
X144545295Y-154211904D01*
X144545295Y-154211904D02*
X144592914Y-154211904D01*
X144592914Y-154211904D02*
X144688152Y-154259523D01*
X144688152Y-154259523D02*
X144735771Y-154307142D01*
X144735771Y-154307142D02*
X144783390Y-154402380D01*
X144783390Y-154402380D02*
X144783390Y-154592856D01*
X144783390Y-154592856D02*
X144831009Y-154688094D01*
X144831009Y-154688094D02*
X144878628Y-154735713D01*
X144878628Y-154735713D02*
X144973866Y-154783332D01*
X144973866Y-154783332D02*
X145164342Y-154783332D01*
X145164342Y-154783332D02*
X145259580Y-154735713D01*
X145259580Y-154735713D02*
X145307200Y-154688094D01*
X145307200Y-154688094D02*
X145354819Y-154592856D01*
X145354819Y-154592856D02*
X145354819Y-154402380D01*
X145354819Y-154402380D02*
X145307200Y-154307142D01*
X145307200Y-154307142D02*
X145259580Y-154259523D01*
X145259580Y-154259523D02*
X145164342Y-154211904D01*
X145164342Y-154211904D02*
X144973866Y-154211904D01*
X144973866Y-154211904D02*
X144878628Y-154259523D01*
X144878628Y-154259523D02*
X144831009Y-154307142D01*
X144831009Y-154307142D02*
X144783390Y-154402380D01*
X134880952Y-134859580D02*
X134833333Y-134907200D01*
X134833333Y-134907200D02*
X134690476Y-134954819D01*
X134690476Y-134954819D02*
X134595238Y-134954819D01*
X134595238Y-134954819D02*
X134452381Y-134907200D01*
X134452381Y-134907200D02*
X134357143Y-134811961D01*
X134357143Y-134811961D02*
X134309524Y-134716723D01*
X134309524Y-134716723D02*
X134261905Y-134526247D01*
X134261905Y-134526247D02*
X134261905Y-134383390D01*
X134261905Y-134383390D02*
X134309524Y-134192914D01*
X134309524Y-134192914D02*
X134357143Y-134097676D01*
X134357143Y-134097676D02*
X134452381Y-134002438D01*
X134452381Y-134002438D02*
X134595238Y-133954819D01*
X134595238Y-133954819D02*
X134690476Y-133954819D01*
X134690476Y-133954819D02*
X134833333Y-134002438D01*
X134833333Y-134002438D02*
X134880952Y-134050057D01*
X135214286Y-133954819D02*
X135880952Y-133954819D01*
X135880952Y-133954819D02*
X135452381Y-134954819D01*
X136452381Y-133954819D02*
X136547619Y-133954819D01*
X136547619Y-133954819D02*
X136642857Y-134002438D01*
X136642857Y-134002438D02*
X136690476Y-134050057D01*
X136690476Y-134050057D02*
X136738095Y-134145295D01*
X136738095Y-134145295D02*
X136785714Y-134335771D01*
X136785714Y-134335771D02*
X136785714Y-134573866D01*
X136785714Y-134573866D02*
X136738095Y-134764342D01*
X136738095Y-134764342D02*
X136690476Y-134859580D01*
X136690476Y-134859580D02*
X136642857Y-134907200D01*
X136642857Y-134907200D02*
X136547619Y-134954819D01*
X136547619Y-134954819D02*
X136452381Y-134954819D01*
X136452381Y-134954819D02*
X136357143Y-134907200D01*
X136357143Y-134907200D02*
X136309524Y-134859580D01*
X136309524Y-134859580D02*
X136261905Y-134764342D01*
X136261905Y-134764342D02*
X136214286Y-134573866D01*
X136214286Y-134573866D02*
X136214286Y-134335771D01*
X136214286Y-134335771D02*
X136261905Y-134145295D01*
X136261905Y-134145295D02*
X136309524Y-134050057D01*
X136309524Y-134050057D02*
X136357143Y-134002438D01*
X136357143Y-134002438D02*
X136452381Y-133954819D01*
X137642857Y-134288152D02*
X137642857Y-134954819D01*
X137404762Y-133907200D02*
X137166667Y-134621485D01*
X137166667Y-134621485D02*
X137785714Y-134621485D01*
X126714285Y-84554819D02*
X126714285Y-85269104D01*
X126714285Y-85269104D02*
X126666666Y-85411961D01*
X126666666Y-85411961D02*
X126571428Y-85507200D01*
X126571428Y-85507200D02*
X126428571Y-85554819D01*
X126428571Y-85554819D02*
X126333333Y-85554819D01*
X127095238Y-84554819D02*
X127761904Y-84554819D01*
X127761904Y-84554819D02*
X127333333Y-85554819D01*
X128333333Y-84554819D02*
X128428571Y-84554819D01*
X128428571Y-84554819D02*
X128523809Y-84602438D01*
X128523809Y-84602438D02*
X128571428Y-84650057D01*
X128571428Y-84650057D02*
X128619047Y-84745295D01*
X128619047Y-84745295D02*
X128666666Y-84935771D01*
X128666666Y-84935771D02*
X128666666Y-85173866D01*
X128666666Y-85173866D02*
X128619047Y-85364342D01*
X128619047Y-85364342D02*
X128571428Y-85459580D01*
X128571428Y-85459580D02*
X128523809Y-85507200D01*
X128523809Y-85507200D02*
X128428571Y-85554819D01*
X128428571Y-85554819D02*
X128333333Y-85554819D01*
X128333333Y-85554819D02*
X128238095Y-85507200D01*
X128238095Y-85507200D02*
X128190476Y-85459580D01*
X128190476Y-85459580D02*
X128142857Y-85364342D01*
X128142857Y-85364342D02*
X128095238Y-85173866D01*
X128095238Y-85173866D02*
X128095238Y-84935771D01*
X128095238Y-84935771D02*
X128142857Y-84745295D01*
X128142857Y-84745295D02*
X128190476Y-84650057D01*
X128190476Y-84650057D02*
X128238095Y-84602438D01*
X128238095Y-84602438D02*
X128333333Y-84554819D01*
X129523809Y-84888152D02*
X129523809Y-85554819D01*
X129285714Y-84507200D02*
X129047619Y-85221485D01*
X129047619Y-85221485D02*
X129666666Y-85221485D01*
X171714285Y-147954819D02*
X171714285Y-148669104D01*
X171714285Y-148669104D02*
X171666666Y-148811961D01*
X171666666Y-148811961D02*
X171571428Y-148907200D01*
X171571428Y-148907200D02*
X171428571Y-148954819D01*
X171428571Y-148954819D02*
X171333333Y-148954819D01*
X172095238Y-147954819D02*
X172761904Y-147954819D01*
X172761904Y-147954819D02*
X172333333Y-148954819D01*
X173333333Y-147954819D02*
X173428571Y-147954819D01*
X173428571Y-147954819D02*
X173523809Y-148002438D01*
X173523809Y-148002438D02*
X173571428Y-148050057D01*
X173571428Y-148050057D02*
X173619047Y-148145295D01*
X173619047Y-148145295D02*
X173666666Y-148335771D01*
X173666666Y-148335771D02*
X173666666Y-148573866D01*
X173666666Y-148573866D02*
X173619047Y-148764342D01*
X173619047Y-148764342D02*
X173571428Y-148859580D01*
X173571428Y-148859580D02*
X173523809Y-148907200D01*
X173523809Y-148907200D02*
X173428571Y-148954819D01*
X173428571Y-148954819D02*
X173333333Y-148954819D01*
X173333333Y-148954819D02*
X173238095Y-148907200D01*
X173238095Y-148907200D02*
X173190476Y-148859580D01*
X173190476Y-148859580D02*
X173142857Y-148764342D01*
X173142857Y-148764342D02*
X173095238Y-148573866D01*
X173095238Y-148573866D02*
X173095238Y-148335771D01*
X173095238Y-148335771D02*
X173142857Y-148145295D01*
X173142857Y-148145295D02*
X173190476Y-148050057D01*
X173190476Y-148050057D02*
X173238095Y-148002438D01*
X173238095Y-148002438D02*
X173333333Y-147954819D01*
X174238095Y-148383390D02*
X174142857Y-148335771D01*
X174142857Y-148335771D02*
X174095238Y-148288152D01*
X174095238Y-148288152D02*
X174047619Y-148192914D01*
X174047619Y-148192914D02*
X174047619Y-148145295D01*
X174047619Y-148145295D02*
X174095238Y-148050057D01*
X174095238Y-148050057D02*
X174142857Y-148002438D01*
X174142857Y-148002438D02*
X174238095Y-147954819D01*
X174238095Y-147954819D02*
X174428571Y-147954819D01*
X174428571Y-147954819D02*
X174523809Y-148002438D01*
X174523809Y-148002438D02*
X174571428Y-148050057D01*
X174571428Y-148050057D02*
X174619047Y-148145295D01*
X174619047Y-148145295D02*
X174619047Y-148192914D01*
X174619047Y-148192914D02*
X174571428Y-148288152D01*
X174571428Y-148288152D02*
X174523809Y-148335771D01*
X174523809Y-148335771D02*
X174428571Y-148383390D01*
X174428571Y-148383390D02*
X174238095Y-148383390D01*
X174238095Y-148383390D02*
X174142857Y-148431009D01*
X174142857Y-148431009D02*
X174095238Y-148478628D01*
X174095238Y-148478628D02*
X174047619Y-148573866D01*
X174047619Y-148573866D02*
X174047619Y-148764342D01*
X174047619Y-148764342D02*
X174095238Y-148859580D01*
X174095238Y-148859580D02*
X174142857Y-148907200D01*
X174142857Y-148907200D02*
X174238095Y-148954819D01*
X174238095Y-148954819D02*
X174428571Y-148954819D01*
X174428571Y-148954819D02*
X174523809Y-148907200D01*
X174523809Y-148907200D02*
X174571428Y-148859580D01*
X174571428Y-148859580D02*
X174619047Y-148764342D01*
X174619047Y-148764342D02*
X174619047Y-148573866D01*
X174619047Y-148573866D02*
X174571428Y-148478628D01*
X174571428Y-148478628D02*
X174523809Y-148431009D01*
X174523809Y-148431009D02*
X174428571Y-148383390D01*
X134980952Y-137859580D02*
X134933333Y-137907200D01*
X134933333Y-137907200D02*
X134790476Y-137954819D01*
X134790476Y-137954819D02*
X134695238Y-137954819D01*
X134695238Y-137954819D02*
X134552381Y-137907200D01*
X134552381Y-137907200D02*
X134457143Y-137811961D01*
X134457143Y-137811961D02*
X134409524Y-137716723D01*
X134409524Y-137716723D02*
X134361905Y-137526247D01*
X134361905Y-137526247D02*
X134361905Y-137383390D01*
X134361905Y-137383390D02*
X134409524Y-137192914D01*
X134409524Y-137192914D02*
X134457143Y-137097676D01*
X134457143Y-137097676D02*
X134552381Y-137002438D01*
X134552381Y-137002438D02*
X134695238Y-136954819D01*
X134695238Y-136954819D02*
X134790476Y-136954819D01*
X134790476Y-136954819D02*
X134933333Y-137002438D01*
X134933333Y-137002438D02*
X134980952Y-137050057D01*
X135314286Y-136954819D02*
X135980952Y-136954819D01*
X135980952Y-136954819D02*
X135552381Y-137954819D01*
X136552381Y-136954819D02*
X136647619Y-136954819D01*
X136647619Y-136954819D02*
X136742857Y-137002438D01*
X136742857Y-137002438D02*
X136790476Y-137050057D01*
X136790476Y-137050057D02*
X136838095Y-137145295D01*
X136838095Y-137145295D02*
X136885714Y-137335771D01*
X136885714Y-137335771D02*
X136885714Y-137573866D01*
X136885714Y-137573866D02*
X136838095Y-137764342D01*
X136838095Y-137764342D02*
X136790476Y-137859580D01*
X136790476Y-137859580D02*
X136742857Y-137907200D01*
X136742857Y-137907200D02*
X136647619Y-137954819D01*
X136647619Y-137954819D02*
X136552381Y-137954819D01*
X136552381Y-137954819D02*
X136457143Y-137907200D01*
X136457143Y-137907200D02*
X136409524Y-137859580D01*
X136409524Y-137859580D02*
X136361905Y-137764342D01*
X136361905Y-137764342D02*
X136314286Y-137573866D01*
X136314286Y-137573866D02*
X136314286Y-137335771D01*
X136314286Y-137335771D02*
X136361905Y-137145295D01*
X136361905Y-137145295D02*
X136409524Y-137050057D01*
X136409524Y-137050057D02*
X136457143Y-137002438D01*
X136457143Y-137002438D02*
X136552381Y-136954819D01*
X137742857Y-136954819D02*
X137552381Y-136954819D01*
X137552381Y-136954819D02*
X137457143Y-137002438D01*
X137457143Y-137002438D02*
X137409524Y-137050057D01*
X137409524Y-137050057D02*
X137314286Y-137192914D01*
X137314286Y-137192914D02*
X137266667Y-137383390D01*
X137266667Y-137383390D02*
X137266667Y-137764342D01*
X137266667Y-137764342D02*
X137314286Y-137859580D01*
X137314286Y-137859580D02*
X137361905Y-137907200D01*
X137361905Y-137907200D02*
X137457143Y-137954819D01*
X137457143Y-137954819D02*
X137647619Y-137954819D01*
X137647619Y-137954819D02*
X137742857Y-137907200D01*
X137742857Y-137907200D02*
X137790476Y-137859580D01*
X137790476Y-137859580D02*
X137838095Y-137764342D01*
X137838095Y-137764342D02*
X137838095Y-137526247D01*
X137838095Y-137526247D02*
X137790476Y-137431009D01*
X137790476Y-137431009D02*
X137742857Y-137383390D01*
X137742857Y-137383390D02*
X137647619Y-137335771D01*
X137647619Y-137335771D02*
X137457143Y-137335771D01*
X137457143Y-137335771D02*
X137361905Y-137383390D01*
X137361905Y-137383390D02*
X137314286Y-137431009D01*
X137314286Y-137431009D02*
X137266667Y-137526247D01*
X130154819Y-90914285D02*
X130964342Y-90914285D01*
X130964342Y-90914285D02*
X131059580Y-90866666D01*
X131059580Y-90866666D02*
X131107200Y-90819047D01*
X131107200Y-90819047D02*
X131154819Y-90723809D01*
X131154819Y-90723809D02*
X131154819Y-90533333D01*
X131154819Y-90533333D02*
X131107200Y-90438095D01*
X131107200Y-90438095D02*
X131059580Y-90390476D01*
X131059580Y-90390476D02*
X130964342Y-90342857D01*
X130964342Y-90342857D02*
X130154819Y-90342857D01*
X130154819Y-89961904D02*
X130154819Y-89295238D01*
X130154819Y-89295238D02*
X131154819Y-89723809D01*
X130154819Y-88723809D02*
X130154819Y-88628571D01*
X130154819Y-88628571D02*
X130202438Y-88533333D01*
X130202438Y-88533333D02*
X130250057Y-88485714D01*
X130250057Y-88485714D02*
X130345295Y-88438095D01*
X130345295Y-88438095D02*
X130535771Y-88390476D01*
X130535771Y-88390476D02*
X130773866Y-88390476D01*
X130773866Y-88390476D02*
X130964342Y-88438095D01*
X130964342Y-88438095D02*
X131059580Y-88485714D01*
X131059580Y-88485714D02*
X131107200Y-88533333D01*
X131107200Y-88533333D02*
X131154819Y-88628571D01*
X131154819Y-88628571D02*
X131154819Y-88723809D01*
X131154819Y-88723809D02*
X131107200Y-88819047D01*
X131107200Y-88819047D02*
X131059580Y-88866666D01*
X131059580Y-88866666D02*
X130964342Y-88914285D01*
X130964342Y-88914285D02*
X130773866Y-88961904D01*
X130773866Y-88961904D02*
X130535771Y-88961904D01*
X130535771Y-88961904D02*
X130345295Y-88914285D01*
X130345295Y-88914285D02*
X130250057Y-88866666D01*
X130250057Y-88866666D02*
X130202438Y-88819047D01*
X130202438Y-88819047D02*
X130154819Y-88723809D01*
X130154819Y-88057142D02*
X130154819Y-87438095D01*
X130154819Y-87438095D02*
X130535771Y-87771428D01*
X130535771Y-87771428D02*
X130535771Y-87628571D01*
X130535771Y-87628571D02*
X130583390Y-87533333D01*
X130583390Y-87533333D02*
X130631009Y-87485714D01*
X130631009Y-87485714D02*
X130726247Y-87438095D01*
X130726247Y-87438095D02*
X130964342Y-87438095D01*
X130964342Y-87438095D02*
X131059580Y-87485714D01*
X131059580Y-87485714D02*
X131107200Y-87533333D01*
X131107200Y-87533333D02*
X131154819Y-87628571D01*
X131154819Y-87628571D02*
X131154819Y-87914285D01*
X131154819Y-87914285D02*
X131107200Y-88009523D01*
X131107200Y-88009523D02*
X131059580Y-88057142D01*
X171714285Y-135354819D02*
X171714285Y-136069104D01*
X171714285Y-136069104D02*
X171666666Y-136211961D01*
X171666666Y-136211961D02*
X171571428Y-136307200D01*
X171571428Y-136307200D02*
X171428571Y-136354819D01*
X171428571Y-136354819D02*
X171333333Y-136354819D01*
X172095238Y-135354819D02*
X172761904Y-135354819D01*
X172761904Y-135354819D02*
X172333333Y-136354819D01*
X173333333Y-135354819D02*
X173428571Y-135354819D01*
X173428571Y-135354819D02*
X173523809Y-135402438D01*
X173523809Y-135402438D02*
X173571428Y-135450057D01*
X173571428Y-135450057D02*
X173619047Y-135545295D01*
X173619047Y-135545295D02*
X173666666Y-135735771D01*
X173666666Y-135735771D02*
X173666666Y-135973866D01*
X173666666Y-135973866D02*
X173619047Y-136164342D01*
X173619047Y-136164342D02*
X173571428Y-136259580D01*
X173571428Y-136259580D02*
X173523809Y-136307200D01*
X173523809Y-136307200D02*
X173428571Y-136354819D01*
X173428571Y-136354819D02*
X173333333Y-136354819D01*
X173333333Y-136354819D02*
X173238095Y-136307200D01*
X173238095Y-136307200D02*
X173190476Y-136259580D01*
X173190476Y-136259580D02*
X173142857Y-136164342D01*
X173142857Y-136164342D02*
X173095238Y-135973866D01*
X173095238Y-135973866D02*
X173095238Y-135735771D01*
X173095238Y-135735771D02*
X173142857Y-135545295D01*
X173142857Y-135545295D02*
X173190476Y-135450057D01*
X173190476Y-135450057D02*
X173238095Y-135402438D01*
X173238095Y-135402438D02*
X173333333Y-135354819D01*
X174000000Y-135354819D02*
X174666666Y-135354819D01*
X174666666Y-135354819D02*
X174238095Y-136354819D01*
X142380952Y-131659580D02*
X142333333Y-131707200D01*
X142333333Y-131707200D02*
X142190476Y-131754819D01*
X142190476Y-131754819D02*
X142095238Y-131754819D01*
X142095238Y-131754819D02*
X141952381Y-131707200D01*
X141952381Y-131707200D02*
X141857143Y-131611961D01*
X141857143Y-131611961D02*
X141809524Y-131516723D01*
X141809524Y-131516723D02*
X141761905Y-131326247D01*
X141761905Y-131326247D02*
X141761905Y-131183390D01*
X141761905Y-131183390D02*
X141809524Y-130992914D01*
X141809524Y-130992914D02*
X141857143Y-130897676D01*
X141857143Y-130897676D02*
X141952381Y-130802438D01*
X141952381Y-130802438D02*
X142095238Y-130754819D01*
X142095238Y-130754819D02*
X142190476Y-130754819D01*
X142190476Y-130754819D02*
X142333333Y-130802438D01*
X142333333Y-130802438D02*
X142380952Y-130850057D01*
X142714286Y-130754819D02*
X143380952Y-130754819D01*
X143380952Y-130754819D02*
X142952381Y-131754819D01*
X143952381Y-130754819D02*
X144047619Y-130754819D01*
X144047619Y-130754819D02*
X144142857Y-130802438D01*
X144142857Y-130802438D02*
X144190476Y-130850057D01*
X144190476Y-130850057D02*
X144238095Y-130945295D01*
X144238095Y-130945295D02*
X144285714Y-131135771D01*
X144285714Y-131135771D02*
X144285714Y-131373866D01*
X144285714Y-131373866D02*
X144238095Y-131564342D01*
X144238095Y-131564342D02*
X144190476Y-131659580D01*
X144190476Y-131659580D02*
X144142857Y-131707200D01*
X144142857Y-131707200D02*
X144047619Y-131754819D01*
X144047619Y-131754819D02*
X143952381Y-131754819D01*
X143952381Y-131754819D02*
X143857143Y-131707200D01*
X143857143Y-131707200D02*
X143809524Y-131659580D01*
X143809524Y-131659580D02*
X143761905Y-131564342D01*
X143761905Y-131564342D02*
X143714286Y-131373866D01*
X143714286Y-131373866D02*
X143714286Y-131135771D01*
X143714286Y-131135771D02*
X143761905Y-130945295D01*
X143761905Y-130945295D02*
X143809524Y-130850057D01*
X143809524Y-130850057D02*
X143857143Y-130802438D01*
X143857143Y-130802438D02*
X143952381Y-130754819D01*
X145238095Y-131754819D02*
X144666667Y-131754819D01*
X144952381Y-131754819D02*
X144952381Y-130754819D01*
X144952381Y-130754819D02*
X144857143Y-130897676D01*
X144857143Y-130897676D02*
X144761905Y-130992914D01*
X144761905Y-130992914D02*
X144666667Y-131040533D01*
X135130952Y-140704819D02*
X134797619Y-140228628D01*
X134559524Y-140704819D02*
X134559524Y-139704819D01*
X134559524Y-139704819D02*
X134940476Y-139704819D01*
X134940476Y-139704819D02*
X135035714Y-139752438D01*
X135035714Y-139752438D02*
X135083333Y-139800057D01*
X135083333Y-139800057D02*
X135130952Y-139895295D01*
X135130952Y-139895295D02*
X135130952Y-140038152D01*
X135130952Y-140038152D02*
X135083333Y-140133390D01*
X135083333Y-140133390D02*
X135035714Y-140181009D01*
X135035714Y-140181009D02*
X134940476Y-140228628D01*
X134940476Y-140228628D02*
X134559524Y-140228628D01*
X135464286Y-139704819D02*
X136130952Y-139704819D01*
X136130952Y-139704819D02*
X135702381Y-140704819D01*
X136702381Y-139704819D02*
X136797619Y-139704819D01*
X136797619Y-139704819D02*
X136892857Y-139752438D01*
X136892857Y-139752438D02*
X136940476Y-139800057D01*
X136940476Y-139800057D02*
X136988095Y-139895295D01*
X136988095Y-139895295D02*
X137035714Y-140085771D01*
X137035714Y-140085771D02*
X137035714Y-140323866D01*
X137035714Y-140323866D02*
X136988095Y-140514342D01*
X136988095Y-140514342D02*
X136940476Y-140609580D01*
X136940476Y-140609580D02*
X136892857Y-140657200D01*
X136892857Y-140657200D02*
X136797619Y-140704819D01*
X136797619Y-140704819D02*
X136702381Y-140704819D01*
X136702381Y-140704819D02*
X136607143Y-140657200D01*
X136607143Y-140657200D02*
X136559524Y-140609580D01*
X136559524Y-140609580D02*
X136511905Y-140514342D01*
X136511905Y-140514342D02*
X136464286Y-140323866D01*
X136464286Y-140323866D02*
X136464286Y-140085771D01*
X136464286Y-140085771D02*
X136511905Y-139895295D01*
X136511905Y-139895295D02*
X136559524Y-139800057D01*
X136559524Y-139800057D02*
X136607143Y-139752438D01*
X136607143Y-139752438D02*
X136702381Y-139704819D01*
X137892857Y-140038152D02*
X137892857Y-140704819D01*
X137654762Y-139657200D02*
X137416667Y-140371485D01*
X137416667Y-140371485D02*
X138035714Y-140371485D01*
X142785714Y-77954819D02*
X142785714Y-78764342D01*
X142785714Y-78764342D02*
X142833333Y-78859580D01*
X142833333Y-78859580D02*
X142880952Y-78907200D01*
X142880952Y-78907200D02*
X142976190Y-78954819D01*
X142976190Y-78954819D02*
X143166666Y-78954819D01*
X143166666Y-78954819D02*
X143261904Y-78907200D01*
X143261904Y-78907200D02*
X143309523Y-78859580D01*
X143309523Y-78859580D02*
X143357142Y-78764342D01*
X143357142Y-78764342D02*
X143357142Y-77954819D01*
X143738095Y-77954819D02*
X144404761Y-77954819D01*
X144404761Y-77954819D02*
X143976190Y-78954819D01*
X144976190Y-77954819D02*
X145071428Y-77954819D01*
X145071428Y-77954819D02*
X145166666Y-78002438D01*
X145166666Y-78002438D02*
X145214285Y-78050057D01*
X145214285Y-78050057D02*
X145261904Y-78145295D01*
X145261904Y-78145295D02*
X145309523Y-78335771D01*
X145309523Y-78335771D02*
X145309523Y-78573866D01*
X145309523Y-78573866D02*
X145261904Y-78764342D01*
X145261904Y-78764342D02*
X145214285Y-78859580D01*
X145214285Y-78859580D02*
X145166666Y-78907200D01*
X145166666Y-78907200D02*
X145071428Y-78954819D01*
X145071428Y-78954819D02*
X144976190Y-78954819D01*
X144976190Y-78954819D02*
X144880952Y-78907200D01*
X144880952Y-78907200D02*
X144833333Y-78859580D01*
X144833333Y-78859580D02*
X144785714Y-78764342D01*
X144785714Y-78764342D02*
X144738095Y-78573866D01*
X144738095Y-78573866D02*
X144738095Y-78335771D01*
X144738095Y-78335771D02*
X144785714Y-78145295D01*
X144785714Y-78145295D02*
X144833333Y-78050057D01*
X144833333Y-78050057D02*
X144880952Y-78002438D01*
X144880952Y-78002438D02*
X144976190Y-77954819D01*
X145690476Y-78050057D02*
X145738095Y-78002438D01*
X145738095Y-78002438D02*
X145833333Y-77954819D01*
X145833333Y-77954819D02*
X146071428Y-77954819D01*
X146071428Y-77954819D02*
X146166666Y-78002438D01*
X146166666Y-78002438D02*
X146214285Y-78050057D01*
X146214285Y-78050057D02*
X146261904Y-78145295D01*
X146261904Y-78145295D02*
X146261904Y-78240533D01*
X146261904Y-78240533D02*
X146214285Y-78383390D01*
X146214285Y-78383390D02*
X145642857Y-78954819D01*
X145642857Y-78954819D02*
X146261904Y-78954819D01*
D10*
X174896115Y-109308533D02*
X174134211Y-109308533D01*
D11*
X143359580Y-154719047D02*
X143407200Y-154766666D01*
X143407200Y-154766666D02*
X143454819Y-154909523D01*
X143454819Y-154909523D02*
X143454819Y-155004761D01*
X143454819Y-155004761D02*
X143407200Y-155147618D01*
X143407200Y-155147618D02*
X143311961Y-155242856D01*
X143311961Y-155242856D02*
X143216723Y-155290475D01*
X143216723Y-155290475D02*
X143026247Y-155338094D01*
X143026247Y-155338094D02*
X142883390Y-155338094D01*
X142883390Y-155338094D02*
X142692914Y-155290475D01*
X142692914Y-155290475D02*
X142597676Y-155242856D01*
X142597676Y-155242856D02*
X142502438Y-155147618D01*
X142502438Y-155147618D02*
X142454819Y-155004761D01*
X142454819Y-155004761D02*
X142454819Y-154909523D01*
X142454819Y-154909523D02*
X142502438Y-154766666D01*
X142502438Y-154766666D02*
X142550057Y-154719047D01*
X142454819Y-154385713D02*
X142454819Y-153719047D01*
X142454819Y-153719047D02*
X143454819Y-154147618D01*
X142454819Y-153147618D02*
X142454819Y-153052380D01*
X142454819Y-153052380D02*
X142502438Y-152957142D01*
X142502438Y-152957142D02*
X142550057Y-152909523D01*
X142550057Y-152909523D02*
X142645295Y-152861904D01*
X142645295Y-152861904D02*
X142835771Y-152814285D01*
X142835771Y-152814285D02*
X143073866Y-152814285D01*
X143073866Y-152814285D02*
X143264342Y-152861904D01*
X143264342Y-152861904D02*
X143359580Y-152909523D01*
X143359580Y-152909523D02*
X143407200Y-152957142D01*
X143407200Y-152957142D02*
X143454819Y-153052380D01*
X143454819Y-153052380D02*
X143454819Y-153147618D01*
X143454819Y-153147618D02*
X143407200Y-153242856D01*
X143407200Y-153242856D02*
X143359580Y-153290475D01*
X143359580Y-153290475D02*
X143264342Y-153338094D01*
X143264342Y-153338094D02*
X143073866Y-153385713D01*
X143073866Y-153385713D02*
X142835771Y-153385713D01*
X142835771Y-153385713D02*
X142645295Y-153338094D01*
X142645295Y-153338094D02*
X142550057Y-153290475D01*
X142550057Y-153290475D02*
X142502438Y-153242856D01*
X142502438Y-153242856D02*
X142454819Y-153147618D01*
X142550057Y-152433332D02*
X142502438Y-152385713D01*
X142502438Y-152385713D02*
X142454819Y-152290475D01*
X142454819Y-152290475D02*
X142454819Y-152052380D01*
X142454819Y-152052380D02*
X142502438Y-151957142D01*
X142502438Y-151957142D02*
X142550057Y-151909523D01*
X142550057Y-151909523D02*
X142645295Y-151861904D01*
X142645295Y-151861904D02*
X142740533Y-151861904D01*
X142740533Y-151861904D02*
X142883390Y-151909523D01*
X142883390Y-151909523D02*
X143454819Y-152480951D01*
X143454819Y-152480951D02*
X143454819Y-151861904D01*
X140659580Y-75919047D02*
X140707200Y-75966666D01*
X140707200Y-75966666D02*
X140754819Y-76109523D01*
X140754819Y-76109523D02*
X140754819Y-76204761D01*
X140754819Y-76204761D02*
X140707200Y-76347618D01*
X140707200Y-76347618D02*
X140611961Y-76442856D01*
X140611961Y-76442856D02*
X140516723Y-76490475D01*
X140516723Y-76490475D02*
X140326247Y-76538094D01*
X140326247Y-76538094D02*
X140183390Y-76538094D01*
X140183390Y-76538094D02*
X139992914Y-76490475D01*
X139992914Y-76490475D02*
X139897676Y-76442856D01*
X139897676Y-76442856D02*
X139802438Y-76347618D01*
X139802438Y-76347618D02*
X139754819Y-76204761D01*
X139754819Y-76204761D02*
X139754819Y-76109523D01*
X139754819Y-76109523D02*
X139802438Y-75966666D01*
X139802438Y-75966666D02*
X139850057Y-75919047D01*
X139754819Y-75585713D02*
X139754819Y-74919047D01*
X139754819Y-74919047D02*
X140754819Y-75347618D01*
X140754819Y-74014285D02*
X140754819Y-74585713D01*
X140754819Y-74299999D02*
X139754819Y-74299999D01*
X139754819Y-74299999D02*
X139897676Y-74395237D01*
X139897676Y-74395237D02*
X139992914Y-74490475D01*
X139992914Y-74490475D02*
X140040533Y-74585713D01*
X140754819Y-73061904D02*
X140754819Y-73633332D01*
X140754819Y-73347618D02*
X139754819Y-73347618D01*
X139754819Y-73347618D02*
X139897676Y-73442856D01*
X139897676Y-73442856D02*
X139992914Y-73538094D01*
X139992914Y-73538094D02*
X140040533Y-73633332D01*
X142785714Y-84204819D02*
X142785714Y-85014342D01*
X142785714Y-85014342D02*
X142833333Y-85109580D01*
X142833333Y-85109580D02*
X142880952Y-85157200D01*
X142880952Y-85157200D02*
X142976190Y-85204819D01*
X142976190Y-85204819D02*
X143166666Y-85204819D01*
X143166666Y-85204819D02*
X143261904Y-85157200D01*
X143261904Y-85157200D02*
X143309523Y-85109580D01*
X143309523Y-85109580D02*
X143357142Y-85014342D01*
X143357142Y-85014342D02*
X143357142Y-84204819D01*
X143738095Y-84204819D02*
X144404761Y-84204819D01*
X144404761Y-84204819D02*
X143976190Y-85204819D01*
X144976190Y-84204819D02*
X145071428Y-84204819D01*
X145071428Y-84204819D02*
X145166666Y-84252438D01*
X145166666Y-84252438D02*
X145214285Y-84300057D01*
X145214285Y-84300057D02*
X145261904Y-84395295D01*
X145261904Y-84395295D02*
X145309523Y-84585771D01*
X145309523Y-84585771D02*
X145309523Y-84823866D01*
X145309523Y-84823866D02*
X145261904Y-85014342D01*
X145261904Y-85014342D02*
X145214285Y-85109580D01*
X145214285Y-85109580D02*
X145166666Y-85157200D01*
X145166666Y-85157200D02*
X145071428Y-85204819D01*
X145071428Y-85204819D02*
X144976190Y-85204819D01*
X144976190Y-85204819D02*
X144880952Y-85157200D01*
X144880952Y-85157200D02*
X144833333Y-85109580D01*
X144833333Y-85109580D02*
X144785714Y-85014342D01*
X144785714Y-85014342D02*
X144738095Y-84823866D01*
X144738095Y-84823866D02*
X144738095Y-84585771D01*
X144738095Y-84585771D02*
X144785714Y-84395295D01*
X144785714Y-84395295D02*
X144833333Y-84300057D01*
X144833333Y-84300057D02*
X144880952Y-84252438D01*
X144880952Y-84252438D02*
X144976190Y-84204819D01*
X146166666Y-84538152D02*
X146166666Y-85204819D01*
X145928571Y-84157200D02*
X145690476Y-84871485D01*
X145690476Y-84871485D02*
X146309523Y-84871485D01*
X149030952Y-75004819D02*
X148697619Y-74528628D01*
X148459524Y-75004819D02*
X148459524Y-74004819D01*
X148459524Y-74004819D02*
X148840476Y-74004819D01*
X148840476Y-74004819D02*
X148935714Y-74052438D01*
X148935714Y-74052438D02*
X148983333Y-74100057D01*
X148983333Y-74100057D02*
X149030952Y-74195295D01*
X149030952Y-74195295D02*
X149030952Y-74338152D01*
X149030952Y-74338152D02*
X148983333Y-74433390D01*
X148983333Y-74433390D02*
X148935714Y-74481009D01*
X148935714Y-74481009D02*
X148840476Y-74528628D01*
X148840476Y-74528628D02*
X148459524Y-74528628D01*
X149364286Y-74004819D02*
X150030952Y-74004819D01*
X150030952Y-74004819D02*
X149602381Y-75004819D01*
X150935714Y-75004819D02*
X150364286Y-75004819D01*
X150650000Y-75004819D02*
X150650000Y-74004819D01*
X150650000Y-74004819D02*
X150554762Y-74147676D01*
X150554762Y-74147676D02*
X150459524Y-74242914D01*
X150459524Y-74242914D02*
X150364286Y-74290533D01*
X151316667Y-74100057D02*
X151364286Y-74052438D01*
X151364286Y-74052438D02*
X151459524Y-74004819D01*
X151459524Y-74004819D02*
X151697619Y-74004819D01*
X151697619Y-74004819D02*
X151792857Y-74052438D01*
X151792857Y-74052438D02*
X151840476Y-74100057D01*
X151840476Y-74100057D02*
X151888095Y-74195295D01*
X151888095Y-74195295D02*
X151888095Y-74290533D01*
X151888095Y-74290533D02*
X151840476Y-74433390D01*
X151840476Y-74433390D02*
X151269048Y-75004819D01*
X151269048Y-75004819D02*
X151888095Y-75004819D01*
X148180952Y-129054819D02*
X147847619Y-128578628D01*
X147609524Y-129054819D02*
X147609524Y-128054819D01*
X147609524Y-128054819D02*
X147990476Y-128054819D01*
X147990476Y-128054819D02*
X148085714Y-128102438D01*
X148085714Y-128102438D02*
X148133333Y-128150057D01*
X148133333Y-128150057D02*
X148180952Y-128245295D01*
X148180952Y-128245295D02*
X148180952Y-128388152D01*
X148180952Y-128388152D02*
X148133333Y-128483390D01*
X148133333Y-128483390D02*
X148085714Y-128531009D01*
X148085714Y-128531009D02*
X147990476Y-128578628D01*
X147990476Y-128578628D02*
X147609524Y-128578628D01*
X148514286Y-128054819D02*
X149180952Y-128054819D01*
X149180952Y-128054819D02*
X148752381Y-129054819D01*
X149752381Y-128054819D02*
X149847619Y-128054819D01*
X149847619Y-128054819D02*
X149942857Y-128102438D01*
X149942857Y-128102438D02*
X149990476Y-128150057D01*
X149990476Y-128150057D02*
X150038095Y-128245295D01*
X150038095Y-128245295D02*
X150085714Y-128435771D01*
X150085714Y-128435771D02*
X150085714Y-128673866D01*
X150085714Y-128673866D02*
X150038095Y-128864342D01*
X150038095Y-128864342D02*
X149990476Y-128959580D01*
X149990476Y-128959580D02*
X149942857Y-129007200D01*
X149942857Y-129007200D02*
X149847619Y-129054819D01*
X149847619Y-129054819D02*
X149752381Y-129054819D01*
X149752381Y-129054819D02*
X149657143Y-129007200D01*
X149657143Y-129007200D02*
X149609524Y-128959580D01*
X149609524Y-128959580D02*
X149561905Y-128864342D01*
X149561905Y-128864342D02*
X149514286Y-128673866D01*
X149514286Y-128673866D02*
X149514286Y-128435771D01*
X149514286Y-128435771D02*
X149561905Y-128245295D01*
X149561905Y-128245295D02*
X149609524Y-128150057D01*
X149609524Y-128150057D02*
X149657143Y-128102438D01*
X149657143Y-128102438D02*
X149752381Y-128054819D01*
X150466667Y-128150057D02*
X150514286Y-128102438D01*
X150514286Y-128102438D02*
X150609524Y-128054819D01*
X150609524Y-128054819D02*
X150847619Y-128054819D01*
X150847619Y-128054819D02*
X150942857Y-128102438D01*
X150942857Y-128102438D02*
X150990476Y-128150057D01*
X150990476Y-128150057D02*
X151038095Y-128245295D01*
X151038095Y-128245295D02*
X151038095Y-128340533D01*
X151038095Y-128340533D02*
X150990476Y-128483390D01*
X150990476Y-128483390D02*
X150419048Y-129054819D01*
X150419048Y-129054819D02*
X151038095Y-129054819D01*
X171714285Y-59754819D02*
X171714285Y-60469104D01*
X171714285Y-60469104D02*
X171666666Y-60611961D01*
X171666666Y-60611961D02*
X171571428Y-60707200D01*
X171571428Y-60707200D02*
X171428571Y-60754819D01*
X171428571Y-60754819D02*
X171333333Y-60754819D01*
X172095238Y-59754819D02*
X172761904Y-59754819D01*
X172761904Y-59754819D02*
X172333333Y-60754819D01*
X173333333Y-59754819D02*
X173428571Y-59754819D01*
X173428571Y-59754819D02*
X173523809Y-59802438D01*
X173523809Y-59802438D02*
X173571428Y-59850057D01*
X173571428Y-59850057D02*
X173619047Y-59945295D01*
X173619047Y-59945295D02*
X173666666Y-60135771D01*
X173666666Y-60135771D02*
X173666666Y-60373866D01*
X173666666Y-60373866D02*
X173619047Y-60564342D01*
X173619047Y-60564342D02*
X173571428Y-60659580D01*
X173571428Y-60659580D02*
X173523809Y-60707200D01*
X173523809Y-60707200D02*
X173428571Y-60754819D01*
X173428571Y-60754819D02*
X173333333Y-60754819D01*
X173333333Y-60754819D02*
X173238095Y-60707200D01*
X173238095Y-60707200D02*
X173190476Y-60659580D01*
X173190476Y-60659580D02*
X173142857Y-60564342D01*
X173142857Y-60564342D02*
X173095238Y-60373866D01*
X173095238Y-60373866D02*
X173095238Y-60135771D01*
X173095238Y-60135771D02*
X173142857Y-59945295D01*
X173142857Y-59945295D02*
X173190476Y-59850057D01*
X173190476Y-59850057D02*
X173238095Y-59802438D01*
X173238095Y-59802438D02*
X173333333Y-59754819D01*
X174571428Y-59754819D02*
X174095238Y-59754819D01*
X174095238Y-59754819D02*
X174047619Y-60231009D01*
X174047619Y-60231009D02*
X174095238Y-60183390D01*
X174095238Y-60183390D02*
X174190476Y-60135771D01*
X174190476Y-60135771D02*
X174428571Y-60135771D01*
X174428571Y-60135771D02*
X174523809Y-60183390D01*
X174523809Y-60183390D02*
X174571428Y-60231009D01*
X174571428Y-60231009D02*
X174619047Y-60326247D01*
X174619047Y-60326247D02*
X174619047Y-60564342D01*
X174619047Y-60564342D02*
X174571428Y-60659580D01*
X174571428Y-60659580D02*
X174523809Y-60707200D01*
X174523809Y-60707200D02*
X174428571Y-60754819D01*
X174428571Y-60754819D02*
X174190476Y-60754819D01*
X174190476Y-60754819D02*
X174095238Y-60707200D01*
X174095238Y-60707200D02*
X174047619Y-60659580D01*
X144359580Y-96869047D02*
X144407200Y-96916666D01*
X144407200Y-96916666D02*
X144454819Y-97059523D01*
X144454819Y-97059523D02*
X144454819Y-97154761D01*
X144454819Y-97154761D02*
X144407200Y-97297618D01*
X144407200Y-97297618D02*
X144311961Y-97392856D01*
X144311961Y-97392856D02*
X144216723Y-97440475D01*
X144216723Y-97440475D02*
X144026247Y-97488094D01*
X144026247Y-97488094D02*
X143883390Y-97488094D01*
X143883390Y-97488094D02*
X143692914Y-97440475D01*
X143692914Y-97440475D02*
X143597676Y-97392856D01*
X143597676Y-97392856D02*
X143502438Y-97297618D01*
X143502438Y-97297618D02*
X143454819Y-97154761D01*
X143454819Y-97154761D02*
X143454819Y-97059523D01*
X143454819Y-97059523D02*
X143502438Y-96916666D01*
X143502438Y-96916666D02*
X143550057Y-96869047D01*
X143454819Y-96535713D02*
X143454819Y-95869047D01*
X143454819Y-95869047D02*
X144454819Y-96297618D01*
X144454819Y-94964285D02*
X144454819Y-95535713D01*
X144454819Y-95249999D02*
X143454819Y-95249999D01*
X143454819Y-95249999D02*
X143597676Y-95345237D01*
X143597676Y-95345237D02*
X143692914Y-95440475D01*
X143692914Y-95440475D02*
X143740533Y-95535713D01*
X143454819Y-94107142D02*
X143454819Y-94297618D01*
X143454819Y-94297618D02*
X143502438Y-94392856D01*
X143502438Y-94392856D02*
X143550057Y-94440475D01*
X143550057Y-94440475D02*
X143692914Y-94535713D01*
X143692914Y-94535713D02*
X143883390Y-94583332D01*
X143883390Y-94583332D02*
X144264342Y-94583332D01*
X144264342Y-94583332D02*
X144359580Y-94535713D01*
X144359580Y-94535713D02*
X144407200Y-94488094D01*
X144407200Y-94488094D02*
X144454819Y-94392856D01*
X144454819Y-94392856D02*
X144454819Y-94202380D01*
X144454819Y-94202380D02*
X144407200Y-94107142D01*
X144407200Y-94107142D02*
X144359580Y-94059523D01*
X144359580Y-94059523D02*
X144264342Y-94011904D01*
X144264342Y-94011904D02*
X144026247Y-94011904D01*
X144026247Y-94011904D02*
X143931009Y-94059523D01*
X143931009Y-94059523D02*
X143883390Y-94107142D01*
X143883390Y-94107142D02*
X143835771Y-94202380D01*
X143835771Y-94202380D02*
X143835771Y-94392856D01*
X143835771Y-94392856D02*
X143883390Y-94488094D01*
X143883390Y-94488094D02*
X143931009Y-94535713D01*
X143931009Y-94535713D02*
X144026247Y-94583332D01*
X147354819Y-147819047D02*
X146878628Y-148152380D01*
X147354819Y-148390475D02*
X146354819Y-148390475D01*
X146354819Y-148390475D02*
X146354819Y-148009523D01*
X146354819Y-148009523D02*
X146402438Y-147914285D01*
X146402438Y-147914285D02*
X146450057Y-147866666D01*
X146450057Y-147866666D02*
X146545295Y-147819047D01*
X146545295Y-147819047D02*
X146688152Y-147819047D01*
X146688152Y-147819047D02*
X146783390Y-147866666D01*
X146783390Y-147866666D02*
X146831009Y-147914285D01*
X146831009Y-147914285D02*
X146878628Y-148009523D01*
X146878628Y-148009523D02*
X146878628Y-148390475D01*
X146354819Y-147485713D02*
X146354819Y-146819047D01*
X146354819Y-146819047D02*
X147354819Y-147247618D01*
X146354819Y-146247618D02*
X146354819Y-146152380D01*
X146354819Y-146152380D02*
X146402438Y-146057142D01*
X146402438Y-146057142D02*
X146450057Y-146009523D01*
X146450057Y-146009523D02*
X146545295Y-145961904D01*
X146545295Y-145961904D02*
X146735771Y-145914285D01*
X146735771Y-145914285D02*
X146973866Y-145914285D01*
X146973866Y-145914285D02*
X147164342Y-145961904D01*
X147164342Y-145961904D02*
X147259580Y-146009523D01*
X147259580Y-146009523D02*
X147307200Y-146057142D01*
X147307200Y-146057142D02*
X147354819Y-146152380D01*
X147354819Y-146152380D02*
X147354819Y-146247618D01*
X147354819Y-146247618D02*
X147307200Y-146342856D01*
X147307200Y-146342856D02*
X147259580Y-146390475D01*
X147259580Y-146390475D02*
X147164342Y-146438094D01*
X147164342Y-146438094D02*
X146973866Y-146485713D01*
X146973866Y-146485713D02*
X146735771Y-146485713D01*
X146735771Y-146485713D02*
X146545295Y-146438094D01*
X146545295Y-146438094D02*
X146450057Y-146390475D01*
X146450057Y-146390475D02*
X146402438Y-146342856D01*
X146402438Y-146342856D02*
X146354819Y-146247618D01*
X146354819Y-145057142D02*
X146354819Y-145247618D01*
X146354819Y-145247618D02*
X146402438Y-145342856D01*
X146402438Y-145342856D02*
X146450057Y-145390475D01*
X146450057Y-145390475D02*
X146592914Y-145485713D01*
X146592914Y-145485713D02*
X146783390Y-145533332D01*
X146783390Y-145533332D02*
X147164342Y-145533332D01*
X147164342Y-145533332D02*
X147259580Y-145485713D01*
X147259580Y-145485713D02*
X147307200Y-145438094D01*
X147307200Y-145438094D02*
X147354819Y-145342856D01*
X147354819Y-145342856D02*
X147354819Y-145152380D01*
X147354819Y-145152380D02*
X147307200Y-145057142D01*
X147307200Y-145057142D02*
X147259580Y-145009523D01*
X147259580Y-145009523D02*
X147164342Y-144961904D01*
X147164342Y-144961904D02*
X146926247Y-144961904D01*
X146926247Y-144961904D02*
X146831009Y-145009523D01*
X146831009Y-145009523D02*
X146783390Y-145057142D01*
X146783390Y-145057142D02*
X146735771Y-145152380D01*
X146735771Y-145152380D02*
X146735771Y-145342856D01*
X146735771Y-145342856D02*
X146783390Y-145438094D01*
X146783390Y-145438094D02*
X146831009Y-145485713D01*
X146831009Y-145485713D02*
X146926247Y-145533332D01*
X124714285Y-155454819D02*
X124714285Y-156169104D01*
X124714285Y-156169104D02*
X124666666Y-156311961D01*
X124666666Y-156311961D02*
X124571428Y-156407200D01*
X124571428Y-156407200D02*
X124428571Y-156454819D01*
X124428571Y-156454819D02*
X124333333Y-156454819D01*
X125095238Y-155454819D02*
X125761904Y-155454819D01*
X125761904Y-155454819D02*
X125333333Y-156454819D01*
X126333333Y-155454819D02*
X126428571Y-155454819D01*
X126428571Y-155454819D02*
X126523809Y-155502438D01*
X126523809Y-155502438D02*
X126571428Y-155550057D01*
X126571428Y-155550057D02*
X126619047Y-155645295D01*
X126619047Y-155645295D02*
X126666666Y-155835771D01*
X126666666Y-155835771D02*
X126666666Y-156073866D01*
X126666666Y-156073866D02*
X126619047Y-156264342D01*
X126619047Y-156264342D02*
X126571428Y-156359580D01*
X126571428Y-156359580D02*
X126523809Y-156407200D01*
X126523809Y-156407200D02*
X126428571Y-156454819D01*
X126428571Y-156454819D02*
X126333333Y-156454819D01*
X126333333Y-156454819D02*
X126238095Y-156407200D01*
X126238095Y-156407200D02*
X126190476Y-156359580D01*
X126190476Y-156359580D02*
X126142857Y-156264342D01*
X126142857Y-156264342D02*
X126095238Y-156073866D01*
X126095238Y-156073866D02*
X126095238Y-155835771D01*
X126095238Y-155835771D02*
X126142857Y-155645295D01*
X126142857Y-155645295D02*
X126190476Y-155550057D01*
X126190476Y-155550057D02*
X126238095Y-155502438D01*
X126238095Y-155502438D02*
X126333333Y-155454819D01*
X127047619Y-155550057D02*
X127095238Y-155502438D01*
X127095238Y-155502438D02*
X127190476Y-155454819D01*
X127190476Y-155454819D02*
X127428571Y-155454819D01*
X127428571Y-155454819D02*
X127523809Y-155502438D01*
X127523809Y-155502438D02*
X127571428Y-155550057D01*
X127571428Y-155550057D02*
X127619047Y-155645295D01*
X127619047Y-155645295D02*
X127619047Y-155740533D01*
X127619047Y-155740533D02*
X127571428Y-155883390D01*
X127571428Y-155883390D02*
X127000000Y-156454819D01*
X127000000Y-156454819D02*
X127619047Y-156454819D01*
D10*
X161327693Y-108020038D02*
X161232455Y-107972419D01*
X161232455Y-107972419D02*
X161089598Y-107972419D01*
X161089598Y-107972419D02*
X160946741Y-108020038D01*
X160946741Y-108020038D02*
X160851503Y-108115276D01*
X160851503Y-108115276D02*
X160803884Y-108210514D01*
X160803884Y-108210514D02*
X160756265Y-108400990D01*
X160756265Y-108400990D02*
X160756265Y-108543847D01*
X160756265Y-108543847D02*
X160803884Y-108734323D01*
X160803884Y-108734323D02*
X160851503Y-108829561D01*
X160851503Y-108829561D02*
X160946741Y-108924800D01*
X160946741Y-108924800D02*
X161089598Y-108972419D01*
X161089598Y-108972419D02*
X161184836Y-108972419D01*
X161184836Y-108972419D02*
X161327693Y-108924800D01*
X161327693Y-108924800D02*
X161375312Y-108877180D01*
X161375312Y-108877180D02*
X161375312Y-108543847D01*
X161375312Y-108543847D02*
X161184836Y-108543847D01*
X161803884Y-108972419D02*
X161803884Y-107972419D01*
X161803884Y-107972419D02*
X162375312Y-108972419D01*
X162375312Y-108972419D02*
X162375312Y-107972419D01*
X162851503Y-108972419D02*
X162851503Y-107972419D01*
X162851503Y-107972419D02*
X163089598Y-107972419D01*
X163089598Y-107972419D02*
X163232455Y-108020038D01*
X163232455Y-108020038D02*
X163327693Y-108115276D01*
X163327693Y-108115276D02*
X163375312Y-108210514D01*
X163375312Y-108210514D02*
X163422931Y-108400990D01*
X163422931Y-108400990D02*
X163422931Y-108543847D01*
X163422931Y-108543847D02*
X163375312Y-108734323D01*
X163375312Y-108734323D02*
X163327693Y-108829561D01*
X163327693Y-108829561D02*
X163232455Y-108924800D01*
X163232455Y-108924800D02*
X163089598Y-108972419D01*
X163089598Y-108972419D02*
X162851503Y-108972419D01*
X161730074Y-100172419D02*
X161253884Y-100172419D01*
X161253884Y-100172419D02*
X161206265Y-100648609D01*
X161206265Y-100648609D02*
X161253884Y-100600990D01*
X161253884Y-100600990D02*
X161349122Y-100553371D01*
X161349122Y-100553371D02*
X161587217Y-100553371D01*
X161587217Y-100553371D02*
X161682455Y-100600990D01*
X161682455Y-100600990D02*
X161730074Y-100648609D01*
X161730074Y-100648609D02*
X161777693Y-100743847D01*
X161777693Y-100743847D02*
X161777693Y-100981942D01*
X161777693Y-100981942D02*
X161730074Y-101077180D01*
X161730074Y-101077180D02*
X161682455Y-101124800D01*
X161682455Y-101124800D02*
X161587217Y-101172419D01*
X161587217Y-101172419D02*
X161349122Y-101172419D01*
X161349122Y-101172419D02*
X161253884Y-101124800D01*
X161253884Y-101124800D02*
X161206265Y-101077180D01*
X162063408Y-100172419D02*
X162396741Y-101172419D01*
X162396741Y-101172419D02*
X162730074Y-100172419D01*
X160003884Y-105272419D02*
X160003884Y-104272419D01*
X160003884Y-104272419D02*
X160241979Y-104272419D01*
X160241979Y-104272419D02*
X160384836Y-104320038D01*
X160384836Y-104320038D02*
X160480074Y-104415276D01*
X160480074Y-104415276D02*
X160527693Y-104510514D01*
X160527693Y-104510514D02*
X160575312Y-104700990D01*
X160575312Y-104700990D02*
X160575312Y-104843847D01*
X160575312Y-104843847D02*
X160527693Y-105034323D01*
X160527693Y-105034323D02*
X160480074Y-105129561D01*
X160480074Y-105129561D02*
X160384836Y-105224800D01*
X160384836Y-105224800D02*
X160241979Y-105272419D01*
X160241979Y-105272419D02*
X160003884Y-105272419D01*
X160956265Y-104986704D02*
X161432455Y-104986704D01*
X160861027Y-105272419D02*
X161194360Y-104272419D01*
X161194360Y-104272419D02*
X161527693Y-105272419D01*
X161718170Y-104272419D02*
X162289598Y-104272419D01*
X162003884Y-105272419D02*
X162003884Y-104272419D01*
X162575313Y-104986704D02*
X163051503Y-104986704D01*
X162480075Y-105272419D02*
X162813408Y-104272419D01*
X162813408Y-104272419D02*
X163146741Y-105272419D01*
X163432456Y-104367657D02*
X163480075Y-104320038D01*
X163480075Y-104320038D02*
X163575313Y-104272419D01*
X163575313Y-104272419D02*
X163813408Y-104272419D01*
X163813408Y-104272419D02*
X163908646Y-104320038D01*
X163908646Y-104320038D02*
X163956265Y-104367657D01*
X163956265Y-104367657D02*
X164003884Y-104462895D01*
X164003884Y-104462895D02*
X164003884Y-104558133D01*
X164003884Y-104558133D02*
X163956265Y-104700990D01*
X163956265Y-104700990D02*
X163384837Y-105272419D01*
X163384837Y-105272419D02*
X164003884Y-105272419D01*
D11*
X136680952Y-83659580D02*
X136633333Y-83707200D01*
X136633333Y-83707200D02*
X136490476Y-83754819D01*
X136490476Y-83754819D02*
X136395238Y-83754819D01*
X136395238Y-83754819D02*
X136252381Y-83707200D01*
X136252381Y-83707200D02*
X136157143Y-83611961D01*
X136157143Y-83611961D02*
X136109524Y-83516723D01*
X136109524Y-83516723D02*
X136061905Y-83326247D01*
X136061905Y-83326247D02*
X136061905Y-83183390D01*
X136061905Y-83183390D02*
X136109524Y-82992914D01*
X136109524Y-82992914D02*
X136157143Y-82897676D01*
X136157143Y-82897676D02*
X136252381Y-82802438D01*
X136252381Y-82802438D02*
X136395238Y-82754819D01*
X136395238Y-82754819D02*
X136490476Y-82754819D01*
X136490476Y-82754819D02*
X136633333Y-82802438D01*
X136633333Y-82802438D02*
X136680952Y-82850057D01*
X137014286Y-82754819D02*
X137680952Y-82754819D01*
X137680952Y-82754819D02*
X137252381Y-83754819D01*
X138585714Y-83754819D02*
X138014286Y-83754819D01*
X138300000Y-83754819D02*
X138300000Y-82754819D01*
X138300000Y-82754819D02*
X138204762Y-82897676D01*
X138204762Y-82897676D02*
X138109524Y-82992914D01*
X138109524Y-82992914D02*
X138014286Y-83040533D01*
X139490476Y-82754819D02*
X139014286Y-82754819D01*
X139014286Y-82754819D02*
X138966667Y-83231009D01*
X138966667Y-83231009D02*
X139014286Y-83183390D01*
X139014286Y-83183390D02*
X139109524Y-83135771D01*
X139109524Y-83135771D02*
X139347619Y-83135771D01*
X139347619Y-83135771D02*
X139442857Y-83183390D01*
X139442857Y-83183390D02*
X139490476Y-83231009D01*
X139490476Y-83231009D02*
X139538095Y-83326247D01*
X139538095Y-83326247D02*
X139538095Y-83564342D01*
X139538095Y-83564342D02*
X139490476Y-83659580D01*
X139490476Y-83659580D02*
X139442857Y-83707200D01*
X139442857Y-83707200D02*
X139347619Y-83754819D01*
X139347619Y-83754819D02*
X139109524Y-83754819D01*
X139109524Y-83754819D02*
X139014286Y-83707200D01*
X139014286Y-83707200D02*
X138966667Y-83659580D01*
D10*
X138830074Y-100372419D02*
X138353884Y-100372419D01*
X138353884Y-100372419D02*
X138306265Y-100848609D01*
X138306265Y-100848609D02*
X138353884Y-100800990D01*
X138353884Y-100800990D02*
X138449122Y-100753371D01*
X138449122Y-100753371D02*
X138687217Y-100753371D01*
X138687217Y-100753371D02*
X138782455Y-100800990D01*
X138782455Y-100800990D02*
X138830074Y-100848609D01*
X138830074Y-100848609D02*
X138877693Y-100943847D01*
X138877693Y-100943847D02*
X138877693Y-101181942D01*
X138877693Y-101181942D02*
X138830074Y-101277180D01*
X138830074Y-101277180D02*
X138782455Y-101324800D01*
X138782455Y-101324800D02*
X138687217Y-101372419D01*
X138687217Y-101372419D02*
X138449122Y-101372419D01*
X138449122Y-101372419D02*
X138353884Y-101324800D01*
X138353884Y-101324800D02*
X138306265Y-101277180D01*
X139163408Y-100372419D02*
X139496741Y-101372419D01*
X139496741Y-101372419D02*
X139830074Y-100372419D01*
X138477693Y-108420038D02*
X138382455Y-108372419D01*
X138382455Y-108372419D02*
X138239598Y-108372419D01*
X138239598Y-108372419D02*
X138096741Y-108420038D01*
X138096741Y-108420038D02*
X138001503Y-108515276D01*
X138001503Y-108515276D02*
X137953884Y-108610514D01*
X137953884Y-108610514D02*
X137906265Y-108800990D01*
X137906265Y-108800990D02*
X137906265Y-108943847D01*
X137906265Y-108943847D02*
X137953884Y-109134323D01*
X137953884Y-109134323D02*
X138001503Y-109229561D01*
X138001503Y-109229561D02*
X138096741Y-109324800D01*
X138096741Y-109324800D02*
X138239598Y-109372419D01*
X138239598Y-109372419D02*
X138334836Y-109372419D01*
X138334836Y-109372419D02*
X138477693Y-109324800D01*
X138477693Y-109324800D02*
X138525312Y-109277180D01*
X138525312Y-109277180D02*
X138525312Y-108943847D01*
X138525312Y-108943847D02*
X138334836Y-108943847D01*
X138953884Y-109372419D02*
X138953884Y-108372419D01*
X138953884Y-108372419D02*
X139525312Y-109372419D01*
X139525312Y-109372419D02*
X139525312Y-108372419D01*
X140001503Y-109372419D02*
X140001503Y-108372419D01*
X140001503Y-108372419D02*
X140239598Y-108372419D01*
X140239598Y-108372419D02*
X140382455Y-108420038D01*
X140382455Y-108420038D02*
X140477693Y-108515276D01*
X140477693Y-108515276D02*
X140525312Y-108610514D01*
X140525312Y-108610514D02*
X140572931Y-108800990D01*
X140572931Y-108800990D02*
X140572931Y-108943847D01*
X140572931Y-108943847D02*
X140525312Y-109134323D01*
X140525312Y-109134323D02*
X140477693Y-109229561D01*
X140477693Y-109229561D02*
X140382455Y-109324800D01*
X140382455Y-109324800D02*
X140239598Y-109372419D01*
X140239598Y-109372419D02*
X140001503Y-109372419D01*
X137203884Y-105372419D02*
X137203884Y-104372419D01*
X137203884Y-104372419D02*
X137441979Y-104372419D01*
X137441979Y-104372419D02*
X137584836Y-104420038D01*
X137584836Y-104420038D02*
X137680074Y-104515276D01*
X137680074Y-104515276D02*
X137727693Y-104610514D01*
X137727693Y-104610514D02*
X137775312Y-104800990D01*
X137775312Y-104800990D02*
X137775312Y-104943847D01*
X137775312Y-104943847D02*
X137727693Y-105134323D01*
X137727693Y-105134323D02*
X137680074Y-105229561D01*
X137680074Y-105229561D02*
X137584836Y-105324800D01*
X137584836Y-105324800D02*
X137441979Y-105372419D01*
X137441979Y-105372419D02*
X137203884Y-105372419D01*
X138156265Y-105086704D02*
X138632455Y-105086704D01*
X138061027Y-105372419D02*
X138394360Y-104372419D01*
X138394360Y-104372419D02*
X138727693Y-105372419D01*
X138918170Y-104372419D02*
X139489598Y-104372419D01*
X139203884Y-105372419D02*
X139203884Y-104372419D01*
X139775313Y-105086704D02*
X140251503Y-105086704D01*
X139680075Y-105372419D02*
X140013408Y-104372419D01*
X140013408Y-104372419D02*
X140346741Y-105372419D01*
X141203884Y-105372419D02*
X140632456Y-105372419D01*
X140918170Y-105372419D02*
X140918170Y-104372419D01*
X140918170Y-104372419D02*
X140822932Y-104515276D01*
X140822932Y-104515276D02*
X140727694Y-104610514D01*
X140727694Y-104610514D02*
X140632456Y-104658133D01*
D11*
X167964285Y-59704819D02*
X167964285Y-60419104D01*
X167964285Y-60419104D02*
X167916666Y-60561961D01*
X167916666Y-60561961D02*
X167821428Y-60657200D01*
X167821428Y-60657200D02*
X167678571Y-60704819D01*
X167678571Y-60704819D02*
X167583333Y-60704819D01*
X168345238Y-59704819D02*
X169011904Y-59704819D01*
X169011904Y-59704819D02*
X168583333Y-60704819D01*
X169583333Y-59704819D02*
X169678571Y-59704819D01*
X169678571Y-59704819D02*
X169773809Y-59752438D01*
X169773809Y-59752438D02*
X169821428Y-59800057D01*
X169821428Y-59800057D02*
X169869047Y-59895295D01*
X169869047Y-59895295D02*
X169916666Y-60085771D01*
X169916666Y-60085771D02*
X169916666Y-60323866D01*
X169916666Y-60323866D02*
X169869047Y-60514342D01*
X169869047Y-60514342D02*
X169821428Y-60609580D01*
X169821428Y-60609580D02*
X169773809Y-60657200D01*
X169773809Y-60657200D02*
X169678571Y-60704819D01*
X169678571Y-60704819D02*
X169583333Y-60704819D01*
X169583333Y-60704819D02*
X169488095Y-60657200D01*
X169488095Y-60657200D02*
X169440476Y-60609580D01*
X169440476Y-60609580D02*
X169392857Y-60514342D01*
X169392857Y-60514342D02*
X169345238Y-60323866D01*
X169345238Y-60323866D02*
X169345238Y-60085771D01*
X169345238Y-60085771D02*
X169392857Y-59895295D01*
X169392857Y-59895295D02*
X169440476Y-59800057D01*
X169440476Y-59800057D02*
X169488095Y-59752438D01*
X169488095Y-59752438D02*
X169583333Y-59704819D01*
X170250000Y-59704819D02*
X170869047Y-59704819D01*
X170869047Y-59704819D02*
X170535714Y-60085771D01*
X170535714Y-60085771D02*
X170678571Y-60085771D01*
X170678571Y-60085771D02*
X170773809Y-60133390D01*
X170773809Y-60133390D02*
X170821428Y-60181009D01*
X170821428Y-60181009D02*
X170869047Y-60276247D01*
X170869047Y-60276247D02*
X170869047Y-60514342D01*
X170869047Y-60514342D02*
X170821428Y-60609580D01*
X170821428Y-60609580D02*
X170773809Y-60657200D01*
X170773809Y-60657200D02*
X170678571Y-60704819D01*
X170678571Y-60704819D02*
X170392857Y-60704819D01*
X170392857Y-60704819D02*
X170297619Y-60657200D01*
X170297619Y-60657200D02*
X170250000Y-60609580D01*
X146883452Y-122924819D02*
X146550119Y-122448628D01*
X146312024Y-122924819D02*
X146312024Y-121924819D01*
X146312024Y-121924819D02*
X146692976Y-121924819D01*
X146692976Y-121924819D02*
X146788214Y-121972438D01*
X146788214Y-121972438D02*
X146835833Y-122020057D01*
X146835833Y-122020057D02*
X146883452Y-122115295D01*
X146883452Y-122115295D02*
X146883452Y-122258152D01*
X146883452Y-122258152D02*
X146835833Y-122353390D01*
X146835833Y-122353390D02*
X146788214Y-122401009D01*
X146788214Y-122401009D02*
X146692976Y-122448628D01*
X146692976Y-122448628D02*
X146312024Y-122448628D01*
X147216786Y-121924819D02*
X147883452Y-121924819D01*
X147883452Y-121924819D02*
X147454881Y-122924819D01*
X148788214Y-122924819D02*
X148216786Y-122924819D01*
X148502500Y-122924819D02*
X148502500Y-121924819D01*
X148502500Y-121924819D02*
X148407262Y-122067676D01*
X148407262Y-122067676D02*
X148312024Y-122162914D01*
X148312024Y-122162914D02*
X148216786Y-122210533D01*
X149692976Y-121924819D02*
X149216786Y-121924819D01*
X149216786Y-121924819D02*
X149169167Y-122401009D01*
X149169167Y-122401009D02*
X149216786Y-122353390D01*
X149216786Y-122353390D02*
X149312024Y-122305771D01*
X149312024Y-122305771D02*
X149550119Y-122305771D01*
X149550119Y-122305771D02*
X149645357Y-122353390D01*
X149645357Y-122353390D02*
X149692976Y-122401009D01*
X149692976Y-122401009D02*
X149740595Y-122496247D01*
X149740595Y-122496247D02*
X149740595Y-122734342D01*
X149740595Y-122734342D02*
X149692976Y-122829580D01*
X149692976Y-122829580D02*
X149645357Y-122877200D01*
X149645357Y-122877200D02*
X149550119Y-122924819D01*
X149550119Y-122924819D02*
X149312024Y-122924819D01*
X149312024Y-122924819D02*
X149216786Y-122877200D01*
X149216786Y-122877200D02*
X149169167Y-122829580D01*
X138859580Y-76119047D02*
X138907200Y-76166666D01*
X138907200Y-76166666D02*
X138954819Y-76309523D01*
X138954819Y-76309523D02*
X138954819Y-76404761D01*
X138954819Y-76404761D02*
X138907200Y-76547618D01*
X138907200Y-76547618D02*
X138811961Y-76642856D01*
X138811961Y-76642856D02*
X138716723Y-76690475D01*
X138716723Y-76690475D02*
X138526247Y-76738094D01*
X138526247Y-76738094D02*
X138383390Y-76738094D01*
X138383390Y-76738094D02*
X138192914Y-76690475D01*
X138192914Y-76690475D02*
X138097676Y-76642856D01*
X138097676Y-76642856D02*
X138002438Y-76547618D01*
X138002438Y-76547618D02*
X137954819Y-76404761D01*
X137954819Y-76404761D02*
X137954819Y-76309523D01*
X137954819Y-76309523D02*
X138002438Y-76166666D01*
X138002438Y-76166666D02*
X138050057Y-76119047D01*
X137954819Y-75785713D02*
X137954819Y-75119047D01*
X137954819Y-75119047D02*
X138954819Y-75547618D01*
X138954819Y-74214285D02*
X138954819Y-74785713D01*
X138954819Y-74499999D02*
X137954819Y-74499999D01*
X137954819Y-74499999D02*
X138097676Y-74595237D01*
X138097676Y-74595237D02*
X138192914Y-74690475D01*
X138192914Y-74690475D02*
X138240533Y-74785713D01*
X137954819Y-73595237D02*
X137954819Y-73499999D01*
X137954819Y-73499999D02*
X138002438Y-73404761D01*
X138002438Y-73404761D02*
X138050057Y-73357142D01*
X138050057Y-73357142D02*
X138145295Y-73309523D01*
X138145295Y-73309523D02*
X138335771Y-73261904D01*
X138335771Y-73261904D02*
X138573866Y-73261904D01*
X138573866Y-73261904D02*
X138764342Y-73309523D01*
X138764342Y-73309523D02*
X138859580Y-73357142D01*
X138859580Y-73357142D02*
X138907200Y-73404761D01*
X138907200Y-73404761D02*
X138954819Y-73499999D01*
X138954819Y-73499999D02*
X138954819Y-73595237D01*
X138954819Y-73595237D02*
X138907200Y-73690475D01*
X138907200Y-73690475D02*
X138859580Y-73738094D01*
X138859580Y-73738094D02*
X138764342Y-73785713D01*
X138764342Y-73785713D02*
X138573866Y-73833332D01*
X138573866Y-73833332D02*
X138335771Y-73833332D01*
X138335771Y-73833332D02*
X138145295Y-73785713D01*
X138145295Y-73785713D02*
X138050057Y-73738094D01*
X138050057Y-73738094D02*
X138002438Y-73690475D01*
X138002438Y-73690475D02*
X137954819Y-73595237D01*
X147459580Y-93119047D02*
X147507200Y-93166666D01*
X147507200Y-93166666D02*
X147554819Y-93309523D01*
X147554819Y-93309523D02*
X147554819Y-93404761D01*
X147554819Y-93404761D02*
X147507200Y-93547618D01*
X147507200Y-93547618D02*
X147411961Y-93642856D01*
X147411961Y-93642856D02*
X147316723Y-93690475D01*
X147316723Y-93690475D02*
X147126247Y-93738094D01*
X147126247Y-93738094D02*
X146983390Y-93738094D01*
X146983390Y-93738094D02*
X146792914Y-93690475D01*
X146792914Y-93690475D02*
X146697676Y-93642856D01*
X146697676Y-93642856D02*
X146602438Y-93547618D01*
X146602438Y-93547618D02*
X146554819Y-93404761D01*
X146554819Y-93404761D02*
X146554819Y-93309523D01*
X146554819Y-93309523D02*
X146602438Y-93166666D01*
X146602438Y-93166666D02*
X146650057Y-93119047D01*
X146554819Y-92785713D02*
X146554819Y-92119047D01*
X146554819Y-92119047D02*
X147554819Y-92547618D01*
X147554819Y-91214285D02*
X147554819Y-91785713D01*
X147554819Y-91499999D02*
X146554819Y-91499999D01*
X146554819Y-91499999D02*
X146697676Y-91595237D01*
X146697676Y-91595237D02*
X146792914Y-91690475D01*
X146792914Y-91690475D02*
X146840533Y-91785713D01*
X146554819Y-90880951D02*
X146554819Y-90214285D01*
X146554819Y-90214285D02*
X147554819Y-90642856D01*
X136761904Y-52831009D02*
X136904761Y-52878628D01*
X136904761Y-52878628D02*
X136952380Y-52926247D01*
X136952380Y-52926247D02*
X136999999Y-53021485D01*
X136999999Y-53021485D02*
X136999999Y-53164342D01*
X136999999Y-53164342D02*
X136952380Y-53259580D01*
X136952380Y-53259580D02*
X136904761Y-53307200D01*
X136904761Y-53307200D02*
X136809523Y-53354819D01*
X136809523Y-53354819D02*
X136428571Y-53354819D01*
X136428571Y-53354819D02*
X136428571Y-52354819D01*
X136428571Y-52354819D02*
X136761904Y-52354819D01*
X136761904Y-52354819D02*
X136857142Y-52402438D01*
X136857142Y-52402438D02*
X136904761Y-52450057D01*
X136904761Y-52450057D02*
X136952380Y-52545295D01*
X136952380Y-52545295D02*
X136952380Y-52640533D01*
X136952380Y-52640533D02*
X136904761Y-52735771D01*
X136904761Y-52735771D02*
X136857142Y-52783390D01*
X136857142Y-52783390D02*
X136761904Y-52831009D01*
X136761904Y-52831009D02*
X136428571Y-52831009D01*
X137285714Y-52354819D02*
X137857142Y-52354819D01*
X137571428Y-53354819D02*
X137571428Y-52354819D01*
X138095238Y-52354819D02*
X138761904Y-52354819D01*
X138761904Y-52354819D02*
X138333333Y-53354819D01*
X139333333Y-52354819D02*
X139428571Y-52354819D01*
X139428571Y-52354819D02*
X139523809Y-52402438D01*
X139523809Y-52402438D02*
X139571428Y-52450057D01*
X139571428Y-52450057D02*
X139619047Y-52545295D01*
X139619047Y-52545295D02*
X139666666Y-52735771D01*
X139666666Y-52735771D02*
X139666666Y-52973866D01*
X139666666Y-52973866D02*
X139619047Y-53164342D01*
X139619047Y-53164342D02*
X139571428Y-53259580D01*
X139571428Y-53259580D02*
X139523809Y-53307200D01*
X139523809Y-53307200D02*
X139428571Y-53354819D01*
X139428571Y-53354819D02*
X139333333Y-53354819D01*
X139333333Y-53354819D02*
X139238095Y-53307200D01*
X139238095Y-53307200D02*
X139190476Y-53259580D01*
X139190476Y-53259580D02*
X139142857Y-53164342D01*
X139142857Y-53164342D02*
X139095238Y-52973866D01*
X139095238Y-52973866D02*
X139095238Y-52735771D01*
X139095238Y-52735771D02*
X139142857Y-52545295D01*
X139142857Y-52545295D02*
X139190476Y-52450057D01*
X139190476Y-52450057D02*
X139238095Y-52402438D01*
X139238095Y-52402438D02*
X139333333Y-52354819D01*
X140047619Y-52450057D02*
X140095238Y-52402438D01*
X140095238Y-52402438D02*
X140190476Y-52354819D01*
X140190476Y-52354819D02*
X140428571Y-52354819D01*
X140428571Y-52354819D02*
X140523809Y-52402438D01*
X140523809Y-52402438D02*
X140571428Y-52450057D01*
X140571428Y-52450057D02*
X140619047Y-52545295D01*
X140619047Y-52545295D02*
X140619047Y-52640533D01*
X140619047Y-52640533D02*
X140571428Y-52783390D01*
X140571428Y-52783390D02*
X140000000Y-53354819D01*
X140000000Y-53354819D02*
X140619047Y-53354819D01*
X149409580Y-93269047D02*
X149457200Y-93316666D01*
X149457200Y-93316666D02*
X149504819Y-93459523D01*
X149504819Y-93459523D02*
X149504819Y-93554761D01*
X149504819Y-93554761D02*
X149457200Y-93697618D01*
X149457200Y-93697618D02*
X149361961Y-93792856D01*
X149361961Y-93792856D02*
X149266723Y-93840475D01*
X149266723Y-93840475D02*
X149076247Y-93888094D01*
X149076247Y-93888094D02*
X148933390Y-93888094D01*
X148933390Y-93888094D02*
X148742914Y-93840475D01*
X148742914Y-93840475D02*
X148647676Y-93792856D01*
X148647676Y-93792856D02*
X148552438Y-93697618D01*
X148552438Y-93697618D02*
X148504819Y-93554761D01*
X148504819Y-93554761D02*
X148504819Y-93459523D01*
X148504819Y-93459523D02*
X148552438Y-93316666D01*
X148552438Y-93316666D02*
X148600057Y-93269047D01*
X148504819Y-92935713D02*
X148504819Y-92269047D01*
X148504819Y-92269047D02*
X149504819Y-92697618D01*
X149504819Y-91364285D02*
X149504819Y-91935713D01*
X149504819Y-91649999D02*
X148504819Y-91649999D01*
X148504819Y-91649999D02*
X148647676Y-91745237D01*
X148647676Y-91745237D02*
X148742914Y-91840475D01*
X148742914Y-91840475D02*
X148790533Y-91935713D01*
X149504819Y-90888094D02*
X149504819Y-90697618D01*
X149504819Y-90697618D02*
X149457200Y-90602380D01*
X149457200Y-90602380D02*
X149409580Y-90554761D01*
X149409580Y-90554761D02*
X149266723Y-90459523D01*
X149266723Y-90459523D02*
X149076247Y-90411904D01*
X149076247Y-90411904D02*
X148695295Y-90411904D01*
X148695295Y-90411904D02*
X148600057Y-90459523D01*
X148600057Y-90459523D02*
X148552438Y-90507142D01*
X148552438Y-90507142D02*
X148504819Y-90602380D01*
X148504819Y-90602380D02*
X148504819Y-90792856D01*
X148504819Y-90792856D02*
X148552438Y-90888094D01*
X148552438Y-90888094D02*
X148600057Y-90935713D01*
X148600057Y-90935713D02*
X148695295Y-90983332D01*
X148695295Y-90983332D02*
X148933390Y-90983332D01*
X148933390Y-90983332D02*
X149028628Y-90935713D01*
X149028628Y-90935713D02*
X149076247Y-90888094D01*
X149076247Y-90888094D02*
X149123866Y-90792856D01*
X149123866Y-90792856D02*
X149123866Y-90602380D01*
X149123866Y-90602380D02*
X149076247Y-90507142D01*
X149076247Y-90507142D02*
X149028628Y-90459523D01*
X149028628Y-90459523D02*
X148933390Y-90411904D01*
X145859580Y-96869047D02*
X145907200Y-96916666D01*
X145907200Y-96916666D02*
X145954819Y-97059523D01*
X145954819Y-97059523D02*
X145954819Y-97154761D01*
X145954819Y-97154761D02*
X145907200Y-97297618D01*
X145907200Y-97297618D02*
X145811961Y-97392856D01*
X145811961Y-97392856D02*
X145716723Y-97440475D01*
X145716723Y-97440475D02*
X145526247Y-97488094D01*
X145526247Y-97488094D02*
X145383390Y-97488094D01*
X145383390Y-97488094D02*
X145192914Y-97440475D01*
X145192914Y-97440475D02*
X145097676Y-97392856D01*
X145097676Y-97392856D02*
X145002438Y-97297618D01*
X145002438Y-97297618D02*
X144954819Y-97154761D01*
X144954819Y-97154761D02*
X144954819Y-97059523D01*
X144954819Y-97059523D02*
X145002438Y-96916666D01*
X145002438Y-96916666D02*
X145050057Y-96869047D01*
X144954819Y-96535713D02*
X144954819Y-95869047D01*
X144954819Y-95869047D02*
X145954819Y-96297618D01*
X145954819Y-94964285D02*
X145954819Y-95535713D01*
X145954819Y-95249999D02*
X144954819Y-95249999D01*
X144954819Y-95249999D02*
X145097676Y-95345237D01*
X145097676Y-95345237D02*
X145192914Y-95440475D01*
X145192914Y-95440475D02*
X145240533Y-95535713D01*
X145383390Y-94392856D02*
X145335771Y-94488094D01*
X145335771Y-94488094D02*
X145288152Y-94535713D01*
X145288152Y-94535713D02*
X145192914Y-94583332D01*
X145192914Y-94583332D02*
X145145295Y-94583332D01*
X145145295Y-94583332D02*
X145050057Y-94535713D01*
X145050057Y-94535713D02*
X145002438Y-94488094D01*
X145002438Y-94488094D02*
X144954819Y-94392856D01*
X144954819Y-94392856D02*
X144954819Y-94202380D01*
X144954819Y-94202380D02*
X145002438Y-94107142D01*
X145002438Y-94107142D02*
X145050057Y-94059523D01*
X145050057Y-94059523D02*
X145145295Y-94011904D01*
X145145295Y-94011904D02*
X145192914Y-94011904D01*
X145192914Y-94011904D02*
X145288152Y-94059523D01*
X145288152Y-94059523D02*
X145335771Y-94107142D01*
X145335771Y-94107142D02*
X145383390Y-94202380D01*
X145383390Y-94202380D02*
X145383390Y-94392856D01*
X145383390Y-94392856D02*
X145431009Y-94488094D01*
X145431009Y-94488094D02*
X145478628Y-94535713D01*
X145478628Y-94535713D02*
X145573866Y-94583332D01*
X145573866Y-94583332D02*
X145764342Y-94583332D01*
X145764342Y-94583332D02*
X145859580Y-94535713D01*
X145859580Y-94535713D02*
X145907200Y-94488094D01*
X145907200Y-94488094D02*
X145954819Y-94392856D01*
X145954819Y-94392856D02*
X145954819Y-94202380D01*
X145954819Y-94202380D02*
X145907200Y-94107142D01*
X145907200Y-94107142D02*
X145859580Y-94059523D01*
X145859580Y-94059523D02*
X145764342Y-94011904D01*
X145764342Y-94011904D02*
X145573866Y-94011904D01*
X145573866Y-94011904D02*
X145478628Y-94059523D01*
X145478628Y-94059523D02*
X145431009Y-94107142D01*
X145431009Y-94107142D02*
X145383390Y-94202380D01*
X126714285Y-149654819D02*
X126714285Y-150369104D01*
X126714285Y-150369104D02*
X126666666Y-150511961D01*
X126666666Y-150511961D02*
X126571428Y-150607200D01*
X126571428Y-150607200D02*
X126428571Y-150654819D01*
X126428571Y-150654819D02*
X126333333Y-150654819D01*
X127095238Y-149654819D02*
X127761904Y-149654819D01*
X127761904Y-149654819D02*
X127333333Y-150654819D01*
X128333333Y-149654819D02*
X128428571Y-149654819D01*
X128428571Y-149654819D02*
X128523809Y-149702438D01*
X128523809Y-149702438D02*
X128571428Y-149750057D01*
X128571428Y-149750057D02*
X128619047Y-149845295D01*
X128619047Y-149845295D02*
X128666666Y-150035771D01*
X128666666Y-150035771D02*
X128666666Y-150273866D01*
X128666666Y-150273866D02*
X128619047Y-150464342D01*
X128619047Y-150464342D02*
X128571428Y-150559580D01*
X128571428Y-150559580D02*
X128523809Y-150607200D01*
X128523809Y-150607200D02*
X128428571Y-150654819D01*
X128428571Y-150654819D02*
X128333333Y-150654819D01*
X128333333Y-150654819D02*
X128238095Y-150607200D01*
X128238095Y-150607200D02*
X128190476Y-150559580D01*
X128190476Y-150559580D02*
X128142857Y-150464342D01*
X128142857Y-150464342D02*
X128095238Y-150273866D01*
X128095238Y-150273866D02*
X128095238Y-150035771D01*
X128095238Y-150035771D02*
X128142857Y-149845295D01*
X128142857Y-149845295D02*
X128190476Y-149750057D01*
X128190476Y-149750057D02*
X128238095Y-149702438D01*
X128238095Y-149702438D02*
X128333333Y-149654819D01*
X129142857Y-150654819D02*
X129333333Y-150654819D01*
X129333333Y-150654819D02*
X129428571Y-150607200D01*
X129428571Y-150607200D02*
X129476190Y-150559580D01*
X129476190Y-150559580D02*
X129571428Y-150416723D01*
X129571428Y-150416723D02*
X129619047Y-150226247D01*
X129619047Y-150226247D02*
X129619047Y-149845295D01*
X129619047Y-149845295D02*
X129571428Y-149750057D01*
X129571428Y-149750057D02*
X129523809Y-149702438D01*
X129523809Y-149702438D02*
X129428571Y-149654819D01*
X129428571Y-149654819D02*
X129238095Y-149654819D01*
X129238095Y-149654819D02*
X129142857Y-149702438D01*
X129142857Y-149702438D02*
X129095238Y-149750057D01*
X129095238Y-149750057D02*
X129047619Y-149845295D01*
X129047619Y-149845295D02*
X129047619Y-150083390D01*
X129047619Y-150083390D02*
X129095238Y-150178628D01*
X129095238Y-150178628D02*
X129142857Y-150226247D01*
X129142857Y-150226247D02*
X129238095Y-150273866D01*
X129238095Y-150273866D02*
X129428571Y-150273866D01*
X129428571Y-150273866D02*
X129523809Y-150226247D01*
X129523809Y-150226247D02*
X129571428Y-150178628D01*
X129571428Y-150178628D02*
X129619047Y-150083390D01*
X155859580Y-146219047D02*
X155907200Y-146266666D01*
X155907200Y-146266666D02*
X155954819Y-146409523D01*
X155954819Y-146409523D02*
X155954819Y-146504761D01*
X155954819Y-146504761D02*
X155907200Y-146647618D01*
X155907200Y-146647618D02*
X155811961Y-146742856D01*
X155811961Y-146742856D02*
X155716723Y-146790475D01*
X155716723Y-146790475D02*
X155526247Y-146838094D01*
X155526247Y-146838094D02*
X155383390Y-146838094D01*
X155383390Y-146838094D02*
X155192914Y-146790475D01*
X155192914Y-146790475D02*
X155097676Y-146742856D01*
X155097676Y-146742856D02*
X155002438Y-146647618D01*
X155002438Y-146647618D02*
X154954819Y-146504761D01*
X154954819Y-146504761D02*
X154954819Y-146409523D01*
X154954819Y-146409523D02*
X155002438Y-146266666D01*
X155002438Y-146266666D02*
X155050057Y-146219047D01*
X154954819Y-145885713D02*
X154954819Y-145219047D01*
X154954819Y-145219047D02*
X155954819Y-145647618D01*
X154954819Y-144647618D02*
X154954819Y-144552380D01*
X154954819Y-144552380D02*
X155002438Y-144457142D01*
X155002438Y-144457142D02*
X155050057Y-144409523D01*
X155050057Y-144409523D02*
X155145295Y-144361904D01*
X155145295Y-144361904D02*
X155335771Y-144314285D01*
X155335771Y-144314285D02*
X155573866Y-144314285D01*
X155573866Y-144314285D02*
X155764342Y-144361904D01*
X155764342Y-144361904D02*
X155859580Y-144409523D01*
X155859580Y-144409523D02*
X155907200Y-144457142D01*
X155907200Y-144457142D02*
X155954819Y-144552380D01*
X155954819Y-144552380D02*
X155954819Y-144647618D01*
X155954819Y-144647618D02*
X155907200Y-144742856D01*
X155907200Y-144742856D02*
X155859580Y-144790475D01*
X155859580Y-144790475D02*
X155764342Y-144838094D01*
X155764342Y-144838094D02*
X155573866Y-144885713D01*
X155573866Y-144885713D02*
X155335771Y-144885713D01*
X155335771Y-144885713D02*
X155145295Y-144838094D01*
X155145295Y-144838094D02*
X155050057Y-144790475D01*
X155050057Y-144790475D02*
X155002438Y-144742856D01*
X155002438Y-144742856D02*
X154954819Y-144647618D01*
X155954819Y-143838094D02*
X155954819Y-143647618D01*
X155954819Y-143647618D02*
X155907200Y-143552380D01*
X155907200Y-143552380D02*
X155859580Y-143504761D01*
X155859580Y-143504761D02*
X155716723Y-143409523D01*
X155716723Y-143409523D02*
X155526247Y-143361904D01*
X155526247Y-143361904D02*
X155145295Y-143361904D01*
X155145295Y-143361904D02*
X155050057Y-143409523D01*
X155050057Y-143409523D02*
X155002438Y-143457142D01*
X155002438Y-143457142D02*
X154954819Y-143552380D01*
X154954819Y-143552380D02*
X154954819Y-143742856D01*
X154954819Y-143742856D02*
X155002438Y-143838094D01*
X155002438Y-143838094D02*
X155050057Y-143885713D01*
X155050057Y-143885713D02*
X155145295Y-143933332D01*
X155145295Y-143933332D02*
X155383390Y-143933332D01*
X155383390Y-143933332D02*
X155478628Y-143885713D01*
X155478628Y-143885713D02*
X155526247Y-143838094D01*
X155526247Y-143838094D02*
X155573866Y-143742856D01*
X155573866Y-143742856D02*
X155573866Y-143552380D01*
X155573866Y-143552380D02*
X155526247Y-143457142D01*
X155526247Y-143457142D02*
X155478628Y-143409523D01*
X155478628Y-143409523D02*
X155383390Y-143361904D01*
X157584819Y-142019047D02*
X157584819Y-142495237D01*
X157584819Y-142495237D02*
X156584819Y-142495237D01*
X156584819Y-141780951D02*
X156584819Y-141114285D01*
X156584819Y-141114285D02*
X157584819Y-141542856D01*
X156584819Y-140542856D02*
X156584819Y-140447618D01*
X156584819Y-140447618D02*
X156632438Y-140352380D01*
X156632438Y-140352380D02*
X156680057Y-140304761D01*
X156680057Y-140304761D02*
X156775295Y-140257142D01*
X156775295Y-140257142D02*
X156965771Y-140209523D01*
X156965771Y-140209523D02*
X157203866Y-140209523D01*
X157203866Y-140209523D02*
X157394342Y-140257142D01*
X157394342Y-140257142D02*
X157489580Y-140304761D01*
X157489580Y-140304761D02*
X157537200Y-140352380D01*
X157537200Y-140352380D02*
X157584819Y-140447618D01*
X157584819Y-140447618D02*
X157584819Y-140542856D01*
X157584819Y-140542856D02*
X157537200Y-140638094D01*
X157537200Y-140638094D02*
X157489580Y-140685713D01*
X157489580Y-140685713D02*
X157394342Y-140733332D01*
X157394342Y-140733332D02*
X157203866Y-140780951D01*
X157203866Y-140780951D02*
X156965771Y-140780951D01*
X156965771Y-140780951D02*
X156775295Y-140733332D01*
X156775295Y-140733332D02*
X156680057Y-140685713D01*
X156680057Y-140685713D02*
X156632438Y-140638094D01*
X156632438Y-140638094D02*
X156584819Y-140542856D01*
X156680057Y-139828570D02*
X156632438Y-139780951D01*
X156632438Y-139780951D02*
X156584819Y-139685713D01*
X156584819Y-139685713D02*
X156584819Y-139447618D01*
X156584819Y-139447618D02*
X156632438Y-139352380D01*
X156632438Y-139352380D02*
X156680057Y-139304761D01*
X156680057Y-139304761D02*
X156775295Y-139257142D01*
X156775295Y-139257142D02*
X156870533Y-139257142D01*
X156870533Y-139257142D02*
X157013390Y-139304761D01*
X157013390Y-139304761D02*
X157584819Y-139876189D01*
X157584819Y-139876189D02*
X157584819Y-139257142D01*
X164514285Y-160654819D02*
X164514285Y-161369104D01*
X164514285Y-161369104D02*
X164466666Y-161511961D01*
X164466666Y-161511961D02*
X164371428Y-161607200D01*
X164371428Y-161607200D02*
X164228571Y-161654819D01*
X164228571Y-161654819D02*
X164133333Y-161654819D01*
X164895238Y-160654819D02*
X165561904Y-160654819D01*
X165561904Y-160654819D02*
X165133333Y-161654819D01*
X166133333Y-160654819D02*
X166228571Y-160654819D01*
X166228571Y-160654819D02*
X166323809Y-160702438D01*
X166323809Y-160702438D02*
X166371428Y-160750057D01*
X166371428Y-160750057D02*
X166419047Y-160845295D01*
X166419047Y-160845295D02*
X166466666Y-161035771D01*
X166466666Y-161035771D02*
X166466666Y-161273866D01*
X166466666Y-161273866D02*
X166419047Y-161464342D01*
X166419047Y-161464342D02*
X166371428Y-161559580D01*
X166371428Y-161559580D02*
X166323809Y-161607200D01*
X166323809Y-161607200D02*
X166228571Y-161654819D01*
X166228571Y-161654819D02*
X166133333Y-161654819D01*
X166133333Y-161654819D02*
X166038095Y-161607200D01*
X166038095Y-161607200D02*
X165990476Y-161559580D01*
X165990476Y-161559580D02*
X165942857Y-161464342D01*
X165942857Y-161464342D02*
X165895238Y-161273866D01*
X165895238Y-161273866D02*
X165895238Y-161035771D01*
X165895238Y-161035771D02*
X165942857Y-160845295D01*
X165942857Y-160845295D02*
X165990476Y-160750057D01*
X165990476Y-160750057D02*
X166038095Y-160702438D01*
X166038095Y-160702438D02*
X166133333Y-160654819D01*
X167419047Y-161654819D02*
X166847619Y-161654819D01*
X167133333Y-161654819D02*
X167133333Y-160654819D01*
X167133333Y-160654819D02*
X167038095Y-160797676D01*
X167038095Y-160797676D02*
X166942857Y-160892914D01*
X166942857Y-160892914D02*
X166847619Y-160940533D01*
X143454819Y-150419047D02*
X142978628Y-150752380D01*
X143454819Y-150990475D02*
X142454819Y-150990475D01*
X142454819Y-150990475D02*
X142454819Y-150609523D01*
X142454819Y-150609523D02*
X142502438Y-150514285D01*
X142502438Y-150514285D02*
X142550057Y-150466666D01*
X142550057Y-150466666D02*
X142645295Y-150419047D01*
X142645295Y-150419047D02*
X142788152Y-150419047D01*
X142788152Y-150419047D02*
X142883390Y-150466666D01*
X142883390Y-150466666D02*
X142931009Y-150514285D01*
X142931009Y-150514285D02*
X142978628Y-150609523D01*
X142978628Y-150609523D02*
X142978628Y-150990475D01*
X142454819Y-150085713D02*
X142454819Y-149419047D01*
X142454819Y-149419047D02*
X143454819Y-149847618D01*
X142454819Y-148847618D02*
X142454819Y-148752380D01*
X142454819Y-148752380D02*
X142502438Y-148657142D01*
X142502438Y-148657142D02*
X142550057Y-148609523D01*
X142550057Y-148609523D02*
X142645295Y-148561904D01*
X142645295Y-148561904D02*
X142835771Y-148514285D01*
X142835771Y-148514285D02*
X143073866Y-148514285D01*
X143073866Y-148514285D02*
X143264342Y-148561904D01*
X143264342Y-148561904D02*
X143359580Y-148609523D01*
X143359580Y-148609523D02*
X143407200Y-148657142D01*
X143407200Y-148657142D02*
X143454819Y-148752380D01*
X143454819Y-148752380D02*
X143454819Y-148847618D01*
X143454819Y-148847618D02*
X143407200Y-148942856D01*
X143407200Y-148942856D02*
X143359580Y-148990475D01*
X143359580Y-148990475D02*
X143264342Y-149038094D01*
X143264342Y-149038094D02*
X143073866Y-149085713D01*
X143073866Y-149085713D02*
X142835771Y-149085713D01*
X142835771Y-149085713D02*
X142645295Y-149038094D01*
X142645295Y-149038094D02*
X142550057Y-148990475D01*
X142550057Y-148990475D02*
X142502438Y-148942856D01*
X142502438Y-148942856D02*
X142454819Y-148847618D01*
X142454819Y-148180951D02*
X142454819Y-147561904D01*
X142454819Y-147561904D02*
X142835771Y-147895237D01*
X142835771Y-147895237D02*
X142835771Y-147752380D01*
X142835771Y-147752380D02*
X142883390Y-147657142D01*
X142883390Y-147657142D02*
X142931009Y-147609523D01*
X142931009Y-147609523D02*
X143026247Y-147561904D01*
X143026247Y-147561904D02*
X143264342Y-147561904D01*
X143264342Y-147561904D02*
X143359580Y-147609523D01*
X143359580Y-147609523D02*
X143407200Y-147657142D01*
X143407200Y-147657142D02*
X143454819Y-147752380D01*
X143454819Y-147752380D02*
X143454819Y-148038094D01*
X143454819Y-148038094D02*
X143407200Y-148133332D01*
X143407200Y-148133332D02*
X143359580Y-148180951D01*
X149130952Y-71404819D02*
X148797619Y-70928628D01*
X148559524Y-71404819D02*
X148559524Y-70404819D01*
X148559524Y-70404819D02*
X148940476Y-70404819D01*
X148940476Y-70404819D02*
X149035714Y-70452438D01*
X149035714Y-70452438D02*
X149083333Y-70500057D01*
X149083333Y-70500057D02*
X149130952Y-70595295D01*
X149130952Y-70595295D02*
X149130952Y-70738152D01*
X149130952Y-70738152D02*
X149083333Y-70833390D01*
X149083333Y-70833390D02*
X149035714Y-70881009D01*
X149035714Y-70881009D02*
X148940476Y-70928628D01*
X148940476Y-70928628D02*
X148559524Y-70928628D01*
X149464286Y-70404819D02*
X150130952Y-70404819D01*
X150130952Y-70404819D02*
X149702381Y-71404819D01*
X151035714Y-71404819D02*
X150464286Y-71404819D01*
X150750000Y-71404819D02*
X150750000Y-70404819D01*
X150750000Y-70404819D02*
X150654762Y-70547676D01*
X150654762Y-70547676D02*
X150559524Y-70642914D01*
X150559524Y-70642914D02*
X150464286Y-70690533D01*
X151988095Y-71404819D02*
X151416667Y-71404819D01*
X151702381Y-71404819D02*
X151702381Y-70404819D01*
X151702381Y-70404819D02*
X151607143Y-70547676D01*
X151607143Y-70547676D02*
X151511905Y-70642914D01*
X151511905Y-70642914D02*
X151416667Y-70690533D01*
X132054819Y-79389285D02*
X132864342Y-79389285D01*
X132864342Y-79389285D02*
X132959580Y-79341666D01*
X132959580Y-79341666D02*
X133007200Y-79294047D01*
X133007200Y-79294047D02*
X133054819Y-79198809D01*
X133054819Y-79198809D02*
X133054819Y-79008333D01*
X133054819Y-79008333D02*
X133007200Y-78913095D01*
X133007200Y-78913095D02*
X132959580Y-78865476D01*
X132959580Y-78865476D02*
X132864342Y-78817857D01*
X132864342Y-78817857D02*
X132054819Y-78817857D01*
X132054819Y-78436904D02*
X132054819Y-77770238D01*
X132054819Y-77770238D02*
X133054819Y-78198809D01*
X132054819Y-77198809D02*
X132054819Y-77103571D01*
X132054819Y-77103571D02*
X132102438Y-77008333D01*
X132102438Y-77008333D02*
X132150057Y-76960714D01*
X132150057Y-76960714D02*
X132245295Y-76913095D01*
X132245295Y-76913095D02*
X132435771Y-76865476D01*
X132435771Y-76865476D02*
X132673866Y-76865476D01*
X132673866Y-76865476D02*
X132864342Y-76913095D01*
X132864342Y-76913095D02*
X132959580Y-76960714D01*
X132959580Y-76960714D02*
X133007200Y-77008333D01*
X133007200Y-77008333D02*
X133054819Y-77103571D01*
X133054819Y-77103571D02*
X133054819Y-77198809D01*
X133054819Y-77198809D02*
X133007200Y-77294047D01*
X133007200Y-77294047D02*
X132959580Y-77341666D01*
X132959580Y-77341666D02*
X132864342Y-77389285D01*
X132864342Y-77389285D02*
X132673866Y-77436904D01*
X132673866Y-77436904D02*
X132435771Y-77436904D01*
X132435771Y-77436904D02*
X132245295Y-77389285D01*
X132245295Y-77389285D02*
X132150057Y-77341666D01*
X132150057Y-77341666D02*
X132102438Y-77294047D01*
X132102438Y-77294047D02*
X132054819Y-77198809D01*
X133054819Y-75913095D02*
X133054819Y-76484523D01*
X133054819Y-76198809D02*
X132054819Y-76198809D01*
X132054819Y-76198809D02*
X132197676Y-76294047D01*
X132197676Y-76294047D02*
X132292914Y-76389285D01*
X132292914Y-76389285D02*
X132340533Y-76484523D01*
X151980952Y-57754819D02*
X151647619Y-57278628D01*
X151409524Y-57754819D02*
X151409524Y-56754819D01*
X151409524Y-56754819D02*
X151790476Y-56754819D01*
X151790476Y-56754819D02*
X151885714Y-56802438D01*
X151885714Y-56802438D02*
X151933333Y-56850057D01*
X151933333Y-56850057D02*
X151980952Y-56945295D01*
X151980952Y-56945295D02*
X151980952Y-57088152D01*
X151980952Y-57088152D02*
X151933333Y-57183390D01*
X151933333Y-57183390D02*
X151885714Y-57231009D01*
X151885714Y-57231009D02*
X151790476Y-57278628D01*
X151790476Y-57278628D02*
X151409524Y-57278628D01*
X152314286Y-56754819D02*
X152980952Y-56754819D01*
X152980952Y-56754819D02*
X152552381Y-57754819D01*
X153885714Y-57754819D02*
X153314286Y-57754819D01*
X153600000Y-57754819D02*
X153600000Y-56754819D01*
X153600000Y-56754819D02*
X153504762Y-56897676D01*
X153504762Y-56897676D02*
X153409524Y-56992914D01*
X153409524Y-56992914D02*
X153314286Y-57040533D01*
X154219048Y-56754819D02*
X154838095Y-56754819D01*
X154838095Y-56754819D02*
X154504762Y-57135771D01*
X154504762Y-57135771D02*
X154647619Y-57135771D01*
X154647619Y-57135771D02*
X154742857Y-57183390D01*
X154742857Y-57183390D02*
X154790476Y-57231009D01*
X154790476Y-57231009D02*
X154838095Y-57326247D01*
X154838095Y-57326247D02*
X154838095Y-57564342D01*
X154838095Y-57564342D02*
X154790476Y-57659580D01*
X154790476Y-57659580D02*
X154742857Y-57707200D01*
X154742857Y-57707200D02*
X154647619Y-57754819D01*
X154647619Y-57754819D02*
X154361905Y-57754819D01*
X154361905Y-57754819D02*
X154266667Y-57707200D01*
X154266667Y-57707200D02*
X154219048Y-57659580D01*
X155961904Y-83731009D02*
X156104761Y-83778628D01*
X156104761Y-83778628D02*
X156152380Y-83826247D01*
X156152380Y-83826247D02*
X156199999Y-83921485D01*
X156199999Y-83921485D02*
X156199999Y-84064342D01*
X156199999Y-84064342D02*
X156152380Y-84159580D01*
X156152380Y-84159580D02*
X156104761Y-84207200D01*
X156104761Y-84207200D02*
X156009523Y-84254819D01*
X156009523Y-84254819D02*
X155628571Y-84254819D01*
X155628571Y-84254819D02*
X155628571Y-83254819D01*
X155628571Y-83254819D02*
X155961904Y-83254819D01*
X155961904Y-83254819D02*
X156057142Y-83302438D01*
X156057142Y-83302438D02*
X156104761Y-83350057D01*
X156104761Y-83350057D02*
X156152380Y-83445295D01*
X156152380Y-83445295D02*
X156152380Y-83540533D01*
X156152380Y-83540533D02*
X156104761Y-83635771D01*
X156104761Y-83635771D02*
X156057142Y-83683390D01*
X156057142Y-83683390D02*
X155961904Y-83731009D01*
X155961904Y-83731009D02*
X155628571Y-83731009D01*
X156485714Y-83254819D02*
X157057142Y-83254819D01*
X156771428Y-84254819D02*
X156771428Y-83254819D01*
X157295238Y-83254819D02*
X157961904Y-83254819D01*
X157961904Y-83254819D02*
X157533333Y-84254819D01*
X158533333Y-83254819D02*
X158628571Y-83254819D01*
X158628571Y-83254819D02*
X158723809Y-83302438D01*
X158723809Y-83302438D02*
X158771428Y-83350057D01*
X158771428Y-83350057D02*
X158819047Y-83445295D01*
X158819047Y-83445295D02*
X158866666Y-83635771D01*
X158866666Y-83635771D02*
X158866666Y-83873866D01*
X158866666Y-83873866D02*
X158819047Y-84064342D01*
X158819047Y-84064342D02*
X158771428Y-84159580D01*
X158771428Y-84159580D02*
X158723809Y-84207200D01*
X158723809Y-84207200D02*
X158628571Y-84254819D01*
X158628571Y-84254819D02*
X158533333Y-84254819D01*
X158533333Y-84254819D02*
X158438095Y-84207200D01*
X158438095Y-84207200D02*
X158390476Y-84159580D01*
X158390476Y-84159580D02*
X158342857Y-84064342D01*
X158342857Y-84064342D02*
X158295238Y-83873866D01*
X158295238Y-83873866D02*
X158295238Y-83635771D01*
X158295238Y-83635771D02*
X158342857Y-83445295D01*
X158342857Y-83445295D02*
X158390476Y-83350057D01*
X158390476Y-83350057D02*
X158438095Y-83302438D01*
X158438095Y-83302438D02*
X158533333Y-83254819D01*
X159819047Y-84254819D02*
X159247619Y-84254819D01*
X159533333Y-84254819D02*
X159533333Y-83254819D01*
X159533333Y-83254819D02*
X159438095Y-83397676D01*
X159438095Y-83397676D02*
X159342857Y-83492914D01*
X159342857Y-83492914D02*
X159247619Y-83540533D01*
X143071429Y-136254819D02*
X143071429Y-135254819D01*
X144119047Y-136159580D02*
X144071428Y-136207200D01*
X144071428Y-136207200D02*
X143928571Y-136254819D01*
X143928571Y-136254819D02*
X143833333Y-136254819D01*
X143833333Y-136254819D02*
X143690476Y-136207200D01*
X143690476Y-136207200D02*
X143595238Y-136111961D01*
X143595238Y-136111961D02*
X143547619Y-136016723D01*
X143547619Y-136016723D02*
X143500000Y-135826247D01*
X143500000Y-135826247D02*
X143500000Y-135683390D01*
X143500000Y-135683390D02*
X143547619Y-135492914D01*
X143547619Y-135492914D02*
X143595238Y-135397676D01*
X143595238Y-135397676D02*
X143690476Y-135302438D01*
X143690476Y-135302438D02*
X143833333Y-135254819D01*
X143833333Y-135254819D02*
X143928571Y-135254819D01*
X143928571Y-135254819D02*
X144071428Y-135302438D01*
X144071428Y-135302438D02*
X144119047Y-135350057D01*
X144452381Y-135254819D02*
X145119047Y-135254819D01*
X145119047Y-135254819D02*
X144690476Y-136254819D01*
X145690476Y-135254819D02*
X145785714Y-135254819D01*
X145785714Y-135254819D02*
X145880952Y-135302438D01*
X145880952Y-135302438D02*
X145928571Y-135350057D01*
X145928571Y-135350057D02*
X145976190Y-135445295D01*
X145976190Y-135445295D02*
X146023809Y-135635771D01*
X146023809Y-135635771D02*
X146023809Y-135873866D01*
X146023809Y-135873866D02*
X145976190Y-136064342D01*
X145976190Y-136064342D02*
X145928571Y-136159580D01*
X145928571Y-136159580D02*
X145880952Y-136207200D01*
X145880952Y-136207200D02*
X145785714Y-136254819D01*
X145785714Y-136254819D02*
X145690476Y-136254819D01*
X145690476Y-136254819D02*
X145595238Y-136207200D01*
X145595238Y-136207200D02*
X145547619Y-136159580D01*
X145547619Y-136159580D02*
X145500000Y-136064342D01*
X145500000Y-136064342D02*
X145452381Y-135873866D01*
X145452381Y-135873866D02*
X145452381Y-135635771D01*
X145452381Y-135635771D02*
X145500000Y-135445295D01*
X145500000Y-135445295D02*
X145547619Y-135350057D01*
X145547619Y-135350057D02*
X145595238Y-135302438D01*
X145595238Y-135302438D02*
X145690476Y-135254819D01*
X146976190Y-136254819D02*
X146404762Y-136254819D01*
X146690476Y-136254819D02*
X146690476Y-135254819D01*
X146690476Y-135254819D02*
X146595238Y-135397676D01*
X146595238Y-135397676D02*
X146500000Y-135492914D01*
X146500000Y-135492914D02*
X146404762Y-135540533D01*
X147745180Y-135600000D02*
X147507085Y-135600000D01*
X147602323Y-135361905D02*
X147507085Y-135600000D01*
X147507085Y-135600000D02*
X147602323Y-135838095D01*
X147316609Y-135457143D02*
X147507085Y-135600000D01*
X147507085Y-135600000D02*
X147316609Y-135742857D01*
X150109580Y-81119047D02*
X150157200Y-81166666D01*
X150157200Y-81166666D02*
X150204819Y-81309523D01*
X150204819Y-81309523D02*
X150204819Y-81404761D01*
X150204819Y-81404761D02*
X150157200Y-81547618D01*
X150157200Y-81547618D02*
X150061961Y-81642856D01*
X150061961Y-81642856D02*
X149966723Y-81690475D01*
X149966723Y-81690475D02*
X149776247Y-81738094D01*
X149776247Y-81738094D02*
X149633390Y-81738094D01*
X149633390Y-81738094D02*
X149442914Y-81690475D01*
X149442914Y-81690475D02*
X149347676Y-81642856D01*
X149347676Y-81642856D02*
X149252438Y-81547618D01*
X149252438Y-81547618D02*
X149204819Y-81404761D01*
X149204819Y-81404761D02*
X149204819Y-81309523D01*
X149204819Y-81309523D02*
X149252438Y-81166666D01*
X149252438Y-81166666D02*
X149300057Y-81119047D01*
X149204819Y-80785713D02*
X149204819Y-80119047D01*
X149204819Y-80119047D02*
X150204819Y-80547618D01*
X150204819Y-79214285D02*
X150204819Y-79785713D01*
X150204819Y-79499999D02*
X149204819Y-79499999D01*
X149204819Y-79499999D02*
X149347676Y-79595237D01*
X149347676Y-79595237D02*
X149442914Y-79690475D01*
X149442914Y-79690475D02*
X149490533Y-79785713D01*
X149300057Y-78833332D02*
X149252438Y-78785713D01*
X149252438Y-78785713D02*
X149204819Y-78690475D01*
X149204819Y-78690475D02*
X149204819Y-78452380D01*
X149204819Y-78452380D02*
X149252438Y-78357142D01*
X149252438Y-78357142D02*
X149300057Y-78309523D01*
X149300057Y-78309523D02*
X149395295Y-78261904D01*
X149395295Y-78261904D02*
X149490533Y-78261904D01*
X149490533Y-78261904D02*
X149633390Y-78309523D01*
X149633390Y-78309523D02*
X150204819Y-78880951D01*
X150204819Y-78880951D02*
X150204819Y-78261904D01*
D10*
X174746115Y-124808533D02*
X173984211Y-124808533D01*
D11*
X145354819Y-152619047D02*
X144878628Y-152952380D01*
X145354819Y-153190475D02*
X144354819Y-153190475D01*
X144354819Y-153190475D02*
X144354819Y-152809523D01*
X144354819Y-152809523D02*
X144402438Y-152714285D01*
X144402438Y-152714285D02*
X144450057Y-152666666D01*
X144450057Y-152666666D02*
X144545295Y-152619047D01*
X144545295Y-152619047D02*
X144688152Y-152619047D01*
X144688152Y-152619047D02*
X144783390Y-152666666D01*
X144783390Y-152666666D02*
X144831009Y-152714285D01*
X144831009Y-152714285D02*
X144878628Y-152809523D01*
X144878628Y-152809523D02*
X144878628Y-153190475D01*
X144354819Y-152285713D02*
X144354819Y-151619047D01*
X144354819Y-151619047D02*
X145354819Y-152047618D01*
X144354819Y-151047618D02*
X144354819Y-150952380D01*
X144354819Y-150952380D02*
X144402438Y-150857142D01*
X144402438Y-150857142D02*
X144450057Y-150809523D01*
X144450057Y-150809523D02*
X144545295Y-150761904D01*
X144545295Y-150761904D02*
X144735771Y-150714285D01*
X144735771Y-150714285D02*
X144973866Y-150714285D01*
X144973866Y-150714285D02*
X145164342Y-150761904D01*
X145164342Y-150761904D02*
X145259580Y-150809523D01*
X145259580Y-150809523D02*
X145307200Y-150857142D01*
X145307200Y-150857142D02*
X145354819Y-150952380D01*
X145354819Y-150952380D02*
X145354819Y-151047618D01*
X145354819Y-151047618D02*
X145307200Y-151142856D01*
X145307200Y-151142856D02*
X145259580Y-151190475D01*
X145259580Y-151190475D02*
X145164342Y-151238094D01*
X145164342Y-151238094D02*
X144973866Y-151285713D01*
X144973866Y-151285713D02*
X144735771Y-151285713D01*
X144735771Y-151285713D02*
X144545295Y-151238094D01*
X144545295Y-151238094D02*
X144450057Y-151190475D01*
X144450057Y-151190475D02*
X144402438Y-151142856D01*
X144402438Y-151142856D02*
X144354819Y-151047618D01*
X144354819Y-150380951D02*
X144354819Y-149714285D01*
X144354819Y-149714285D02*
X145354819Y-150142856D01*
X150204819Y-85119047D02*
X149728628Y-85452380D01*
X150204819Y-85690475D02*
X149204819Y-85690475D01*
X149204819Y-85690475D02*
X149204819Y-85309523D01*
X149204819Y-85309523D02*
X149252438Y-85214285D01*
X149252438Y-85214285D02*
X149300057Y-85166666D01*
X149300057Y-85166666D02*
X149395295Y-85119047D01*
X149395295Y-85119047D02*
X149538152Y-85119047D01*
X149538152Y-85119047D02*
X149633390Y-85166666D01*
X149633390Y-85166666D02*
X149681009Y-85214285D01*
X149681009Y-85214285D02*
X149728628Y-85309523D01*
X149728628Y-85309523D02*
X149728628Y-85690475D01*
X149204819Y-84785713D02*
X149204819Y-84119047D01*
X149204819Y-84119047D02*
X150204819Y-84547618D01*
X150204819Y-83214285D02*
X150204819Y-83785713D01*
X150204819Y-83499999D02*
X149204819Y-83499999D01*
X149204819Y-83499999D02*
X149347676Y-83595237D01*
X149347676Y-83595237D02*
X149442914Y-83690475D01*
X149442914Y-83690475D02*
X149490533Y-83785713D01*
X149204819Y-82595237D02*
X149204819Y-82499999D01*
X149204819Y-82499999D02*
X149252438Y-82404761D01*
X149252438Y-82404761D02*
X149300057Y-82357142D01*
X149300057Y-82357142D02*
X149395295Y-82309523D01*
X149395295Y-82309523D02*
X149585771Y-82261904D01*
X149585771Y-82261904D02*
X149823866Y-82261904D01*
X149823866Y-82261904D02*
X150014342Y-82309523D01*
X150014342Y-82309523D02*
X150109580Y-82357142D01*
X150109580Y-82357142D02*
X150157200Y-82404761D01*
X150157200Y-82404761D02*
X150204819Y-82499999D01*
X150204819Y-82499999D02*
X150204819Y-82595237D01*
X150204819Y-82595237D02*
X150157200Y-82690475D01*
X150157200Y-82690475D02*
X150109580Y-82738094D01*
X150109580Y-82738094D02*
X150014342Y-82785713D01*
X150014342Y-82785713D02*
X149823866Y-82833332D01*
X149823866Y-82833332D02*
X149585771Y-82833332D01*
X149585771Y-82833332D02*
X149395295Y-82785713D01*
X149395295Y-82785713D02*
X149300057Y-82738094D01*
X149300057Y-82738094D02*
X149252438Y-82690475D01*
X149252438Y-82690475D02*
X149204819Y-82595237D01*
X141759580Y-80019047D02*
X141807200Y-80066666D01*
X141807200Y-80066666D02*
X141854819Y-80209523D01*
X141854819Y-80209523D02*
X141854819Y-80304761D01*
X141854819Y-80304761D02*
X141807200Y-80447618D01*
X141807200Y-80447618D02*
X141711961Y-80542856D01*
X141711961Y-80542856D02*
X141616723Y-80590475D01*
X141616723Y-80590475D02*
X141426247Y-80638094D01*
X141426247Y-80638094D02*
X141283390Y-80638094D01*
X141283390Y-80638094D02*
X141092914Y-80590475D01*
X141092914Y-80590475D02*
X140997676Y-80542856D01*
X140997676Y-80542856D02*
X140902438Y-80447618D01*
X140902438Y-80447618D02*
X140854819Y-80304761D01*
X140854819Y-80304761D02*
X140854819Y-80209523D01*
X140854819Y-80209523D02*
X140902438Y-80066666D01*
X140902438Y-80066666D02*
X140950057Y-80019047D01*
X140854819Y-79685713D02*
X140854819Y-79019047D01*
X140854819Y-79019047D02*
X141854819Y-79447618D01*
X141854819Y-78114285D02*
X141854819Y-78685713D01*
X141854819Y-78399999D02*
X140854819Y-78399999D01*
X140854819Y-78399999D02*
X140997676Y-78495237D01*
X140997676Y-78495237D02*
X141092914Y-78590475D01*
X141092914Y-78590475D02*
X141140533Y-78685713D01*
X141188152Y-77257142D02*
X141854819Y-77257142D01*
X140807200Y-77495237D02*
X141521485Y-77733332D01*
X141521485Y-77733332D02*
X141521485Y-77114285D01*
D12*
%TO.C,C703*%
X144566665Y-134140000D02*
X144798335Y-134140000D01*
X144566665Y-134860000D02*
X144798335Y-134860000D01*
%TO.C,R714*%
X148167621Y-118120000D02*
X147832379Y-118120000D01*
X148167621Y-118880000D02*
X147832379Y-118880000D01*
%TO.C,L701*%
X148690000Y-131360000D02*
X148690000Y-131990000D01*
X148690000Y-131360000D02*
X155770000Y-131360000D01*
X148690000Y-138640000D02*
X148690000Y-138010000D01*
X148690000Y-138640000D02*
X155770000Y-138640000D01*
X155770000Y-131360000D02*
X155770000Y-131990000D01*
X155770000Y-138640000D02*
X155770000Y-138010000D01*
%TO.C,R705*%
X141320121Y-135620000D02*
X140984879Y-135620000D01*
X141320121Y-136380000D02*
X140984879Y-136380000D01*
%TO.C,R701*%
X144832379Y-129370000D02*
X145167621Y-129370000D01*
X144832379Y-130130000D02*
X145167621Y-130130000D01*
%TO.C,J706*%
X171730000Y-73920000D02*
X173000000Y-73920000D01*
X171730000Y-75190000D02*
X171730000Y-73920000D01*
%TO.C,R709*%
X144420000Y-147629879D02*
X144420000Y-147965121D01*
X145180000Y-147629879D02*
X145180000Y-147965121D01*
%TO.C,J713*%
X171730000Y-86230000D02*
X173000000Y-86230000D01*
X171730000Y-87500000D02*
X171730000Y-86230000D01*
%TO.C,C707*%
X157840000Y-136238748D02*
X157840000Y-137661252D01*
X159660000Y-136238748D02*
X159660000Y-137661252D01*
%TO.C,U705*%
X152790000Y-61840000D02*
X152790000Y-61400000D01*
X152790000Y-69240000D02*
X152790000Y-67560000D01*
X152790000Y-77610000D02*
X152790000Y-77160000D01*
X165210000Y-61390000D02*
X152790000Y-61390000D01*
X165210000Y-61840000D02*
X165210000Y-61390000D01*
X165210000Y-69240000D02*
X165210000Y-67560000D01*
X165210000Y-77610000D02*
X152790000Y-77610000D01*
X165210000Y-77610000D02*
X165210000Y-77160000D01*
X165940000Y-77490000D02*
X165460000Y-77490000D01*
X165700000Y-77160000D01*
X165940000Y-77490000D01*
G36*
X165940000Y-77490000D02*
G01*
X165460000Y-77490000D01*
X165700000Y-77160000D01*
X165940000Y-77490000D01*
G37*
%TO.C,C705*%
X140048335Y-141390000D02*
X139816665Y-141390000D01*
X140048335Y-142110000D02*
X139816665Y-142110000D01*
%TO.C,C713*%
X138615835Y-93140000D02*
X138384165Y-93140000D01*
X138615835Y-93860000D02*
X138384165Y-93860000D01*
%TO.C,R708*%
X144420000Y-145129879D02*
X144420000Y-145465121D01*
X145180000Y-145129879D02*
X145180000Y-145465121D01*
%TO.C,C704*%
X141365835Y-134140000D02*
X141134165Y-134140000D01*
X141365835Y-134860000D02*
X141134165Y-134860000D01*
%TO.C,J704*%
X129270000Y-82500000D02*
X129270000Y-83770000D01*
X129270000Y-83770000D02*
X128000000Y-83770000D01*
%TO.C,J708*%
X171730000Y-149730000D02*
X173000000Y-149730000D01*
X171730000Y-151000000D02*
X171730000Y-149730000D01*
%TO.C,C706*%
X140048335Y-137140000D02*
X139816665Y-137140000D01*
X140048335Y-137860000D02*
X139816665Y-137860000D01*
%TO.C,U703*%
X134090000Y-85840000D02*
X134090000Y-87100000D01*
X134090000Y-92660000D02*
X134090000Y-91400000D01*
X137850000Y-85840000D02*
X134090000Y-85840000D01*
X137850000Y-92660000D02*
X134090000Y-92660000D01*
X139370000Y-92890000D02*
X138890000Y-92890000D01*
X139130000Y-92560000D01*
X139370000Y-92890000D01*
G36*
X139370000Y-92890000D02*
G01*
X138890000Y-92890000D01*
X139130000Y-92560000D01*
X139370000Y-92890000D01*
G37*
%TO.C,J707*%
X171730000Y-136920000D02*
X173000000Y-136920000D01*
X171730000Y-138190000D02*
X171730000Y-136920000D01*
%TO.C,C701*%
X143384165Y-132390000D02*
X143615835Y-132390000D01*
X143384165Y-133110000D02*
X143615835Y-133110000D01*
%TO.C,R704*%
X140070121Y-139870000D02*
X139734879Y-139870000D01*
X140070121Y-140630000D02*
X139734879Y-140630000D01*
%TO.C,U702*%
X146000000Y-80175000D02*
X143000000Y-80175000D01*
X146000000Y-83175000D02*
X143000000Y-83175000D01*
X142650000Y-80275000D02*
X142410000Y-79945000D01*
X142890000Y-79945000D01*
X142650000Y-80275000D01*
G36*
X142650000Y-80275000D02*
G01*
X142410000Y-79945000D01*
X142890000Y-79945000D01*
X142650000Y-80275000D01*
G37*
%TO.C,J710*%
X129270000Y-93500000D02*
X129270000Y-94770000D01*
X129270000Y-94770000D02*
X128000000Y-94770000D01*
%TO.C,C702*%
X142640000Y-145184165D02*
X142640000Y-145415835D01*
X143360000Y-145184165D02*
X143360000Y-145415835D01*
%TO.C,C711*%
X139640000Y-78248715D02*
X139640000Y-78017045D01*
X140360000Y-78248715D02*
X140360000Y-78017045D01*
%TO.C,U704*%
X142900000Y-89350000D02*
X142900000Y-89100000D01*
X142900000Y-89350000D02*
X143150000Y-89350000D01*
X146100000Y-86150000D02*
X145850000Y-86150000D01*
X146100000Y-86150000D02*
X146100000Y-86400000D01*
X146100000Y-89350000D02*
X145850000Y-89350000D01*
X146100000Y-89350000D02*
X146100000Y-89100000D01*
X142900000Y-86150000D02*
X142660000Y-85820000D01*
X143140000Y-85820000D01*
X142900000Y-86150000D01*
G36*
X142900000Y-86150000D02*
G01*
X142660000Y-85820000D01*
X143140000Y-85820000D01*
X142900000Y-86150000D01*
G37*
%TO.C,R712*%
X149984879Y-72870000D02*
X150320121Y-72870000D01*
X149984879Y-73630000D02*
X150320121Y-73630000D01*
%TO.C,J717*%
X129270000Y-133500000D02*
X129270000Y-134770000D01*
X129270000Y-134770000D02*
X128000000Y-134770000D01*
%TO.C,R702*%
X148332379Y-129370000D02*
X148667621Y-129370000D01*
X148332379Y-130130000D02*
X148667621Y-130130000D01*
%TO.C,J705*%
X171730000Y-61420000D02*
X173000000Y-61420000D01*
X171730000Y-62690000D02*
X171730000Y-61420000D01*
%TO.C,C716*%
X143640000Y-91451665D02*
X143640000Y-91683335D01*
X144360000Y-91451665D02*
X144360000Y-91683335D01*
%TO.C,R706*%
X146520000Y-142629879D02*
X146520000Y-142965121D01*
X147280000Y-142629879D02*
X147280000Y-142965121D01*
%TO.C,J702*%
X130580000Y-157230000D02*
X131850000Y-157230000D01*
X131850000Y-157230000D02*
X131850000Y-158500000D01*
%TO.C,J715*%
X171730000Y-126690000D02*
X173000000Y-126690000D01*
X171730000Y-127960000D02*
X171730000Y-126690000D01*
%TO.C,C715*%
X138665835Y-84640000D02*
X138434165Y-84640000D01*
X138665835Y-85360000D02*
X138434165Y-85360000D01*
%TO.C,J703*%
X167890000Y-62125000D02*
X167890000Y-62765000D01*
X167890000Y-62765000D02*
X167260000Y-62765000D01*
X167890000Y-64925000D02*
X167890000Y-64285000D01*
X170610000Y-62175000D02*
X170610000Y-64875000D01*
%TO.C,R715*%
X148170121Y-120920000D02*
X147834879Y-120920000D01*
X148170121Y-121680000D02*
X147834879Y-121680000D01*
%TO.C,C710*%
X138390000Y-78248715D02*
X138390000Y-78017045D01*
X139110000Y-78248715D02*
X139110000Y-78017045D01*
%TO.C,C717*%
X146740000Y-88298335D02*
X146740000Y-88066665D01*
X147460000Y-88298335D02*
X147460000Y-88066665D01*
%TO.C,BT702*%
X127720000Y-60370000D02*
X129160000Y-56420000D01*
X127720000Y-61000000D02*
X127720000Y-60370000D01*
X127720000Y-69460000D02*
X127720000Y-67000000D01*
X129800000Y-71540000D02*
X127720000Y-69460000D01*
X129800000Y-71540000D02*
X133300000Y-71540000D01*
X143700000Y-71540000D02*
X147200000Y-71540000D01*
X147200000Y-71540000D02*
X149280000Y-69460000D01*
X149280000Y-60370000D02*
X147840000Y-56420000D01*
X149280000Y-61000000D02*
X149280000Y-60370000D01*
X149280000Y-69460000D02*
X149280000Y-67000000D01*
X129174757Y-56411831D02*
G75*
G02*
X132500000Y-55450000I2015243J-738169D01*
G01*
X144503354Y-55433470D02*
G75*
G02*
X147840000Y-56420000I1306646J-1716531D01*
G01*
%TO.C,C719*%
X147790000Y-88315835D02*
X147790000Y-88084165D01*
X148510000Y-88315835D02*
X148510000Y-88084165D01*
%TO.C,C718*%
X145140000Y-91451665D02*
X145140000Y-91683335D01*
X145860000Y-91451665D02*
X145860000Y-91683335D01*
%TO.C,J709*%
X129270000Y-147500000D02*
X129270000Y-148770000D01*
X129270000Y-148770000D02*
X128000000Y-148770000D01*
D13*
%TO.C,C709*%
X150000000Y-148800000D02*
X150000000Y-141500000D01*
X150650000Y-141500000D02*
X150000000Y-141500000D01*
X150650000Y-148800000D02*
X150000000Y-148800000D01*
X154300000Y-141500000D02*
X153650000Y-141500000D01*
X154300000Y-141500000D02*
X154300000Y-148800000D01*
X154300000Y-148800000D02*
X153650000Y-148800000D01*
D14*
X152261803Y-140300000D02*
G75*
G02*
X152038197Y-140300000I-111803J0D01*
G01*
X152038197Y-140300000D02*
G75*
G02*
X152261803Y-140300000I111803J0D01*
G01*
X152311803Y-140200000D02*
G75*
G02*
X152088197Y-140200000I-111803J0D01*
G01*
X152088197Y-140200000D02*
G75*
G02*
X152311803Y-140200000I111803J0D01*
G01*
X152412131Y-140250000D02*
G75*
G02*
X151987869Y-140250000I-212131J0D01*
G01*
X151987869Y-140250000D02*
G75*
G02*
X152412131Y-140250000I212131J0D01*
G01*
D12*
%TO.C,L702*%
X155190000Y-140728733D02*
X155190000Y-141071267D01*
X156210000Y-140728733D02*
X156210000Y-141071267D01*
%TO.C,J701*%
X163130000Y-157470000D02*
X163130000Y-109150000D01*
X163130000Y-160070000D02*
X163130000Y-158740000D01*
X164460000Y-160070000D02*
X163130000Y-160070000D01*
X165730000Y-157470000D02*
X163130000Y-157470000D01*
X165730000Y-160070000D02*
X165730000Y-157470000D01*
X168330000Y-109150000D02*
X163130000Y-109150000D01*
X168330000Y-160070000D02*
X165730000Y-160070000D01*
X168330000Y-160070000D02*
X168330000Y-109150000D01*
%TO.C,R703*%
X142620000Y-142632379D02*
X142620000Y-142967621D01*
X143380000Y-142632379D02*
X143380000Y-142967621D01*
%TO.C,R711*%
X149984879Y-71620000D02*
X150320121Y-71620000D01*
X149984879Y-72380000D02*
X150320121Y-72380000D01*
D10*
%TO.C,U701*%
X134600000Y-76475000D02*
X134600000Y-76325000D01*
X135240000Y-76325000D02*
X134600000Y-76325000D01*
X135240000Y-79025000D02*
X134800000Y-79025000D01*
X136800000Y-76325000D02*
X136160000Y-76325000D01*
X136800000Y-76475000D02*
X136800000Y-76325000D01*
X136800000Y-79025000D02*
X136160000Y-79025000D01*
X136800000Y-79025000D02*
X136800000Y-78875000D01*
X134600000Y-79385000D02*
X134240000Y-79025000D01*
X134600000Y-79025000D01*
X134600000Y-79385000D01*
G36*
X134600000Y-79385000D02*
G01*
X134240000Y-79025000D01*
X134600000Y-79025000D01*
X134600000Y-79385000D01*
G37*
D12*
%TO.C,R713*%
X152929879Y-58870000D02*
X153265121Y-58870000D01*
X152929879Y-59630000D02*
X153265121Y-59630000D01*
%TO.C,BT701*%
X153550000Y-85350000D02*
X153550000Y-93650000D01*
X153550000Y-93650000D02*
X166400000Y-93650000D01*
X166400000Y-85350000D02*
X153550000Y-85350000D01*
X166400000Y-93650000D02*
X169250000Y-91100000D01*
X169250000Y-87950000D02*
X166400000Y-85350000D01*
X169250000Y-91100000D02*
X169250000Y-87950000D01*
D15*
%TO.C,IC701*%
X142828300Y-136823600D02*
X142828300Y-137290259D01*
X142828300Y-139709741D02*
X142828300Y-140176400D01*
X142828300Y-140176400D02*
X143290260Y-140176400D01*
X143290260Y-136823600D02*
X142828300Y-136823600D01*
X146709740Y-140176400D02*
X147171700Y-140176400D01*
X147171700Y-136823600D02*
X146709740Y-136823600D01*
X147171700Y-137290259D02*
X147171700Y-136823600D01*
X147171700Y-140176400D02*
X147171700Y-139709741D01*
D16*
G36*
X142294900Y-139440501D02*
G01*
X142040900Y-139440501D01*
X142040900Y-139059501D01*
X142294900Y-139059501D01*
X142294900Y-139440501D01*
G37*
G36*
X147959100Y-137940499D02*
G01*
X147705100Y-137940499D01*
X147705100Y-137559499D01*
X147959100Y-137559499D01*
X147959100Y-137940499D01*
G37*
D12*
%TO.C,C712*%
X147890000Y-80865835D02*
X147890000Y-80634165D01*
X148610000Y-80865835D02*
X148610000Y-80634165D01*
%TO.C,R707*%
X144420000Y-142634879D02*
X144420000Y-142970121D01*
X145180000Y-142634879D02*
X145180000Y-142970121D01*
%TO.C,R710*%
X147870000Y-83179879D02*
X147870000Y-83515121D01*
X148630000Y-83179879D02*
X148630000Y-83515121D01*
%TO.C,C714*%
X140640000Y-82015835D02*
X140640000Y-81784165D01*
X141360000Y-82015835D02*
X141360000Y-81784165D01*
%TD*%
M02*
