M48
; DRILL file {KiCad 9.0.2} date 2025-07-10T20:27:02+0200
; FORMAT={-:-/ absolute / metric / decimal}
; #@! TF.CreationDate,2025-07-10T20:27:02+02:00
; #@! TF.GenerationSoftware,Kicad,Pcbnew,9.0.2
; #@! TF.FileFunction,Plated,1,4,PTH
FMAT,2
METRIC
; #@! TA.AperFunction,Plated,PTH,ViaDrill
T1C0.300
; #@! TA.AperFunction,Plated,PTH,ComponentDrill
T2C1.000
; #@! TA.AperFunction,Plated,PTH,ComponentDrill
T3C4.500
%
G90
G05
T1
X124.4Y-98.0
X124.4Y-99.0
X124.4Y-100.0
X124.4Y-106.0
X124.4Y-107.0
X124.4Y-108.0
X124.4Y-113.5
X124.4Y-114.5
X124.4Y-115.5
X124.4Y-121.5
X124.4Y-122.5
X124.4Y-123.5
X125.4Y-98.0
X125.4Y-99.0
X125.4Y-100.0
X125.4Y-106.0
X125.4Y-107.0
X125.4Y-108.0
X125.4Y-113.5
X125.4Y-114.5
X125.4Y-115.5
X125.4Y-121.5
X125.4Y-122.5
X125.4Y-123.5
X126.4Y-98.0
X126.4Y-99.0
X126.4Y-100.0
X126.4Y-106.0
X126.4Y-107.0
X126.4Y-108.0
X126.4Y-113.5
X126.4Y-114.5
X126.4Y-115.5
X126.4Y-121.5
X126.4Y-122.5
X126.4Y-123.5
X127.4Y-98.0
X127.4Y-99.0
X127.4Y-100.0
X127.4Y-106.0
X127.4Y-107.0
X127.4Y-108.0
X127.4Y-113.5
X127.4Y-114.5
X127.4Y-115.5
X127.4Y-121.5
X127.4Y-122.5
X127.4Y-123.5
X128.4Y-98.0
X128.4Y-99.0
X128.4Y-100.0
X128.4Y-106.0
X128.4Y-107.0
X128.4Y-108.0
X128.4Y-113.5
X128.4Y-114.5
X128.4Y-115.5
X128.4Y-121.5
X128.4Y-122.5
X128.4Y-123.5
X131.2Y-106.6
X131.2Y-107.4
X132.3Y-106.6
X132.3Y-107.4
X132.8Y-141.525
X132.85Y-91.6
X132.85Y-128.825
X133.315Y-106.685
X133.4Y-98.6
X133.4Y-99.4
X133.4Y-107.4
X133.5Y-103.0
X134.25Y-78.0
X134.25Y-78.8
X134.5Y-117.3
X135.98Y-77.36
X136.5Y-79.1
X136.65Y-154.225
X137.05Y-76.7
X137.1Y-78.0
X137.25Y-93.6
X138.0Y-84.35
X138.15Y-98.6
X138.15Y-99.4
X138.15Y-106.6
X138.15Y-107.4
X138.5Y-55.75
X138.5Y-72.0
X138.75Y-137.5
X139.0Y-94.0
X139.15Y-84.3
X139.25Y-106.6
X139.25Y-107.4
X139.305Y-141.0
X139.35Y-77.55
X140.0Y-134.5
X140.25Y-98.6
X140.25Y-106.6
X140.25Y-107.4
X140.3Y-99.4
X140.3Y-103.0
X140.35Y-81.35
X140.4Y-82.5
X140.5Y-78.7
X140.55Y-89.25
X140.683Y-133.9
X141.25Y-80.25
X141.5Y-138.25
X143.0Y-134.5
X143.3Y-146.6
X143.35Y-91.0
X144.0Y-138.55
X144.067Y-132.15
X144.22Y-90.176
X144.362Y-85.17
X144.45Y-138.9
X144.5Y-138.0
X144.7Y-92.15
X144.8Y-132.75
X144.8Y-149.4
X145.05Y-138.55
X145.097Y-85.597
X145.212Y-142.088
X145.25Y-133.85
X145.4Y-132.35
X145.4Y-133.1
X145.5Y-138.05
X145.55Y-138.9
X145.619Y-89.97
X146.0Y-138.55
X146.25Y-79.5
X146.4Y-118.5
X146.5Y-121.3
X146.75Y-86.75
X146.75Y-129.75
X147.5Y-143.35
X148.25Y-84.695
X148.335Y-79.402
X148.35Y-87.8
X148.35Y-88.65
X148.5Y-155.0
X148.65Y-72.0
X148.65Y-73.25
X148.8Y-81.3
X149.4Y-118.5
X149.457Y-121.361
X149.5Y-154.0
X150.25Y-129.75
X150.35Y-142.15
X150.7Y-149.6
X151.5Y-62.5
X151.65Y-146.8
X151.75Y-76.45
X151.8Y-75.4
X152.35Y-154.225
X153.9Y-103.0
X154.0Y-99.35
X154.05Y-98.55
X154.1Y-106.5
X154.1Y-107.3
X154.1Y-117.315
X154.5Y-59.25
X155.1Y-106.5
X155.1Y-107.3
X155.2Y-148.05
X155.8Y-148.4
X155.95Y-149.15
X156.025Y-128.825
X156.2Y-98.5
X156.2Y-99.3
X156.2Y-106.5
X156.2Y-107.3
X157.55Y-139.6
X157.75Y-140.35
X157.75Y-156.75
X157.8Y-151.2
X157.8Y-152.2
X158.25Y-139.6
X158.6Y-157.6
X158.75Y-140.35
X159.25Y-139.6
X159.6Y-152.45
X159.75Y-140.35
X160.25Y-139.6
X160.9Y-102.95
X160.95Y-98.5
X160.95Y-99.3
X161.0Y-106.5
X161.0Y-107.3
X161.15Y-157.3
X162.1Y-106.5
X162.1Y-107.3
X162.4Y-84.0
X162.9Y-83.25
X163.2Y-106.5
X163.2Y-107.3
X163.4Y-84.0
X163.9Y-83.25
X164.4Y-84.0
X164.9Y-83.25
X165.4Y-84.0
X165.9Y-83.25
X166.25Y-73.15
X166.4Y-84.0
X166.5Y-62.5
X166.5Y-64.75
X166.5Y-70.0
X166.9Y-83.25
X167.4Y-84.0
X169.25Y-61.25
X169.25Y-65.8
X170.3Y-125.0
X172.6Y-98.0
X172.6Y-99.0
X172.6Y-100.0
X172.6Y-105.95
X172.6Y-106.95
X172.6Y-107.95
X172.6Y-113.5
X172.6Y-114.5
X172.6Y-115.5
X172.6Y-121.5
X172.6Y-122.5
X172.6Y-123.5
X173.6Y-98.0
X173.6Y-99.0
X173.6Y-100.0
X173.6Y-105.95
X173.6Y-106.95
X173.6Y-107.95
X173.6Y-113.5
X173.6Y-114.5
X173.6Y-115.5
X173.6Y-121.5
X173.6Y-122.5
X173.6Y-123.5
X174.6Y-98.0
X174.6Y-99.0
X174.6Y-100.0
X174.6Y-105.95
X174.6Y-106.95
X174.6Y-107.95
X174.6Y-113.5
X174.6Y-114.5
X174.6Y-115.5
X174.6Y-121.5
X174.6Y-122.5
X174.6Y-123.5
X175.6Y-98.0
X175.6Y-99.0
X175.6Y-100.0
X175.6Y-105.95
X175.6Y-106.95
X175.6Y-107.95
X175.6Y-113.5
X175.6Y-114.5
X175.6Y-115.5
X175.6Y-121.5
X175.6Y-122.5
X175.6Y-123.5
X176.347Y-98.0
X176.347Y-99.0
X176.347Y-100.0
X176.347Y-105.95
X176.347Y-106.95
X176.347Y-107.95
X176.347Y-113.5
X176.347Y-114.5
X176.347Y-115.5
X176.347Y-121.5
X176.347Y-122.5
X176.347Y-123.5
T2
X125.5Y-158.5
X128.0Y-74.88
X128.0Y-77.42
X128.0Y-79.96
X128.0Y-82.5
X128.0Y-88.42
X128.0Y-90.96
X128.0Y-93.5
X128.0Y-128.42
X128.0Y-130.96
X128.0Y-133.5
X128.0Y-139.88
X128.0Y-142.42
X128.0Y-144.96
X128.0Y-147.5
X128.04Y-158.5
X130.58Y-158.5
X164.46Y-110.48
X164.46Y-113.02
X164.46Y-115.56
X164.46Y-118.1
X164.46Y-120.64
X164.46Y-123.18
X164.46Y-125.72
X164.46Y-128.26
X164.46Y-130.8
X164.46Y-133.34
X164.46Y-135.88
X164.46Y-138.42
X164.46Y-140.96
X164.46Y-143.5
X164.46Y-146.04
X164.46Y-148.58
X164.46Y-151.12
X164.46Y-153.66
X164.46Y-156.2
X164.46Y-158.74
X167.0Y-110.48
X167.0Y-113.02
X167.0Y-115.56
X167.0Y-118.1
X167.0Y-120.64
X167.0Y-123.18
X167.0Y-125.72
X167.0Y-128.26
X167.0Y-130.8
X167.0Y-133.34
X167.0Y-135.88
X167.0Y-138.42
X167.0Y-140.96
X167.0Y-143.5
X167.0Y-146.04
X167.0Y-148.58
X167.0Y-151.12
X167.0Y-153.66
X167.0Y-156.2
X167.0Y-158.74
X173.0Y-62.69
X173.0Y-65.23
X173.0Y-67.77
X173.0Y-70.31
X173.0Y-75.19
X173.0Y-77.73
X173.0Y-80.27
X173.0Y-82.81
X173.0Y-87.5
X173.0Y-90.04
X173.0Y-92.58
X173.0Y-127.96
X173.0Y-130.5
X173.0Y-133.04
X173.0Y-138.19
X173.0Y-140.73
X173.0Y-143.27
X173.0Y-145.81
X173.0Y-151.0
X173.0Y-153.54
X173.0Y-156.08
X173.0Y-158.62
T3
X157.8Y-89.5
X165.0Y-89.5
M30
