%TF.GenerationSoftware,KiCad,Pcbnew,9.0.2*%
%TF.CreationDate,2025-07-10T20:26:42+02:00*%
%TF.ProjectId,pcb,7063622e-6b69-4636-9164-5f7063625858,rev?*%
%TF.SameCoordinates,Original*%
%TF.FileFunction,Soldermask,Bot*%
%TF.FilePolarity,Negative*%
%FSLAX46Y46*%
G04 Gerber Fmt 4.6, Leading zero omitted, Abs format (unit mm)*
G04 Created by KiCad (PCBNEW 9.0.2) date 2025-07-10 20:26:42*
%MOMM*%
%LPD*%
G01*
G04 APERTURE LIST*
G04 Aperture macros list*
%AMRoundRect*
0 Rectangle with rounded corners*
0 $1 Rounding radius*
0 $2 $3 $4 $5 $6 $7 $8 $9 X,Y pos of 4 corners*
0 Add a 4 corners polygon primitive as box body*
4,1,4,$2,$3,$4,$5,$6,$7,$8,$9,$2,$3,0*
0 Add four circle primitives for the rounded corners*
1,1,$1+$1,$2,$3*
1,1,$1+$1,$4,$5*
1,1,$1+$1,$6,$7*
1,1,$1+$1,$8,$9*
0 Add four rect primitives between the rounded corners*
20,1,$1+$1,$2,$3,$4,$5,0*
20,1,$1+$1,$4,$5,$6,$7,0*
20,1,$1+$1,$6,$7,$8,$9,0*
20,1,$1+$1,$8,$9,$2,$3,0*%
%AMFreePoly0*
4,1,37,0.800000,0.796148,0.878414,0.796148,1.032228,0.765552,1.177117,0.705537,1.307515,0.618408,1.418408,0.507515,1.505537,0.377117,1.565552,0.232228,1.596148,0.078414,1.596148,-0.078414,1.565552,-0.232228,1.505537,-0.377117,1.418408,-0.507515,1.307515,-0.618408,1.177117,-0.705537,1.032228,-0.765552,0.878414,-0.796148,0.800000,-0.796148,0.800000,-0.800000,-1.400000,-0.800000,
-1.403843,-0.796157,-1.439018,-0.796157,-1.511114,-0.766294,-1.566294,-0.711114,-1.596157,-0.639018,-1.596157,-0.603843,-1.600000,-0.600000,-1.600000,0.600000,-1.596157,0.603843,-1.596157,0.639018,-1.566294,0.711114,-1.511114,0.766294,-1.439018,0.796157,-1.403843,0.796157,-1.400000,0.800000,0.800000,0.800000,0.800000,0.796148,0.800000,0.796148,$1*%
%AMFreePoly1*
4,1,37,1.403843,0.796157,1.439018,0.796157,1.511114,0.766294,1.566294,0.711114,1.596157,0.639018,1.596157,0.603843,1.600000,0.600000,1.600000,-0.600000,1.596157,-0.603843,1.596157,-0.639018,1.566294,-0.711114,1.511114,-0.766294,1.439018,-0.796157,1.403843,-0.796157,1.400000,-0.800000,-0.800000,-0.800000,-0.800000,-0.796148,-0.878414,-0.796148,-1.032228,-0.765552,-1.177117,-0.705537,
-1.307515,-0.618408,-1.418408,-0.507515,-1.505537,-0.377117,-1.565552,-0.232228,-1.596148,-0.078414,-1.596148,0.078414,-1.565552,0.232228,-1.505537,0.377117,-1.418408,0.507515,-1.307515,0.618408,-1.177117,0.705537,-1.032228,0.765552,-0.878414,0.796148,-0.800000,0.796148,-0.800000,0.800000,1.400000,0.800000,1.403843,0.796157,1.403843,0.796157,$1*%
%AMFreePoly2*
4,1,37,1.600000,0.796148,1.678414,0.796148,1.832228,0.765552,1.977117,0.705537,2.107515,0.618408,2.218408,0.507515,2.305537,0.377117,2.365552,0.232228,2.396148,0.078414,2.396148,-0.078414,2.365552,-0.232228,2.305537,-0.377117,2.218408,-0.507515,2.107515,-0.618408,1.977117,-0.705537,1.832228,-0.765552,1.678414,-0.796148,1.600000,-0.796148,1.600000,-0.800000,-0.600000,-0.800000,
-0.603843,-0.796157,-0.639018,-0.796157,-0.711114,-0.766294,-0.766294,-0.711114,-0.796157,-0.639018,-0.796157,-0.603843,-0.800000,-0.600000,-0.800000,0.600000,-0.796157,0.603843,-0.796157,0.639018,-0.766294,0.711114,-0.711114,0.766294,-0.639018,0.796157,-0.603843,0.796157,-0.600000,0.800000,1.600000,0.800000,1.600000,0.796148,1.600000,0.796148,$1*%
G04 Aperture macros list end*
%ADD10R,1.700000X1.700000*%
%ADD11C,1.700000*%
%ADD12RoundRect,1.500000X1.500000X1.500000X-1.500000X1.500000X-1.500000X-1.500000X1.500000X-1.500000X0*%
%ADD13C,6.000000*%
%ADD14C,2.200000*%
%ADD15C,1.850000*%
%ADD16FreePoly0,0.000000*%
%ADD17RoundRect,0.800000X-0.800000X-0.000010X0.800000X-0.000010X0.800000X0.000010X-0.800000X0.000010X0*%
%ADD18FreePoly1,0.000000*%
%ADD19RoundRect,0.800000X-0.000010X0.800000X-0.000010X-0.800000X0.000010X-0.800000X0.000010X0.800000X0*%
%ADD20FreePoly2,90.000000*%
G04 APERTURE END LIST*
D10*
%TO.C,J706*%
X173000000Y-75190000D03*
D11*
X173000000Y-77730000D03*
X173000000Y-80270000D03*
X173000000Y-82810000D03*
%TD*%
D10*
%TO.C,J713*%
X173000000Y-87500000D03*
D11*
X173000000Y-90040000D03*
X173000000Y-92580000D03*
%TD*%
D10*
%TO.C,J704*%
X128000000Y-82500000D03*
D11*
X128000000Y-79960000D03*
X128000000Y-77420000D03*
X128000000Y-74880000D03*
%TD*%
D10*
%TO.C,J708*%
X173000000Y-151000000D03*
D11*
X173000000Y-153540000D03*
X173000000Y-156080000D03*
X173000000Y-158620000D03*
%TD*%
D10*
%TO.C,J707*%
X173000000Y-138190000D03*
D11*
X173000000Y-140730000D03*
X173000000Y-143270000D03*
X173000000Y-145810000D03*
%TD*%
D10*
%TO.C,J710*%
X128000000Y-93500000D03*
D11*
X128000000Y-90960000D03*
X128000000Y-88420000D03*
%TD*%
D10*
%TO.C,J717*%
X128000000Y-133500000D03*
D11*
X128000000Y-130960000D03*
X128000000Y-128420000D03*
%TD*%
D10*
%TO.C,J705*%
X173000000Y-62690000D03*
D11*
X173000000Y-65230000D03*
X173000000Y-67770000D03*
X173000000Y-70310000D03*
%TD*%
D10*
%TO.C,J702*%
X130580000Y-158500000D03*
D11*
X128040000Y-158500000D03*
X125500000Y-158500000D03*
%TD*%
D10*
%TO.C,J715*%
X173000000Y-127960000D03*
D11*
X173000000Y-130500000D03*
X173000000Y-133040000D03*
%TD*%
D10*
%TO.C,J709*%
X128000000Y-147500000D03*
D11*
X128000000Y-144960000D03*
X128000000Y-142420000D03*
X128000000Y-139880000D03*
%TD*%
D10*
%TO.C,J701*%
X164460000Y-158740000D03*
D11*
X167000000Y-158740000D03*
X164460000Y-156200000D03*
X167000000Y-156200000D03*
X164460000Y-153660000D03*
X167000000Y-153660000D03*
X164460000Y-151120000D03*
X167000000Y-151120000D03*
X164460000Y-148580000D03*
X167000000Y-148580000D03*
X164460000Y-146040000D03*
X167000000Y-146040000D03*
X164460000Y-143500000D03*
X167000000Y-143500000D03*
X164460000Y-140960000D03*
X167000000Y-140960000D03*
X164460000Y-138420000D03*
X167000000Y-138420000D03*
X164460000Y-135880000D03*
X167000000Y-135880000D03*
X164460000Y-133340000D03*
X167000000Y-133340000D03*
X164460000Y-130800000D03*
X167000000Y-130800000D03*
X164460000Y-128260000D03*
X167000000Y-128260000D03*
X164460000Y-125720000D03*
X167000000Y-125720000D03*
X164460000Y-123180000D03*
X167000000Y-123180000D03*
X164460000Y-120640000D03*
X167000000Y-120640000D03*
X164460000Y-118100000D03*
X167000000Y-118100000D03*
X164460000Y-115560000D03*
X167000000Y-115560000D03*
X164460000Y-113020000D03*
X167000000Y-113020000D03*
X164460000Y-110480000D03*
X167000000Y-110480000D03*
%TD*%
D12*
%TO.C,BT701*%
X165000000Y-89500000D03*
D13*
X157800000Y-89500000D03*
%TD*%
D14*
%TO.C,A701*%
X141700000Y-159175000D03*
D15*
X142000000Y-156145000D03*
X146850000Y-156145000D03*
D14*
X147150000Y-159175000D03*
D16*
X134735000Y-159305000D03*
D17*
X134735000Y-156765000D03*
D18*
X134735000Y-154225000D03*
D17*
X134735000Y-151685000D03*
X134735000Y-149145000D03*
X134735000Y-146605000D03*
X134735000Y-144065000D03*
D18*
X134735000Y-141525000D03*
D17*
X134735000Y-138985000D03*
X134735000Y-136445000D03*
X134735000Y-133905000D03*
X134735000Y-131365000D03*
D18*
X134735000Y-128825000D03*
D17*
X134735000Y-126285000D03*
X134735000Y-123745000D03*
X134735000Y-121205000D03*
X134735000Y-118665000D03*
D18*
X134735000Y-116125000D03*
D17*
X134735000Y-113585000D03*
X134735000Y-111045000D03*
X154115000Y-111045000D03*
X154115000Y-113585000D03*
D16*
X154115000Y-116125000D03*
D17*
X154115000Y-118665000D03*
X154115000Y-121205000D03*
X154115000Y-123745000D03*
X154115000Y-126285000D03*
D16*
X154115000Y-128825000D03*
D17*
X154115000Y-131365000D03*
X154115000Y-133905000D03*
X154115000Y-136445000D03*
X154115000Y-138985000D03*
D16*
X154115000Y-141525000D03*
D17*
X154115000Y-144065000D03*
X154115000Y-146605000D03*
X154115000Y-149145000D03*
X154115000Y-151685000D03*
D16*
X154115000Y-154225000D03*
D17*
X154115000Y-156765000D03*
X154115000Y-159305000D03*
D19*
X141885000Y-110475000D03*
D20*
X144425000Y-111275000D03*
D19*
X146965000Y-110475000D03*
%TD*%
M02*
